SplineFontDB: 3.2
FontName: Veqilharxhi
FullName: Veqilharxhi
FamilyName: Veqilharxhi Regular
Weight: Regular
Copyright: Copyright (c) 2019, Arber Borici.
UComments: "2019-2-22: Created with FontForge (http://fontforge.org)"
Version: 1.0.3
ItalicAngle: 0
UnderlinePosition: -401
UnderlineWidth: 196
Ascent: 3277
Descent: 819
InvalidEm: 0
LayerCount: 2
Layer: 0 1 "Back" 1
Layer: 1 1 "Fore" 0
XUID: [1021 173 -2133813548 3420358]
StyleMap: 0x0000
FSType: 0
OS2Version: 0
OS2_WeightWidthSlopeOnly: 0
OS2_UseTypoMetrics: 1
CreationTime: 1550899400
ModificationTime: 1600316813
PfmFamily: 17
TTFWeight: 400
TTFWidth: 5
LineGap: 1475
VLineGap: 0
OS2TypoAscent: 0
OS2TypoAOffset: 1
OS2TypoDescent: 0
OS2TypoDOffset: 1
OS2TypoLinegap: 369
OS2WinAscent: 0
OS2WinAOffset: 1
OS2WinDescent: 0
OS2WinDOffset: 1
HheadAscent: 0
HheadAOffset: 1
HheadDescent: 0
HheadDOffset: 1
OS2Vendor: 'PfEd'
MarkAttachClasses: 1
DEI: 91125

StartChar: u10570
Encoding: 66928 66928 0
Width: 2936
VWidth: 0
Flags: W
HStem: 12 238<1847.49 2365.93> 94 70<886.802 1115.57> 3072 168<1672.65 1956.45>
VStem: 70 368<938.28 2056.14> 1384 238<2391.4 3039.47> 2216 135<1943.64 2775.99> 2519 352<454.701 1326.74>
LayerCount: 2
Fore
SplineSet
1327 446 m 0,0,1
 1327 486 1327 486 1346.5 527.5 c 128,-1,2
 1366 569 1366 569 1401 569 c 0,3,4
 1411 569 1411 569 1421 566.5 c 128,-1,5
 1431 564 1431 564 1444.5 558 c 128,-1,6
 1458 552 1458 552 1468 548 c 0,7,8
 1476 542 1476 542 1496 532 c 0,9,10
 1514 522 1514 522 1526 517 c 1,11,12
 1591 596 1591 596 1649 698 c 0,13,14
 1712 810 1712 810 1756 895 c 128,-1,15
 1800 980 1800 980 1856.5 1128 c 128,-1,16
 1913 1276 1913 1276 1940 1352.5 c 128,-1,17
 1967 1429 1967 1429 2025 1600 c 0,18,19
 2036 1631 2036 1631 2041.5 1648.5 c 128,-1,20
 2047 1666 2047 1666 2056 1692.5 c 128,-1,21
 2065 1719 2065 1719 2073 1741 c 0,22,23
 2073 1742 2073 1742 2073 1744 c 0,24,25
 2006 1798 2006 1798 1950 1838 c 0,26,27
 1888 1882 1888 1882 1817 1941 c 128,-1,28
 1746 2000 1746 2000 1688.5 2057.5 c 128,-1,29
 1631 2115 1631 2115 1575 2196.5 c 128,-1,30
 1519 2278 1519 2278 1479 2372 c 0,31,32
 1429 2481 1429 2481 1406.5 2574.5 c 128,-1,33
 1384 2668 1384 2668 1384 2777 c 0,34,35
 1384 2982 1384 2982 1491 3105 c 0,36,37
 1549 3171 1549 3171 1644 3205.5 c 128,-1,38
 1739 3240 1739 3240 1831 3240 c 0,39,40
 1888 3240 1888 3240 1964 3215 c 128,-1,41
 2040 3190 2040 3190 2081 3154 c 0,42,43
 2116 3122 2116 3122 2142 3097.5 c 128,-1,44
 2168 3073 2168 3073 2191.5 3045.5 c 128,-1,45
 2215 3018 2215 3018 2230.5 3001 c 128,-1,46
 2246 2984 2246 2984 2261 2955.5 c 128,-1,47
 2276 2927 2276 2927 2284 2913 c 128,-1,48
 2292 2899 2292 2899 2301 2865 c 128,-1,49
 2310 2831 2310 2831 2314 2815.5 c 128,-1,50
 2318 2800 2318 2800 2324.5 2755.5 c 128,-1,51
 2331 2711 2331 2711 2333.5 2689 c 128,-1,52
 2336 2667 2336 2667 2343 2609 c 0,53,54
 2351 2543 2351 2543 2351 2388 c 0,55,56
 2351 2213 2351 2213 2277 1946 c 1,57,58
 2296 1937 2296 1937 2351 1916 c 128,-1,59
 2406 1895 2406 1895 2456.5 1867.5 c 128,-1,60
 2507 1840 2507 1840 2560 1794 c 0,61,62
 2694 1679 2694 1679 2782.5 1458.5 c 128,-1,63
 2871 1238 2871 1238 2871 983 c 0,64,65
 2871 726 2871 726 2815.5 501.5 c 128,-1,66
 2760 277 2760 277 2646 143 c 0,67,68
 2592 81 2592 81 2478 46.5 c 128,-1,69
 2364 12 2364 12 2232 12 c 0,70,71
 2044 12 2044 12 1846.5 66 c 128,-1,72
 1649 120 1649 120 1511 209 c 0,73,74
 1510 210 1510 210 1509 210 c 0,75,76
 1334 94 1334 94 1102 94 c 2,77,-1
 1049 94 l 2,78,79
 896 94 896 94 765.5 136.5 c 128,-1,80
 635 179 635 179 536 254 c 128,-1,81
 437 329 437 329 358 435.5 c 128,-1,82
 279 542 279 542 225.5 666.5 c 128,-1,83
 172 791 172 791 136.5 936.5 c 128,-1,84
 101 1082 101 1082 85.5 1231 c 128,-1,85
 70 1380 70 1380 70 1540 c 2,86,-1
 70 1561 l 2,87,88
 70 1718 70 1718 82 1852 c 128,-1,89
 94 1986 94 1986 123 2121 c 128,-1,90
 152 2256 152 2256 199.5 2370.5 c 128,-1,91
 247 2485 247 2485 320.5 2594.5 c 128,-1,92
 394 2704 394 2704 491.5 2794.5 c 128,-1,93
 589 2885 589 2885 721 2965.5 c 128,-1,94
 853 3046 853 3046 1016 3109 c 0,95,96
 1114 3146 1114 3146 1147 3146 c 0,97,98
 1176 3146 1176 3146 1176 3129 c 0,99,100
 1176 3093 1176 3093 1052 2912.5 c 128,-1,101
 928 2732 928 2732 804 2570 c 2,102,-1
 680 2408 l 1,103,104
 658 2365 658 2365 625.5 2296 c 128,-1,105
 593 2227 593 2227 534.5 2080 c 128,-1,106
 476 1933 476 1933 467 1864 c 0,107,108
 438 1663 438 1663 438 1532 c 0,109,110
 438 1438 438 1438 458 1290 c 0,111,112
 480 1142 480 1142 500 1040 c 2,113,-1
 520 938 l 2,114,115
 522 928 522 928 526.5 911 c 128,-1,116
 531 894 531 894 546 841 c 128,-1,117
 561 788 561 788 577.5 737 c 128,-1,118
 594 686 594 686 620 616 c 128,-1,119
 646 546 646 546 673 486 c 128,-1,120
 700 426 700 426 735 365 c 128,-1,121
 770 304 770 304 805 261 c 128,-1,122
 840 218 840 218 882.5 191 c 128,-1,123
 925 164 925 164 967 164 c 0,124,125
 1064 164 1064 164 1173 220.5 c 128,-1,126
 1282 277 1282 277 1360 348 c 1,127,128
 1327 402 1327 402 1327 446 c 0,0,1
2159 2015 m 1,129,130
 2174 2074 2174 2074 2192 2162 c 0,131,132
 2216 2288 2216 2288 2216 2392 c 128,-1,133
 2216 2496 2216 2496 2204 2580 c 128,-1,134
 2192 2664 2192 2664 2160.5 2752 c 128,-1,135
 2129 2840 2129 2840 2067 2917.5 c 128,-1,136
 2005 2995 2005 2995 1913 3060 c 0,137,138
 1895 3072 1895 3072 1798 3072 c 0,139,140
 1749 3072 1749 3072 1745 3068 c 0,141,142
 1622 2993 1622 2993 1622 2716 c 2,143,-1
 1622 2654 l 2,144,145
 1622 2539 1622 2539 1697 2410.5 c 128,-1,146
 1772 2282 1772 2282 1872 2208 c 0,147,148
 1942 2155 1942 2155 1993.5 2120 c 128,-1,149
 2045 2085 2045 2085 2092 2056.5 c 128,-1,150
 2139 2028 2139 2028 2159 2015 c 1,129,130
2202 1631 m 1,151,152
 2196 1598 2196 1598 2180 1524 c 0,153,154
 2156 1410 2156 1410 2142 1372 c 0,155,156
 2113 1303 2113 1303 2077 1208.5 c 128,-1,157
 2041 1114 2041 1114 2020 1054 c 2,158,-1
 1999 995 l 2,159,160
 1871 647 1871 647 1765 475 c 1,161,162
 1724 430 1724 430 1712 410 c 1,163,164
 1985 250 1985 250 2171 250 c 0,165,166
 2228 250 2228 250 2268 263.5 c 128,-1,167
 2308 277 2308 277 2347.5 315 c 128,-1,168
 2387 353 2387 353 2420.5 426 c 128,-1,169
 2454 499 2454 499 2486 614 c 0,170,171
 2519 730 2519 730 2519 913 c 2,172,-1
 2519 975 l 2,173,174
 2519 1304 2519 1304 2216 1618 c 0,175,176
 2209 1624 2209 1624 2202 1631 c 1,151,152
EndSplineSet
EndChar

StartChar: u10571
Encoding: 66929 66929 1
Width: 2170
VWidth: 0
Flags: W
HStem: -815 151<1658.51 1911.7> 729 62<252.187 344.019> 1921 184<545 876.515> 3158 107<755.173 1097.97>
VStem: 66 73<982.675 1508.7> 393 201<1847.38 2977.94> 401 222<1184.99 2367.22> 1135 401<-402.311 -197 74 871.946 891.519 899.953> 1200 373<109.735 1459.09> 2036 69<-456.736 -321.396>
LayerCount: 2
Fore
SplineSet
1343 2945 m 0,0,1
 1347 2941 1347 2941 1340 2933.5 c 128,-1,2
 1333 2926 1333 2926 1321.5 2921 c 128,-1,3
 1310 2916 1310 2916 1303 2920 c 0,4,5
 1255 2946 1255 2946 1209.5 2991 c 128,-1,6
 1164 3036 1164 3036 1136 3070.5 c 128,-1,7
 1108 3105 1108 3105 1062 3131.5 c 128,-1,8
 1016 3158 1016 3158 958 3158 c 0,9,10
 821 3158 821 3158 734 3092 c 128,-1,11
 647 3026 647 3026 623 2896 c 0,12,13
 594 2739 594 2739 594 2535 c 0,14,15
 594 2439 594 2439 608 2228 c 0,16,17
 614 2137 614 2137 618 2061 c 1,18,19
 733 2105 733 2105 827 2105 c 0,20,21
 969 2105 969 2105 1155 2023 c 0,22,23
 1212 2001 1212 2001 1259 1966.5 c 128,-1,24
 1306 1932 1306 1932 1338 1901.5 c 128,-1,25
 1370 1871 1370 1871 1399.5 1812 c 128,-1,26
 1429 1753 1429 1753 1444 1721 c 128,-1,27
 1459 1689 1459 1689 1478.5 1609 c 128,-1,28
 1498 1529 1498 1529 1504 1500 c 128,-1,29
 1510 1471 1510 1471 1527 1378 c 0,30,31
 1529 1368 1529 1368 1530 1362 c 128,-1,32
 1531 1356 1531 1356 1533 1347 c 128,-1,33
 1535 1338 1535 1338 1536 1331 c 0,34,35
 1573 1122 1573 1122 1573 885 c 0,36,37
 1573 746 1573 746 1554.5 482 c 128,-1,38
 1536 218 1536 218 1536 74 c 0,39,40
 1536 -111 1536 -111 1556 -270 c 0,41,42
 1563 -334 1563 -334 1569.5 -373 c 128,-1,43
 1576 -412 1576 -412 1591 -465.5 c 128,-1,44
 1606 -519 1606 -519 1627 -552 c 128,-1,45
 1648 -585 1648 -585 1684 -615 c 128,-1,46
 1720 -645 1720 -645 1769 -659 c 0,47,48
 1784 -664 1784 -664 1798 -664 c 0,49,50
 1834 -664 1834 -664 1869 -636 c 128,-1,51
 1904 -608 1904 -608 1927 -574 c 128,-1,52
 1950 -540 1950 -540 1983 -488 c 128,-1,53
 2016 -436 2016 -436 2036 -410 c 0,54,55
 2044 -400 2044 -400 2042.5 -387 c 128,-1,56
 2041 -374 2041 -374 2037.5 -360 c 128,-1,57
 2034 -346 2034 -346 2030.5 -334.5 c 128,-1,58
 2027 -323 2027 -323 2030 -316.5 c 128,-1,59
 2033 -310 2033 -310 2044 -311 c 0,60,61
 2080 -314 2080 -314 2102 -356 c 128,-1,62
 2124 -398 2124 -398 2105 -426 c 0,63,64
 2081 -463 2081 -463 2048 -526.5 c 128,-1,65
 2015 -590 2015 -590 1990 -633.5 c 128,-1,66
 1965 -677 1965 -677 1931.5 -722.5 c 128,-1,67
 1898 -768 1898 -768 1857.5 -791.5 c 128,-1,68
 1817 -815 1817 -815 1769 -815 c 0,69,70
 1748 -815 1748 -815 1716 -807 c 0,71,72
 1484 -753 1484 -753 1345.5 -595.5 c 128,-1,73
 1207 -438 1207 -438 1163 -197 c 0,74,75
 1135 -42 1135 -42 1135 119 c 0,76,77
 1135 259 1135 259 1167.5 516.5 c 128,-1,78
 1200 774 1200 774 1200 913 c 0,79,80
 1200 1156 1200 1156 1118 1434 c 0,81,82
 1102 1489 1102 1489 1092.5 1518.5 c 128,-1,83
 1083 1548 1083 1548 1062.5 1599 c 128,-1,84
 1042 1650 1042 1650 1023 1680 c 128,-1,85
 1004 1710 1004 1710 971.5 1750.5 c 128,-1,86
 939 1791 939 1791 902 1817 c 128,-1,87
 865 1843 865 1843 812 1868.5 c 128,-1,88
 759 1894 759 1894 696 1909 c 0,89,90
 662 1917 662 1917 623 1920 c 1,91,92
 623 1901 623 1901 623 1884 c 2,93,-1
 623 1610 l 2,94,95
 623 1420 623 1420 607.5 1275 c 128,-1,96
 592 1130 592 1130 541 958 c 0,97,98
 515 863 515 863 447.5 796 c 128,-1,99
 380 729 380 729 295 729 c 0,100,101
 282 729 282 729 242 737 c 0,102,103
 210 746 210 746 186 761 c 128,-1,104
 162 776 162 776 146.5 801 c 128,-1,105
 131 826 131 826 120.5 847 c 128,-1,106
 110 868 110 868 103.5 906 c 128,-1,107
 97 944 97 944 94 966 c 128,-1,108
 91 988 91 988 87.5 1033.5 c 128,-1,109
 84 1079 84 1079 82 1098 c 0,110,111
 66 1246 66 1246 66 1278 c 0,112,113
 66 1442 66 1442 102 1602 c 0,114,115
 116 1655 116 1655 138 1701.5 c 128,-1,116
 160 1748 160 1748 186.5 1785 c 128,-1,117
 213 1822 213 1822 250 1856 c 0,118,119
 287 1888 287 1888 323 1914 c 0,120,121
 356 1937 356 1937 400 1961 c 1,122,123
 401 2002 401 2002 401 2036 c 0,124,125
 401 2103 401 2103 397 2213.5 c 128,-1,126
 393 2324 393 2324 393 2372 c 0,127,128
 393 2525 393 2525 403 2640.5 c 128,-1,129
 413 2756 413 2756 446 2884 c 0,130,131
 496 3061 496 3061 626.5 3163 c 128,-1,132
 757 3265 757 3265 942 3265 c 0,133,134
 1011 3265 1011 3265 1069 3232.5 c 128,-1,135
 1127 3200 1127 3200 1161 3159.5 c 128,-1,136
 1195 3119 1195 3119 1249 3051.5 c 128,-1,137
 1303 2984 1303 2984 1343 2945 c 0,0,1
397 1873 m 1,138,139
 379 1860 379 1860 365 1843 c 0,140,141
 265 1730 265 1730 217 1625.5 c 128,-1,142
 169 1521 169 1521 147 1372 c 0,143,144
 139 1314 139 1314 139 1274 c 0,145,146
 139 1138 139 1138 171 1001 c 128,-1,147
 203 864 203 864 250 823 c 0,148,149
 290 791 290 791 307 791 c 0,150,151
 369 791 369 791 369 987 c 0,152,153
 369 1022 369 1022 367 1085.5 c 128,-1,154
 365 1149 365 1149 365 1171 c 0,155,156
 365 1320 365 1320 383 1602 c 0,157,158
 393 1757 393 1757 397 1873 c 1,138,139
EndSplineSet
EndChar

StartChar: u10573
Encoding: 66931 66931 2
Width: 1867
VWidth: 0
Flags: W
HStem: -811 283<1213.81 1496.82> 1110 168<690.5 1314.86> 1208 95<1079.41 1255.52> 1966 193<296.215 585.361> 2413 397<529.359 671.988> 3035 238<507.196 990.529>
VStem: 66 159<2239.75 2702.8> 524 303<1204 1478.75> 672 266<-121.854 646.08> 672 200<2246.04 2411.22> 1339 349<2172.29 2737.43> 1675 133<-341.833 -181.033>
LayerCount: 2
Fore
SplineSet
725 2785 m 0,0,1
 731 2773 731 2773 741 2752.5 c 128,-1,2
 751 2732 751 2732 776 2671.5 c 128,-1,3
 801 2611 801 2611 820.5 2555.5 c 128,-1,4
 840 2500 840 2500 856 2431 c 128,-1,5
 872 2362 872 2362 872 2310 c 0,6,7
 872 2209 872 2209 813 2129 c 128,-1,8
 754 2049 754 2049 661.5 2007.5 c 128,-1,9
 569 1966 569 1966 463 1966 c 0,10,11
 304 1966 304 1966 185 2097.5 c 128,-1,12
 66 2229 66 2229 66 2404 c 0,13,14
 66 2978 66 2978 569 3215 c 0,15,16
 685 3273 685 3273 844 3273 c 0,17,18
 1040 3273 1040 3273 1241 3183 c 1,19,20
 1414 3110 1414 3110 1505 2990.5 c 128,-1,21
 1596 2871 1596 2871 1655 2671 c 0,22,23
 1688 2562 1688 2562 1688 2486 c 0,24,25
 1688 2308 1688 2308 1561 2105 c 0,26,27
 1502 2010 1502 2010 1420.5 1930 c 128,-1,28
 1339 1850 1339 1850 1261 1792 c 128,-1,29
 1183 1734 1183 1734 1106 1674 c 128,-1,30
 1029 1614 1029 1614 957 1530 c 128,-1,31
 885 1446 885 1446 836 1343 c 0,32,33
 827 1316 827 1316 827 1311 c 0,34,35
 827 1291 827 1291 845.5 1284.5 c 128,-1,36
 864 1278 864 1278 905 1278 c 128,-1,37
 946 1278 946 1278 1042.5 1290.5 c 128,-1,38
 1139 1303 1139 1303 1180 1303 c 0,39,40
 1224 1303 1224 1303 1334 1323 c 128,-1,41
 1444 1343 1444 1343 1479 1343 c 0,42,43
 1528 1343 1528 1343 1528 1323 c 0,44,45
 1528 1311 1528 1311 1511 1294 c 0,46,47
 1478 1255 1478 1255 1419 1185 c 128,-1,48
 1360 1115 1360 1115 1329.5 1079 c 128,-1,49
 1299 1043 1299 1043 1249 981 c 128,-1,50
 1199 919 1199 919 1172.5 881.5 c 128,-1,51
 1146 844 1146 844 1107.5 787.5 c 128,-1,52
 1069 731 1069 731 1048.5 690 c 128,-1,53
 1028 649 1028 649 1003 594.5 c 128,-1,54
 978 540 978 540 966.5 492.5 c 128,-1,55
 955 445 955 445 946.5 390 c 128,-1,56
 938 335 938 335 938 279 c 0,57,58
 938 58 938 58 1081 -254 c 1,59,60
 1141 -370 1141 -370 1209.5 -434 c 128,-1,61
 1278 -498 1278 -498 1389 -524 c 0,62,63
 1405 -528 1405 -528 1434 -528 c 0,64,65
 1447 -528 1447 -528 1459.5 -526 c 128,-1,66
 1472 -524 1472 -524 1482 -521.5 c 128,-1,67
 1492 -519 1492 -519 1504.5 -512.5 c 128,-1,68
 1517 -506 1517 -506 1524.5 -502 c 128,-1,69
 1532 -498 1532 -498 1545 -487.5 c 128,-1,70
 1558 -477 1558 -477 1564 -472.5 c 128,-1,71
 1570 -468 1570 -468 1584.5 -454.5 c 128,-1,72
 1599 -441 1599 -441 1604 -436 c 128,-1,73
 1609 -431 1609 -431 1625.5 -414.5 c 128,-1,74
 1642 -398 1642 -398 1647 -393 c 0,75,76
 1675 -365 1675 -365 1675 -307 c 2,77,-1
 1675 -254 l 2,78,79
 1675 -213 1675 -213 1696 -180 c 0,80,81
 1715 -152 1715 -152 1762 -137 c 0,82,83
 1806 -123 1806 -123 1808 -145 c 0,84,85
 1808 -150 1808 -150 1806 -156 c 0,86,87
 1795 -188 1795 -188 1774 -250 c 128,-1,88
 1753 -312 1753 -312 1742.5 -340.5 c 128,-1,89
 1732 -369 1732 -369 1712.5 -418.5 c 128,-1,90
 1693 -468 1693 -468 1676 -497.5 c 128,-1,91
 1659 -527 1659 -527 1634.5 -566.5 c 128,-1,92
 1610 -606 1610 -606 1579.5 -640.5 c 128,-1,93
 1549 -675 1549 -675 1511 -709 c 0,94,95
 1397 -811 1397 -811 1274 -811 c 0,96,97
 1195 -811 1195 -811 1126 -770 c 0,98,99
 951 -665 951 -665 856 -541.5 c 128,-1,100
 761 -418 761 -418 725 -233 c 1,101,102
 672 74 672 74 672 254 c 0,103,104
 672 366 672 366 689 465 c 128,-1,105
 706 564 706 564 747 665 c 128,-1,106
 788 766 788 766 854 856 c 128,-1,107
 920 946 920 946 1021.5 1036 c 128,-1,108
 1123 1126 1123 1126 1257 1208 c 1,109,110
 1256 1208 1256 1208 1168 1183.5 c 128,-1,111
 1080 1159 1080 1159 954.5 1134.5 c 128,-1,112
 829 1110 829 1110 737 1110 c 0,113,114
 644 1110 644 1110 584 1140.5 c 128,-1,115
 524 1171 524 1171 524 1237 c 0,116,117
 524 1324 524 1324 549 1401.5 c 128,-1,118
 574 1479 574 1479 617 1539.5 c 128,-1,119
 660 1600 660 1600 716 1655 c 128,-1,120
 772 1710 772 1710 835.5 1760 c 128,-1,121
 899 1810 899 1810 963 1859.5 c 128,-1,122
 1027 1909 1027 1909 1088.5 1964.5 c 128,-1,123
 1150 2020 1150 2020 1199.5 2080 c 128,-1,124
 1249 2140 1249 2140 1285.5 2217 c 128,-1,125
 1322 2294 1322 2294 1335 2380 c 0,126,127
 1339 2405 1339 2405 1339 2458 c 0,128,129
 1339 2565 1339 2565 1294.5 2659.5 c 128,-1,130
 1250 2754 1250 2754 1171.5 2824 c 128,-1,131
 1093 2894 1093 2894 992.5 2944.5 c 128,-1,132
 892 2995 892 2995 774 3023 c 0,133,134
 730 3035 730 3035 696 3035 c 0,135,136
 623 3035 623 3035 556.5 2999.5 c 128,-1,137
 490 2964 490 2964 435 2898.5 c 128,-1,138
 380 2833 380 2833 339 2766 c 128,-1,139
 298 2699 298 2699 254 2609 c 0,140,141
 225 2552 225 2552 225 2466 c 0,142,143
 225 2304 225 2304 356 2179 c 0,144,145
 376 2159 376 2159 410 2159 c 0,146,147
 484 2159 484 2159 578 2241 c 128,-1,148
 672 2323 672 2323 672 2380 c 0,149,150
 672 2413 672 2413 623 2413 c 2,151,-1
 606 2413 l 2,152,153
 598 2413 598 2413 582 2410.5 c 128,-1,154
 566 2408 566 2408 561 2408 c 0,155,156
 426 2408 426 2408 426 2511 c 0,157,158
 426 2568 426 2568 468.5 2639.5 c 128,-1,159
 511 2711 511 2711 570.5 2760.5 c 128,-1,160
 630 2810 630 2810 676 2810 c 0,161,162
 706 2810 706 2810 725 2785 c 0,0,1
EndSplineSet
EndChar

StartChar: u10574
Encoding: 66932 66932 3
Width: 2056
VWidth: 0
Flags: W
HStem: 8 254<561.321 1016.17> 41 291<1216.15 1582.87> 975 201<1010.04 1273.66> 2900 360<1299.58 1470.5>
VStem: 66 299<469.016 1099.63> 754 196<516.789 934.701> 930 254<2059.94 2775.29> 1311 143<553.757 915.081> 1622 369<2147.3 2732.71> 1704 217<461.398 1269.22>
LayerCount: 2
Fore
SplineSet
1729 2048 m 0,0,1
 1619 2109 1619 2109 1577.5 2149 c 128,-1,2
 1536 2189 1536 2189 1536 2232 c 0,3,4
 1536 2262 1536 2262 1557.5 2303 c 128,-1,5
 1579 2344 1579 2344 1600.5 2393.5 c 128,-1,6
 1622 2443 1622 2443 1622 2494 c 0,7,8
 1622 2666 1622 2666 1397 2896 c 0,9,10
 1393 2900 1393 2900 1389 2900 c 0,11,12
 1366 2900 1366 2900 1315.5 2835.5 c 128,-1,13
 1265 2771 1265 2771 1224.5 2698 c 128,-1,14
 1184 2625 1184 2625 1184 2601 c 2,15,-1
 1184 2593 l 1,16,-1
 1184 2576 l 2,17,18
 1184 2222 1184 2222 1212 2167 c 0,19,20
 1250 2086 1250 2086 1300.5 2022.5 c 128,-1,21
 1351 1959 1351 1959 1401 1915.5 c 128,-1,22
 1451 1872 1451 1872 1501 1827 c 128,-1,23
 1551 1782 1551 1782 1603.5 1715 c 128,-1,24
 1656 1648 1656 1648 1696 1561 c 0,25,26
 1716 1518 1716 1518 1753 1443 c 0,27,28
 1798 1351 1798 1351 1818 1307 c 128,-1,29
 1838 1263 1838 1263 1865 1191.5 c 128,-1,30
 1892 1120 1892 1120 1901.5 1064.5 c 128,-1,31
 1911 1009 1911 1009 1917.5 929.5 c 128,-1,32
 1924 850 1924 850 1921 754 c 0,33,34
 1913 597 1913 597 1892 496 c 0,35,36
 1887 477 1887 477 1874.5 424.5 c 128,-1,37
 1862 372 1862 372 1852 336 c 128,-1,38
 1842 300 1842 300 1820 252 c 128,-1,39
 1798 204 1798 204 1769 168 c 0,40,41
 1715 100 1715 100 1656 70.5 c 128,-1,42
 1597 41 1597 41 1524 41 c 0,43,44
 1508 41 1508 41 1442 49 c 0,45,46
 1347 62 1347 62 1252 100 c 0,47,48
 1182 128 1182 128 1127 167 c 1,49,50
 1082 134 1082 134 1029 102 c 0,51,52
 869 8 869 8 737 8 c 0,53,54
 637 8 637 8 571 13.5 c 128,-1,55
 505 19 505 19 431.5 37 c 128,-1,56
 358 55 358 55 296 93.5 c 128,-1,57
 234 132 234 132 176 193 c 0,58,59
 66 303 66 303 66 623 c 2,60,-1
 66 668 l 2,61,62
 66 765 66 765 68.5 808.5 c 128,-1,63
 71 852 71 852 87 919 c 128,-1,64
 103 986 103 986 139 1065 c 0,65,66
 162 1117 162 1117 198 1164 c 128,-1,67
 234 1211 234 1211 263 1239 c 128,-1,68
 292 1267 292 1267 352 1319 c 0,69,70
 378 1342 378 1342 442.5 1353 c 128,-1,71
 507 1364 507 1364 578 1364 c 0,72,73
 657 1364 657 1364 684 1348 c 0,74,75
 692 1340 692 1340 692 1335 c 0,76,77
 692 1321 692 1321 670 1299 c 128,-1,78
 648 1277 648 1277 628 1262.5 c 128,-1,79
 608 1248 608 1248 573 1225 c 0,80,81
 569 1222 569 1222 566.5 1220.5 c 128,-1,82
 564 1219 564 1219 561 1217 c 0,83,84
 464 1155 464 1155 414.5 1035.5 c 128,-1,85
 365 916 365 916 365 774 c 0,86,87
 365 651 365 651 412.5 543.5 c 128,-1,88
 460 436 460 436 549 360 c 0,89,90
 599 317 599 317 679.5 289.5 c 128,-1,91
 760 262 760 262 836 262 c 0,92,93
 895 262 895 262 930 279 c 0,94,95
 950 287 950 287 969 296 c 1,96,97
 936 326 936 326 897 366 c 0,98,99
 850 414 850 414 820.5 465 c 128,-1,100
 791 516 791 516 770 578 c 0,101,102
 754 628 754 628 754 659 c 0,103,104
 754 778 754 778 833.5 919.5 c 128,-1,105
 913 1061 913 1061 1016 1151 c 0,106,107
 1041 1176 1041 1176 1090 1176 c 0,108,109
 1195 1176 1195 1176 1335 1036 c 0,110,111
 1454 917 1454 917 1454 700 c 0,112,113
 1454 651 1454 651 1448 612 c 128,-1,114
 1442 573 1442 573 1436 548 c 128,-1,115
 1430 523 1430 523 1410 489 c 0,116,117
 1390 455 1390 455 1378 439 c 0,118,119
 1366 422 1366 422 1331 378 c 0,120,121
 1311 352 1311 352 1296 334 c 1,122,123
 1316 332 1316 332 1339 332 c 0,124,125
 1433 332 1433 332 1499 361 c 128,-1,126
 1565 390 1565 390 1618 463 c 0,127,128
 1674 544 1674 544 1689 620 c 128,-1,129
 1704 696 1704 696 1704 815 c 2,130,-1
 1704 889 l 2,131,132
 1704 1023 1704 1023 1673 1122 c 128,-1,133
 1642 1221 1642 1221 1569 1368 c 0,134,135
 1529 1450 1529 1450 1471 1529 c 128,-1,136
 1413 1608 1413 1608 1374 1650 c 128,-1,137
 1335 1692 1335 1692 1266 1761 c 0,138,139
 1200 1827 1200 1827 1170 1858 c 128,-1,140
 1140 1889 1140 1889 1097 1938.5 c 128,-1,141
 1054 1988 1054 1988 1033.5 2021 c 128,-1,142
 1013 2054 1013 2054 994.5 2097.5 c 128,-1,143
 976 2141 976 2141 967 2187 c 0,144,145
 930 2381 930 2381 930 2556 c 0,146,147
 930 2826 930 2826 1057 3031 c 0,148,149
 1087 3072 1087 3072 1104.5 3095 c 128,-1,150
 1122 3118 1122 3118 1154.5 3154.5 c 128,-1,151
 1187 3191 1187 3191 1213 3210 c 128,-1,152
 1239 3229 1239 3229 1274 3244.5 c 128,-1,153
 1309 3260 1309 3260 1343 3260 c 2,154,-1
 1405 3260 l 2,155,156
 1456 3260 1456 3260 1481 3258 c 128,-1,157
 1506 3256 1506 3256 1543.5 3243 c 128,-1,158
 1581 3230 1581 3230 1622 3203 c 0,159,160
 1647 3187 1647 3187 1668 3168 c 128,-1,161
 1689 3149 1689 3149 1712.5 3118.5 c 128,-1,162
 1736 3088 1736 3088 1745.5 3075 c 128,-1,163
 1755 3062 1755 3062 1783 3019 c 128,-1,164
 1811 2976 1811 2976 1815 2970 c 0,165,166
 1854 2909 1854 2909 1874.5 2855.5 c 128,-1,167
 1895 2802 1895 2802 1922.5 2701.5 c 128,-1,168
 1950 2601 1950 2601 1974 2527 c 0,169,170
 1991 2475 1991 2475 1991 2392 c 0,171,172
 1991 2296 1991 2296 1973.5 2194 c 128,-1,173
 1956 2092 1956 2092 1923 2019 c 128,-1,174
 1890 1946 1890 1946 1851 1946 c 0,175,176
 1830 1946 1830 1946 1815 1966 c 0,177,178
 1800 1983 1800 1983 1796.5 1996.5 c 128,-1,179
 1793 2010 1793 2010 1782.5 2017.5 c 128,-1,180
 1772 2025 1772 2025 1729 2048 c 0,0,1
1141 411 m 1,181,182
 1166 436 1166 436 1188 464 c 0,183,184
 1280 583 1280 583 1311 782 c 1,185,-1
 1311 799 l 2,186,187
 1311 846 1311 846 1272 888.5 c 128,-1,188
 1233 931 1233 931 1187 953 c 128,-1,189
 1141 975 1141 975 1110 975 c 2,190,-1
 1106 975 l 1,191,192
 1045 963 1045 963 1004 881 c 0,193,194
 996 866 996 866 983.5 846.5 c 128,-1,195
 971 827 971 827 965.5 816 c 128,-1,196
 960 805 960 805 955 781.5 c 128,-1,197
 950 758 950 758 950 725 c 0,198,199
 950 690 950 690 957 659.5 c 128,-1,200
 964 629 964 629 971.5 609 c 128,-1,201
 979 589 979 589 998 563 c 128,-1,202
 1017 537 1017 537 1028 525.5 c 128,-1,203
 1039 514 1039 514 1067 486 c 128,-1,204
 1095 458 1095 458 1106 446 c 0,205,206
 1124 427 1124 427 1141 411 c 1,181,182
EndSplineSet
EndChar

StartChar: u10575
Encoding: 66933 66933 4
Width: 2813
VWidth: 0
Flags: W
HStem: 2167 168<74 575.373>
VStem: 651 447<464.63 1293.4> 721 377<1549.6 2130> 868 230<2892.88 3109> 1712 311<950.891 1502.65>
LayerCount: 2
Fore
SplineSet
1098 3215 m 1,0,-1
 1081 2318 l 1,1,-1
 1815 2458 l 1,2,-1
 1847 2142 l 1,3,-1
 1098 2150 l 1,4,5
 1100 1889 1100 1889 1096.5 1380.5 c 128,-1,6
 1093 872 1093 872 1098 614 c 0,7,8
 1104 291 1104 291 1454 156 c 0,9,10
 1482 144 1482 144 1507.5 142.5 c 128,-1,11
 1533 141 1533 141 1556 150.5 c 128,-1,12
 1579 160 1579 160 1598 172.5 c 128,-1,13
 1617 185 1617 185 1638.5 208.5 c 128,-1,14
 1660 232 1660 232 1675.5 251 c 128,-1,15
 1691 270 1691 270 1714.5 300 c 128,-1,16
 1738 330 1738 330 1753 348 c 0,17,18
 1769 367 1769 367 1782 384 c 1,19,20
 1772 410 1772 410 1764 432 c 0,21,22
 1750 474 1750 474 1737 537 c 128,-1,23
 1724 600 1724 600 1719.5 635 c 128,-1,24
 1715 670 1715 670 1706 751 c 128,-1,25
 1697 832 1697 832 1692 872 c 0,26,27
 1670 1008 1670 1008 1671.5 1127.5 c 128,-1,28
 1673 1247 1673 1247 1712 1376 c 0,29,30
 1727 1439 1727 1439 1768 1478.5 c 128,-1,31
 1809 1518 1809 1518 1872 1524 c 0,32,33
 1926 1530 1926 1530 1966.5 1496 c 128,-1,34
 2007 1462 2007 1462 2023 1405 c 0,35,36
 2066 1260 2066 1260 2074 1150.5 c 128,-1,37
 2082 1041 2082 1041 2060 893 c 0,38,39
 2054 847 2054 847 2044.5 767 c 128,-1,40
 2035 687 2035 687 2030 646 c 128,-1,41
 2025 605 2025 605 2011.5 541 c 128,-1,42
 1998 477 1998 477 1981 432.5 c 128,-1,43
 1964 388 1964 388 1934 333 c 0,44,45
 1930 326 1930 326 1927 319 c 1,46,47
 1932 311 1932 311 1937 303 c 0,48,49
 1980 245 1980 245 2029.5 210 c 128,-1,50
 2079 175 2079 175 2139 165 c 128,-1,51
 2199 155 2199 155 2261 184 c 0,52,53
 2320 208 2320 208 2363.5 246.5 c 128,-1,54
 2407 285 2407 285 2436.5 331.5 c 128,-1,55
 2466 378 2466 378 2491 425 c 128,-1,56
 2516 472 2516 472 2553 526.5 c 128,-1,57
 2590 581 2590 581 2634 623 c 0,58,59
 2677 662 2677 662 2719 671 c 0,60,61
 2753 679 2753 679 2753 651 c 0,62,63
 2756 522 2756 522 2735 437.5 c 128,-1,64
 2714 353 2714 353 2642 270 c 0,65,66
 2549 162 2549 162 2455.5 110 c 128,-1,67
 2362 58 2362 58 2228 49 c 0,68,69
 1987 37 1987 37 1864 225 c 1,70,71
 1779 111 1779 111 1664.5 66.5 c 128,-1,72
 1550 22 1550 22 1389 25 c 0,73,74
 1232 28 1232 28 1118 76 c 128,-1,75
 1004 124 1004 124 885 233 c 0,76,77
 831 283 831 283 794.5 344 c 128,-1,78
 758 405 758 405 742 454.5 c 128,-1,79
 726 504 726 504 701.5 580.5 c 128,-1,80
 677 657 677 657 651 713 c 1,81,-1
 721 2130 l 1,82,-1
 74 2167 l 1,83,-1
 66 2335 l 1,84,85
 142 2332 142 2332 285 2331 c 128,-1,86
 428 2330 428 2330 543 2325.5 c 128,-1,87
 658 2321 658 2321 762 2310 c 1,88,-1
 868 3109 l 1,89,-1
 1098 3215 l 1,0,-1
1846 511 m 1,90,91
 1848 517 1848 517 1850 521 c 0,92,93
 1856 542 1856 542 1868 589 c 128,-1,94
 1880 636 1880 636 1888 664 c 0,95,96
 1894 686 1894 686 1902.5 707.5 c 128,-1,97
 1911 729 1911 729 1914.5 737.5 c 128,-1,98
 1918 746 1918 746 1920.5 767.5 c 128,-1,99
 1923 789 1923 789 1917 811 c 0,100,101
 1909 854 1909 854 1916.5 886 c 128,-1,102
 1924 918 1924 918 1916.5 932.5 c 128,-1,103
 1909 947 1909 947 1872 942 c 0,104,105
 1852 939 1852 939 1838.5 934.5 c 128,-1,106
 1825 930 1825 930 1817.5 922.5 c 128,-1,107
 1810 915 1810 915 1806.5 909 c 128,-1,108
 1803 903 1803 903 1803 889.5 c 128,-1,109
 1803 876 1803 876 1804.5 866 c 128,-1,110
 1806 856 1806 856 1809.5 835 c 128,-1,111
 1813 814 1813 814 1815 799 c 0,112,113
 1821 753 1821 753 1826 686 c 0,114,115
 1831 620 1831 620 1835 582 c 0,116,117
 1838 552 1838 552 1846 511 c 1,90,91
EndSplineSet
EndChar

StartChar: u10576
Encoding: 66934 66934 5
Width: 2228
VWidth: 0
Flags: W
VStem: 66 442<464.63 1301.81> 135 373<1541.19 2269.49> 172 320<2310 2524.1> 279 233<2894.9 3109> 1126 316<950.891 1502.65>
LayerCount: 2
Fore
SplineSet
512 3215 m 1,0,-1
 492 2318 l 1,1,-1
 508 2150 l 1,2,3
 510 1889 510 1889 506.5 1380.5 c 128,-1,4
 503 872 503 872 508 614 c 0,5,6
 514 292 514 292 868 156 c 0,7,8
 896 144 896 144 921.5 142.5 c 128,-1,9
 947 141 947 141 970 150.5 c 128,-1,10
 993 160 993 160 1012 172.5 c 128,-1,11
 1031 185 1031 185 1052.5 208.5 c 128,-1,12
 1074 232 1074 232 1089.5 251 c 128,-1,13
 1105 270 1105 270 1128.5 300 c 128,-1,14
 1152 330 1152 330 1167 348 c 0,15,16
 1183 367 1183 367 1196 384 c 1,17,18
 1186 410 1186 410 1178 432 c 0,19,20
 1164 474 1164 474 1151 537 c 128,-1,21
 1138 600 1138 600 1133.5 635 c 128,-1,22
 1129 670 1129 670 1120 751 c 128,-1,23
 1111 832 1111 832 1106 872 c 0,24,25
 1084 1008 1084 1008 1085.5 1127.5 c 128,-1,26
 1087 1247 1087 1247 1126 1376 c 0,27,28
 1141 1439 1141 1439 1182 1478.5 c 128,-1,29
 1223 1518 1223 1518 1286 1524 c 0,30,31
 1340 1530 1340 1530 1383.5 1496 c 128,-1,32
 1427 1462 1427 1462 1442 1405 c 0,33,34
 1483 1266 1483 1266 1488 1150.5 c 128,-1,35
 1493 1035 1493 1035 1470 893 c 0,36,37
 1463 844 1463 844 1452.5 745 c 128,-1,38
 1442 646 1442 646 1434 599.5 c 128,-1,39
 1426 553 1426 553 1408 480.5 c 128,-1,40
 1390 408 1390 408 1358 348 c 0,41,42
 1350 333 1350 333 1342 319 c 1,43,44
 1347 311 1347 311 1352 303 c 0,45,46
 1395 245 1395 245 1444 210 c 128,-1,47
 1493 175 1493 175 1553 164.5 c 128,-1,48
 1613 154 1613 154 1675 184 c 1,49,50
 1734 208 1734 208 1777 246.5 c 128,-1,51
 1820 285 1820 285 1849 331.5 c 128,-1,52
 1878 378 1878 378 1902.5 425 c 128,-1,53
 1927 472 1927 472 1963.5 526.5 c 128,-1,54
 2000 581 2000 581 2044 623 c 0,55,56
 2085 659 2085 659 2129 671 c 0,57,58
 2166 679 2166 679 2167 651 c 0,59,60
 2170 522 2170 522 2149 437.5 c 128,-1,61
 2128 353 2128 353 2056 270 c 0,62,63
 1964 162 1964 162 1868 110 c 128,-1,64
 1772 58 1772 58 1638 49 c 0,65,66
 1517 43 1517 43 1429.5 85.5 c 128,-1,67
 1342 128 1342 128 1278 225 c 1,68,69
 1193 111 1193 111 1076.5 66.5 c 128,-1,70
 960 22 960 22 799 25 c 0,71,72
 642 28 642 28 530.5 75.5 c 128,-1,73
 419 123 419 123 299 233 c 0,74,75
 245 283 245 283 208.5 343.5 c 128,-1,76
 172 404 172 404 156.5 454 c 128,-1,77
 141 504 141 504 116.5 580.5 c 128,-1,78
 92 657 92 657 66 713 c 1,79,-1
 135 2130 l 1,80,-1
 172 2310 l 1,81,-1
 279 3109 l 1,82,-1
 512 3215 l 1,0,-1
1261 510 m 1,83,84
 1263 516 1263 516 1264 521 c 0,85,86
 1270 541 1270 541 1282.5 589 c 128,-1,87
 1295 637 1295 637 1303 664 c 0,88,89
 1309 686 1309 686 1317.5 708 c 128,-1,90
 1326 730 1326 730 1329 737.5 c 128,-1,91
 1332 745 1332 745 1334.5 767 c 128,-1,92
 1337 789 1337 789 1331 811 c 0,93,94
 1323 854 1323 854 1330.5 886 c 128,-1,95
 1338 918 1338 918 1330.5 932.5 c 128,-1,96
 1323 947 1323 947 1286 942 c 0,97,98
 1266 939 1266 939 1252.5 934.5 c 128,-1,99
 1239 930 1239 930 1231.5 922.5 c 128,-1,100
 1224 915 1224 915 1220.5 909 c 128,-1,101
 1217 903 1217 903 1217 889.5 c 128,-1,102
 1217 876 1217 876 1218.5 866 c 128,-1,103
 1220 856 1220 856 1223.5 835 c 128,-1,104
 1227 814 1227 814 1229 799 c 0,105,106
 1234 753 1234 753 1239.5 685.5 c 128,-1,107
 1245 618 1245 618 1249 581 c 0,108,109
 1253 550 1253 550 1261 510 c 1,83,84
EndSplineSet
EndChar

StartChar: u10577
Encoding: 66935 66935 6
Width: 3907
VWidth: 0
Flags: W
LayerCount: 2
Fore
SplineSet
164 2327 m 0,0,1
 162 2292 162 2292 116 2306 c 0,2,3
 69 2321 69 2321 36 2362 c 0,4,5
 5 2400 5 2400 21 2429 c 0,6,7
 50 2479 50 2479 60 2539 c 128,-1,8
 70 2599 70 2599 66.5 2647.5 c 128,-1,9
 63 2696 63 2696 67 2758.5 c 128,-1,10
 71 2821 71 2821 90 2871 c 0,11,12
 133 2985 133 2985 212 3066 c 128,-1,13
 291 3147 291 3147 395 3190 c 128,-1,14
 499 3233 499 3233 613.5 3249.5 c 128,-1,15
 728 3266 728 3266 860 3260 c 0,16,17
 926 3257 926 3257 985.5 3246.5 c 128,-1,18
 1045 3236 1045 3236 1100 3215 c 128,-1,19
 1155 3194 1155 3194 1201 3172.5 c 128,-1,20
 1247 3151 1247 3151 1297.5 3114 c 128,-1,21
 1348 3077 1348 3077 1385 3047 c 0,22,23
 1417 3021 1417 3021 1459 2980 c 1,24,25
 1471 2989 1471 2989 1483 2998 c 0,26,27
 1562 3057 1562 3057 1621 3097 c 128,-1,28
 1680 3137 1680 3137 1753 3179 c 128,-1,29
 1826 3221 1826 3221 1890.5 3243.5 c 128,-1,30
 1955 3266 1955 3266 2027.5 3280 c 128,-1,31
 2100 3294 2100 3294 2177 3288.5 c 128,-1,32
 2254 3283 2254 3283 2335 3260 c 0,33,34
 2640 3176 2640 3176 2828.5 2998 c 128,-1,35
 3017 2820 3017 2820 3105 2523 c 0,36,37
 3151 2377 3151 2377 3171.5 2231 c 128,-1,38
 3192 2085 3192 2085 3190.5 1957 c 128,-1,39
 3189 1829 3189 1829 3177.5 1701 c 128,-1,40
 3166 1573 3166 1573 3151 1442.5 c 128,-1,41
 3136 1312 3136 1312 3126 1184 c 128,-1,42
 3116 1056 3116 1056 3122 905 c 128,-1,43
 3128 754 3128 754 3154 606 c 0,44,45
 3167 535 3167 535 3199 465.5 c 128,-1,46
 3231 396 3231 396 3277 342.5 c 128,-1,47
 3323 289 3323 289 3379.5 269.5 c 128,-1,48
 3436 250 3436 250 3498 279 c 0,49,50
 3549 303 3549 303 3575 341 c 128,-1,51
 3601 379 3601 379 3605 420 c 128,-1,52
 3609 461 3609 461 3606.5 506 c 128,-1,53
 3604 551 3604 551 3605 591 c 128,-1,54
 3606 631 3606 631 3619.5 664.5 c 128,-1,55
 3633 698 3633 698 3674.5 719.5 c 128,-1,56
 3716 741 3716 741 3789 745 c 0,57,58
 3828 747 3828 747 3854 709.5 c 128,-1,59
 3880 672 3880 672 3887 611.5 c 128,-1,60
 3894 551 3894 551 3888 483.5 c 128,-1,61
 3882 416 3882 416 3855.5 352 c 128,-1,62
 3829 288 3829 288 3789 250 c 0,63,64
 3666 130 3666 130 3625 98 c 0,65,66
 3539 31 3539 31 3428 11 c 0,67,68
 3387 4 3387 4 3334 0 c 0,69,70
 3232 -7 3232 -7 3143.5 22 c 128,-1,71
 3055 51 3055 51 2985.5 111 c 128,-1,72
 2916 171 2916 171 2862 249 c 128,-1,73
 2808 327 2808 327 2765 426 c 0,74,75
 2708 555 2708 555 2685.5 690 c 128,-1,76
 2663 825 2663 825 2667.5 924.5 c 128,-1,77
 2672 1024 2672 1024 2678.5 1180 c 128,-1,78
 2685 1336 2685 1336 2679 1454 c 0,79,80
 2673 1579 2673 1579 2679.5 1727 c 128,-1,81
 2686 1875 2686 1875 2693.5 1975.5 c 128,-1,82
 2701 2076 2701 2076 2691 2213 c 128,-1,83
 2681 2350 2681 2350 2646 2486 c 0,84,85
 2587 2695 2587 2695 2568 2747 c 0,86,87
 2493 2956 2493 2956 2379 3024 c 0,88,89
 2316 3061 2316 3061 2237 3064 c 0,90,91
 2111 3069 2111 3069 1996.5 3046 c 128,-1,92
 1882 3023 1882 3023 1788 2981 c 0,93,94
 1696 2939 1696 2939 1600 2868 c 0,95,96
 1591 2862 1591 2862 1582 2855 c 1,97,98
 1609 2826 1609 2826 1647 2785 c 0,99,100
 1759 2663 1759 2663 1795.5 2535.5 c 128,-1,101
 1832 2408 1832 2408 1843 2195 c 0,102,103
 1846 2141 1846 2141 1859.5 2018 c 128,-1,104
 1873 1895 1873 1895 1880 1784.5 c 128,-1,105
 1887 1674 1887 1674 1888 1519 c 128,-1,106
 1889 1364 1889 1364 1867.5 1170 c 128,-1,107
 1846 976 1846 976 1802 762 c 0,108,109
 1773 620 1773 620 1707 478 c 128,-1,110
 1641 336 1641 336 1554 224.5 c 128,-1,111
 1467 113 1467 113 1358.5 52 c 128,-1,112
 1250 -9 1250 -9 1147 12 c 0,113,114
 1091 23 1091 23 1043 50 c 128,-1,115
 995 77 995 77 958.5 110.5 c 128,-1,116
 922 144 922 144 890 197 c 128,-1,117
 858 250 858 250 836 298 c 128,-1,118
 814 346 814 346 794.5 417.5 c 128,-1,119
 775 489 775 489 763 543 c 128,-1,120
 751 597 751 597 738 679.5 c 128,-1,121
 725 762 725 762 718.5 815.5 c 128,-1,122
 712 869 712 869 701.5 955 c 128,-1,123
 691 1041 691 1041 685 1086 c 0,124,125
 648 1352 648 1352 677.5 1593.5 c 128,-1,126
 707 1835 707 1835 811 2114 c 0,127,128
 924 2416 924 2416 1070 2607 c 0,129,130
 1121 2673 1121 2673 1186 2740 c 1,131,132
 1080 2892 1080 2892 940 2970 c 0,133,134
 776 3062 776 3062 582 3015 c 0,135,136
 491 2991 491 2991 419 2939.5 c 128,-1,137
 347 2888 347 2888 301.5 2822.5 c 128,-1,138
 256 2757 256 2757 225.5 2672.5 c 128,-1,139
 195 2588 195 2588 181.5 2504.5 c 128,-1,140
 168 2421 168 2421 164 2327 c 0,0,1
1286 2576 m 1,141,142
 1270 2558 1270 2558 1254 2540 c 0,143,144
 1053 2315 1053 2315 968.5 2081 c 128,-1,145
 884 1847 884 1847 893 1556 c 0,146,147
 908 1076 908 1076 934 849 c 0,148,149
 1007 218 1007 218 1237 213 c 0,150,151
 1273 212 1273 212 1300.5 219 c 128,-1,152
 1328 226 1328 226 1349 244 c 128,-1,153
 1370 262 1370 262 1384.5 283.5 c 128,-1,154
 1399 305 1399 305 1410.5 344.5 c 128,-1,155
 1422 384 1422 384 1429.5 421.5 c 128,-1,156
 1437 459 1437 459 1445 520.5 c 128,-1,157
 1453 582 1453 582 1458.5 637 c 128,-1,158
 1464 692 1464 692 1474.5 777 c 128,-1,159
 1485 862 1485 862 1495 936 c 0,160,161
 1511 1036 1511 1036 1508 1313.5 c 128,-1,162
 1505 1591 1505 1591 1483 1734 c 0,163,164
 1467 1841 1467 1841 1453.5 1969.5 c 128,-1,165
 1440 2098 1440 2098 1432 2158 c 128,-1,166
 1424 2218 1424 2218 1402 2305 c 0,167,168
 1378 2392 1378 2392 1336 2480 c 0,169,170
 1314 2524 1314 2524 1286 2576 c 1,141,142
EndSplineSet
EndChar

StartChar: u10578
Encoding: 66936 66936 7
Width: 2674
VWidth: 0
Flags: W
VStem: 2494 123<1208.18 1358.44>
LayerCount: 2
Fore
SplineSet
385 2494 m 0,0,1
 376 2472 376 2472 376 2350.5 c 128,-1,2
 376 2229 376 2229 380 2118 c 2,3,-1
 385 2007 l 1,4,5
 153 1803 153 1803 88 1943 c 0,6,7
 37 2053 37 2053 95 2325 c 0,8,9
 143 2550 143 2550 223 2707 c 0,10,11
 239 2739 239 2739 254 2761 c 0,12,13
 344 2894 344 2894 460.5 2979 c 128,-1,14
 577 3064 577 3064 696 3064 c 0,15,16
 779 3064 779 3064 840.5 3047.5 c 128,-1,17
 902 3031 902 3031 995 2990 c 0,18,19
 1081 2954 1081 2954 1205 2877 c 1,20,21
 1333 3010 1333 3010 1432 3084 c 0,22,23
 1538 3164 1538 3164 1683 3203 c 0,24,25
 1774 3229 1774 3229 1845 3244 c 128,-1,26
 1916 3259 1916 3259 2004 3265.5 c 128,-1,27
 2092 3272 2092 3272 2159 3259.5 c 128,-1,28
 2226 3247 2226 3247 2291 3207.5 c 128,-1,29
 2356 3168 2356 3168 2400 3101 c 0,30,31
 2439 3042 2439 3042 2443.5 2977 c 128,-1,32
 2448 2912 2448 2912 2426.5 2854 c 128,-1,33
 2405 2796 2405 2796 2359.5 2733.5 c 128,-1,34
 2314 2671 2314 2671 2265.5 2621.5 c 128,-1,35
 2217 2572 2217 2572 2154 2519 c 0,36,37
 2082 2457 2082 2457 2000 2415.5 c 128,-1,38
 1918 2374 1918 2374 1823.5 2351.5 c 128,-1,39
 1729 2329 1729 2329 1649 2319 c 128,-1,40
 1569 2309 1569 2309 1454 2302 c 0,41,42
 1390 2298 1390 2298 1332 2315 c 128,-1,43
 1274 2332 1274 2332 1236 2356 c 0,44,45
 1204 2376 1204 2376 1158 2406 c 1,46,47
 1138 2372 1138 2372 1120 2340 c 0,48,49
 1102 2308 1102 2308 1088 2282.5 c 128,-1,50
 1074 2257 1074 2257 1058.5 2223 c 128,-1,51
 1043 2189 1043 2189 1034 2171 c 128,-1,52
 1025 2153 1025 2153 1010 2113.5 c 128,-1,53
 995 2074 995 2074 988.5 2059 c 128,-1,54
 982 2044 982 2044 965.5 1995.5 c 128,-1,55
 949 1947 949 1947 943.5 1931 c 128,-1,56
 938 1915 938 1915 917 1853 c 128,-1,57
 896 1791 896 1791 889 1769 c 0,58,59
 830 1597 830 1597 806.5 1468.5 c 128,-1,60
 783 1340 783 1340 794.5 1200 c 128,-1,61
 806 1060 806 1060 860 905 c 0,62,63
 943 667 943 667 1081 559 c 0,64,65
 1180 481 1180 481 1368 431 c 0,66,67
 1416 418 1416 418 1561 385 c 0,68,69
 1625 369 1625 369 1684 367 c 128,-1,70
 1743 365 1743 365 1796 378 c 128,-1,71
 1849 391 1849 391 1896.5 413.5 c 128,-1,72
 1944 436 1944 436 1991.5 472.5 c 128,-1,73
 2039 509 2039 509 2081 549 c 128,-1,74
 2123 589 2123 589 2171 643 c 0,75,76
 2240 720 2240 720 2286.5 810.5 c 128,-1,77
 2333 901 2333 901 2354 974 c 128,-1,78
 2375 1047 2375 1047 2411.5 1149.5 c 128,-1,79
 2448 1252 2448 1252 2494 1335 c 0,80,81
 2503 1353 2503 1353 2523 1360.5 c 128,-1,82
 2543 1368 2543 1368 2563.5 1366 c 128,-1,83
 2584 1364 2584 1364 2600 1352.5 c 128,-1,84
 2616 1341 2616 1341 2617 1323 c 0,85,86
 2623 1160 2623 1160 2604.5 1049.5 c 128,-1,87
 2586 939 2586 939 2519 811 c 1,88,89
 2395 590 2395 590 2282.5 459 c 128,-1,90
 2170 328 2170 328 1982 205 c 0,91,92
 1818 100 1818 100 1612 44 c 128,-1,93
 1406 -12 1406 -12 1217 0 c 0,94,95
 1137 5 1137 5 1088 9.5 c 128,-1,96
 1039 14 1039 14 971 23.5 c 128,-1,97
 903 33 903 33 855 48.5 c 128,-1,98
 807 64 807 64 752.5 88 c 128,-1,99
 698 112 698 112 651 148.5 c 128,-1,100
 604 185 604 185 561 233 c 0,101,102
 395 418 395 418 338.5 659 c 128,-1,103
 282 900 282 900 340 1143 c 0,104,105
 379 1319 379 1319 408 1438 c 128,-1,106
 437 1557 437 1557 478 1695.5 c 128,-1,107
 519 1834 519 1834 562 1937.5 c 128,-1,108
 605 2041 605 2041 665.5 2160.5 c 128,-1,109
 726 2280 726 2280 800 2386 c 0,110,111
 851 2460 851 2460 912 2539 c 1,112,113
 888 2554 888 2554 865 2570 c 0,114,115
 786 2624 786 2624 745 2646 c 0,116,117
 730 2654 730 2654 701.5 2678 c 128,-1,118
 673 2702 673 2702 653.5 2716.5 c 128,-1,119
 634 2731 634 2731 602 2735 c 128,-1,120
 570 2739 570 2739 540.5 2719.5 c 128,-1,121
 511 2700 511 2700 470 2644 c 128,-1,122
 429 2588 429 2588 385 2494 c 0,0,1
1425 2757 m 1,123,124
 1465 2741 1465 2741 1527 2711.5 c 128,-1,125
 1589 2682 1589 2682 1627 2666 c 128,-1,126
 1665 2650 1665 2650 1716 2636 c 128,-1,127
 1767 2622 1767 2622 1817 2624.5 c 128,-1,128
 1867 2627 1867 2627 1921 2646 c 0,129,130
 2298 2790 2298 2790 2273 3039 c 0,131,132
 2270 3074 2270 3074 2251.5 3094.5 c 128,-1,133
 2233 3115 2233 3115 2197 3118 c 128,-1,134
 2161 3121 2161 3121 2129.5 3119.5 c 128,-1,135
 2098 3118 2098 3118 2044.5 3103 c 128,-1,136
 1991 3088 1991 3088 1964.5 3079.5 c 128,-1,137
 1938 3071 1938 3071 1887 3053 c 0,138,139
 1885 3052 1885 3052 1884 3052 c 0,140,141
 1809 3025 1809 3025 1751.5 2997 c 128,-1,142
 1694 2969 1694 2969 1636 2928 c 128,-1,143
 1578 2887 1578 2887 1540 2855.5 c 128,-1,144
 1502 2824 1502 2824 1425 2757 c 1,123,124
EndSplineSet
EndChar

StartChar: u10579
Encoding: 66937 66937 8
Width: 4198
VWidth: 0
Flags: W
VStem: 2916 316<935.338 1641.36>
LayerCount: 2
Fore
SplineSet
176 2552 m 0,0,1
 151 2531 151 2531 114 2550 c 128,-1,2
 77 2569 77 2569 74 2601 c 0,3,4
 68 2654 68 2654 67 2684.5 c 128,-1,5
 66 2715 66 2715 69.5 2757 c 128,-1,6
 73 2799 73 2799 89.5 2833 c 128,-1,7
 106 2867 106 2867 135 2896 c 0,8,9
 158 2920 158 2920 201 2965 c 128,-1,10
 244 3010 244 3010 266 3033 c 128,-1,11
 288 3056 288 3056 327 3092 c 128,-1,12
 366 3128 366 3128 392 3147 c 128,-1,13
 418 3166 418 3166 457 3189 c 128,-1,14
 496 3212 496 3212 531 3222 c 128,-1,15
 566 3232 566 3232 609.5 3238 c 128,-1,16
 653 3244 653 3244 700 3240 c 0,17,18
 892 3225 892 3225 1025 3112 c 128,-1,19
 1158 2999 1158 2999 1200 2810 c 0,20,21
 1238 2640 1238 2640 1255 2469 c 128,-1,22
 1272 2298 1272 2298 1271 2150 c 128,-1,23
 1270 2002 1270 2002 1261.5 1854 c 128,-1,24
 1253 1706 1253 1706 1243.5 1556.5 c 128,-1,25
 1234 1407 1234 1407 1230 1259 c 128,-1,26
 1226 1111 1226 1111 1238.5 938 c 128,-1,27
 1251 765 1251 765 1282 594 c 0,28,29
 1299 500 1299 500 1356 416.5 c 128,-1,30
 1413 333 1413 333 1489 296.5 c 128,-1,31
 1565 260 1565 260 1647 299 c 1,32,33
 1766 368 1766 368 1861.5 446 c 128,-1,34
 1957 524 1957 524 2029 603.5 c 128,-1,35
 2101 683 2101 683 2166.5 787 c 128,-1,36
 2232 891 2232 891 2282 991.5 c 128,-1,37
 2332 1092 2332 1092 2392 1233 c 0,38,39
 2480 1439 2480 1439 2532 1621 c 1,40,41
 2521 1619 2521 1619 2511 1618 c 0,42,43
 2401 1609 2401 1609 2303 1621 c 128,-1,44
 2205 1633 2205 1633 2107.5 1677.5 c 128,-1,45
 2010 1722 2010 1722 1946 1798 c 128,-1,46
 1882 1874 1882 1874 1839 1937 c 128,-1,47
 1796 2000 1796 2000 1765 2067.5 c 128,-1,48
 1734 2135 1734 2135 1722.5 2203.5 c 128,-1,49
 1711 2272 1711 2272 1714 2351 c 128,-1,50
 1717 2430 1717 2430 1737 2523 c 0,51,52
 1792 2786 1792 2786 1929.5 2955 c 128,-1,53
 2067 3124 2067 3124 2310 3240 c 0,54,55
 2395 3280 2395 3280 2471.5 3243.5 c 128,-1,56
 2548 3207 2548 3207 2604.5 3130 c 128,-1,57
 2661 3053 2661 3053 2687 2961 c 0,58,59
 2731 2801 2731 2801 2751 2660.5 c 128,-1,60
 2771 2520 2771 2520 2768.5 2372 c 128,-1,61
 2766 2224 2766 2224 2753 2101 c 0,62,63
 2741 1988 2741 1988 2717 1818 c 1,64,65
 2720 1820 2720 1820 2722 1822 c 0,66,67
 2754 1844 2754 1844 2775.5 1863.5 c 128,-1,68
 2797 1883 2797 1883 2831 1913.5 c 128,-1,69
 2865 1944 2865 1944 2888 1962 c 0,70,71
 2920 1987 2920 1987 2942.5 2032 c 128,-1,72
 2965 2077 2965 2077 2977 2120 c 128,-1,73
 2989 2163 2989 2163 3004 2202.5 c 128,-1,74
 3019 2242 3019 2242 3046.5 2263.5 c 128,-1,75
 3074 2285 3074 2285 3117 2281 c 0,76,77
 3159 2276 3159 2276 3184.5 2252 c 128,-1,78
 3210 2228 3210 2228 3218.5 2191.5 c 128,-1,79
 3227 2155 3227 2155 3230.5 2110 c 128,-1,80
 3234 2065 3234 2065 3231 2019 c 128,-1,81
 3228 1973 3228 1973 3232 1929 c 0,82,83
 3240 1813 3240 1813 3230.5 1686.5 c 128,-1,84
 3221 1560 3221 1560 3206.5 1471 c 128,-1,85
 3192 1382 3192 1382 3187 1256 c 128,-1,86
 3182 1130 3182 1130 3199 1016 c 0,87,88
 3204 979 3204 979 3210.5 913 c 128,-1,89
 3217 847 3217 847 3220.5 822.5 c 128,-1,90
 3224 798 3224 798 3234.5 751.5 c 128,-1,91
 3245 705 3245 705 3259 676.5 c 128,-1,92
 3273 648 3273 648 3298 606.5 c 128,-1,93
 3323 565 3323 565 3359 520 c 0,94,95
 3399 469 3399 469 3464.5 420 c 128,-1,96
 3530 371 3530 371 3603 345 c 128,-1,97
 3676 319 3676 319 3727 352 c 1,98,99
 3785 384 3785 384 3823 440.5 c 128,-1,100
 3861 497 3861 497 3878 550.5 c 128,-1,101
 3895 604 3895 604 3929.5 668 c 128,-1,102
 3964 732 3964 732 4014 774 c 1,103,104
 4038 787 4038 787 4071 779.5 c 128,-1,105
 4104 772 4104 772 4127.5 745.5 c 128,-1,106
 4151 719 4151 719 4137 696 c 0,107,108
 4114 662 4114 662 4065.5 589.5 c 128,-1,109
 4017 517 4017 517 3994.5 485.5 c 128,-1,110
 3972 454 3972 454 3929.5 397 c 128,-1,111
 3887 340 3887 340 3854.5 308 c 128,-1,112
 3822 276 3822 276 3776 234.5 c 128,-1,113
 3730 193 3730 193 3679 161.5 c 128,-1,114
 3628 130 3628 130 3568 102 c 0,115,116
 3443 39 3443 39 3311.5 68.5 c 128,-1,117
 3180 98 3180 98 3105 213 c 0,118,119
 3077 251 3077 251 3054 289.5 c 128,-1,120
 3031 328 3031 328 3014 361.5 c 128,-1,121
 2997 395 2997 395 2983.5 438 c 128,-1,122
 2970 481 2970 481 2961 511 c 128,-1,123
 2952 541 2952 541 2944.5 589.5 c 128,-1,124
 2937 638 2937 638 2933.5 665.5 c 128,-1,125
 2930 693 2930 693 2926.5 748.5 c 128,-1,126
 2923 804 2923 804 2922 831 c 128,-1,127
 2921 858 2921 858 2919 922.5 c 128,-1,128
 2917 987 2917 987 2916 1016 c 0,129,130
 2912 1123 2912 1123 2928.5 1241.5 c 128,-1,131
 2945 1360 2945 1360 2967 1447 c 128,-1,132
 2989 1534 2989 1534 3004.5 1641 c 128,-1,133
 3020 1748 3020 1748 3015 1835 c 0,134,135
 3011 1914 3011 1914 2954 1892 c 0,136,137
 2918 1878 2918 1878 2813 1793 c 0,138,139
 2748 1740 2748 1740 2699 1705 c 1,140,141
 2664 1502 2664 1502 2606 1334 c 0,142,143
 2538 1134 2538 1134 2413 922 c 0,144,145
 2323 765 2323 765 2264.5 673 c 128,-1,146
 2206 581 2206 581 2128 480.5 c 128,-1,147
 2050 380 2050 380 1962.5 296.5 c 128,-1,148
 1875 213 1875 213 1753 119 c 0,149,150
 1644 37 1644 37 1518 33.5 c 128,-1,151
 1392 30 1392 30 1274 102 c 0,152,153
 1094 206 1094 206 992 336.5 c 128,-1,154
 890 467 890 467 848 659 c 0,155,156
 812 839 812 839 804.5 1019 c 128,-1,157
 797 1199 797 1199 809 1354 c 128,-1,158
 821 1509 821 1509 835 1661.5 c 128,-1,159
 849 1814 849 1814 849 1997 c 128,-1,160
 849 2180 849 2180 823 2359 c 0,161,162
 790 2575 790 2575 777 2634 c 0,163,164
 728 2847 728 2847 614 2937 c 0,165,166
 562 2978 562 2978 496 2998 c 0,167,168
 438 3017 438 3017 400 2991.5 c 128,-1,169
 362 2966 362 2966 340 2910 c 128,-1,170
 318 2854 318 2854 299.5 2791 c 128,-1,171
 281 2728 281 2728 250 2659 c 128,-1,172
 219 2590 219 2590 176 2552 c 0,0,1
2574 1783 m 1,173,174
 2584 1830 2584 1830 2592 1874 c 0,175,176
 2640 2158 2640 2158 2617 2552 c 0,177,178
 2613 2611 2613 2611 2604.5 2673 c 128,-1,179
 2596 2735 2596 2735 2581.5 2802 c 128,-1,180
 2567 2869 2567 2869 2547 2926.5 c 128,-1,181
 2527 2984 2527 2984 2500 3034.5 c 128,-1,182
 2473 3085 2473 3085 2440 3112.5 c 128,-1,183
 2407 3140 2407 3140 2366 3148 c 128,-1,184
 2325 3156 2325 3156 2277 3129 c 0,185,186
 2207 3090 2207 3090 2156.5 3036 c 128,-1,187
 2106 2982 2106 2982 2077.5 2916.5 c 128,-1,188
 2049 2851 2049 2851 2034 2780.5 c 128,-1,189
 2019 2710 2019 2710 2020 2628 c 128,-1,190
 2021 2546 2021 2546 2029.5 2468.5 c 128,-1,191
 2038 2391 2038 2391 2056 2302 c 0,192,193
 2091 2123 2091 2123 2220.5 1992.5 c 128,-1,194
 2350 1862 2350 1862 2535 1794 c 0,195,196
 2555 1786 2555 1786 2574 1783 c 1,173,174
EndSplineSet
EndChar

StartChar: u1057A
Encoding: 66938 66938 9
Width: 2674
VWidth: 0
Flags: W
HStem: 16 238<1790.78 2201.5> 651 287<581.464 1014.14> 1602 147<273.504 743.346> 3113 147<1013.43 1318.77>
VStem: 729 148<2511.77 2959.74> 1356 405<2414.76 3021.67> 2494 123<520.91 1142.96>
LayerCount: 2
Fore
SplineSet
74 1946 m 0,0,1
 79 1988 79 1988 83 1990 c 0,2,3
 84 1991 84 1991 86 1991 c 0,4,5
 94 1991 94 1991 110.5 1966 c 128,-1,6
 127 1941 127 1941 153 1905.5 c 128,-1,7
 179 1870 179 1870 215 1834.5 c 128,-1,8
 251 1799 251 1799 309.5 1774 c 128,-1,9
 368 1749 368 1749 438 1749 c 0,10,11
 488 1749 488 1749 537 1761 c 0,12,13
 682 1793 682 1793 779 1836 c 128,-1,14
 876 1879 876 1879 987 1966 c 0,15,16
 1075 2036 1075 2036 1122 2108 c 0,17,18
 1125 2113 1125 2113 1129 2119 c 0,19,20
 1128 2120 1128 2120 1126 2122 c 0,21,22
 1114 2134 1114 2134 1068.5 2178 c 128,-1,23
 1023 2222 1023 2222 1012 2233 c 128,-1,24
 1001 2244 1001 2244 965.5 2281 c 128,-1,25
 930 2318 930 2318 917.5 2334 c 128,-1,26
 905 2350 905 2350 878.5 2384 c 128,-1,27
 852 2418 852 2418 837.5 2444 c 128,-1,28
 823 2470 823 2470 804.5 2505.5 c 128,-1,29
 786 2541 786 2541 770 2580 c 0,30,31
 729 2673 729 2673 729 2736 c 0,32,33
 729 2818 729 2818 774 2908 c 0,34,35
 839 3036 839 3036 912.5 3110.5 c 128,-1,36
 986 3185 986 3185 1106 3232 c 0,37,38
 1186 3260 1186 3260 1266 3260 c 0,39,40
 1325 3260 1325 3260 1383.5 3238 c 128,-1,41
 1442 3216 1442 3216 1516 3174 c 0,42,43
 1607 3117 1607 3117 1656 3048 c 128,-1,44
 1705 2979 1705 2979 1729 2867 c 0,45,46
 1761 2729 1761 2729 1761 2617 c 0,47,48
 1761 2301 1761 2301 1555 2049 c 1,49,50
 1647 1994 1647 1994 1780 1928 c 0,51,52
 1927 1855 1927 1855 2040.5 1786.5 c 128,-1,53
 2154 1718 2154 1718 2265 1622 c 0,54,55
 2395 1507 2395 1507 2458 1412.5 c 128,-1,56
 2521 1318 2521 1318 2576 1151 c 0,57,58
 2617 1029 2617 1029 2617 913 c 0,59,60
 2617 878 2617 878 2608 803 c 128,-1,61
 2599 728 2599 728 2597 688 c 0,62,63
 2591 582 2591 582 2562 497.5 c 128,-1,64
 2533 413 2533 413 2476 341 c 128,-1,65
 2419 269 2419 269 2347 210 c 128,-1,66
 2275 151 2275 151 2167 82 c 0,67,68
 2112 45 2112 45 2067 30.5 c 128,-1,69
 2022 16 2022 16 1966 16 c 0,70,71
 1930 16 1930 16 1888.5 21.5 c 128,-1,72
 1847 27 1847 27 1793.5 36 c 128,-1,73
 1740 45 1740 45 1708 49 c 0,74,75
 1613 63 1613 63 1547.5 92.5 c 128,-1,76
 1482 122 1482 122 1376 188 c 0,77,78
 1320 220 1320 220 1272.5 268 c 128,-1,79
 1225 316 1225 316 1191 363 c 128,-1,80
 1157 410 1157 410 1121 457 c 128,-1,81
 1085 504 1085 504 1034.5 546 c 128,-1,82
 984 588 984 588 922 614 c 0,83,84
 838 651 838 651 762 651 c 0,85,86
 605 651 605 651 496 586 c 0,87,88
 437 555 437 555 404.5 530 c 128,-1,89
 372 505 372 505 358.5 489 c 128,-1,90
 345 473 345 473 314.5 427.5 c 128,-1,91
 284 382 284 382 254 344 c 0,92,93
 243 328 243 328 211.5 266 c 128,-1,94
 180 204 180 204 153 153 c 128,-1,95
 126 102 126 102 119 102 c 0,96,97
 111 107 111 107 111 111 c 0,98,99
 111 245 111 245 139.5 342.5 c 128,-1,100
 168 440 168 440 242 541 c 0,101,102
 362 695 362 695 467 778 c 128,-1,103
 572 861 572 861 737 913 c 0,104,105
 820 938 820 938 905 938 c 0,106,107
 1054 938 1054 938 1208 852 c 0,108,109
 1274 818 1274 818 1341 766 c 128,-1,110
 1408 714 1408 714 1462.5 659.5 c 128,-1,111
 1517 605 1517 605 1573 546 c 128,-1,112
 1629 487 1629 487 1682 436 c 128,-1,113
 1735 385 1735 385 1789 343.5 c 128,-1,114
 1843 302 1843 302 1904 278 c 128,-1,115
 1965 254 1965 254 2028 254 c 0,116,117
 2086 254 2086 254 2167 287 c 0,118,119
 2335 355 2335 355 2414.5 483 c 128,-1,120
 2494 611 2494 611 2494 782 c 0,121,122
 2494 1038 2494 1038 2367 1311 c 0,123,124
 2340 1376 2340 1376 2307.5 1424 c 128,-1,125
 2275 1472 2275 1472 2229.5 1510 c 128,-1,126
 2184 1548 2184 1548 2149 1571 c 128,-1,127
 2114 1594 2114 1594 2046 1634 c 128,-1,128
 1978 1674 1978 1674 1937 1700 c 0,129,130
 1828 1769 1828 1769 1652 1847 c 0,131,132
 1517 1907 1517 1907 1451 1938 c 1,133,134
 1446 1934 1446 1934 1442 1929 c 0,135,136
 1353 1845 1353 1845 1271 1800 c 128,-1,137
 1189 1755 1189 1755 1057 1708 c 0,138,139
 1049 1705 1049 1705 1001.5 1687.5 c 128,-1,140
 954 1670 954 1670 944.5 1667 c 128,-1,141
 935 1664 935 1664 895.5 1650 c 128,-1,142
 856 1636 856 1636 842 1633 c 128,-1,143
 828 1630 828 1630 795.5 1621 c 128,-1,144
 763 1612 763 1612 743 1610 c 128,-1,145
 723 1608 723 1608 696 1605 c 128,-1,146
 669 1602 669 1602 643 1602 c 0,147,148
 620 1602 620 1602 574 1609 c 128,-1,149
 528 1616 528 1616 508 1618 c 0,150,151
 429 1626 429 1626 355 1647.5 c 128,-1,152
 281 1669 281 1669 214 1704 c 128,-1,153
 147 1739 147 1739 106.5 1794.5 c 128,-1,154
 66 1850 66 1850 66 1917 c 0,155,156
 66 1921 66 1921 70 1931.5 c 128,-1,157
 74 1942 74 1942 74 1946 c 0,0,1
1194 2241 m 1,158,159
 1209 2273 1209 2273 1225 2310 c 0,160,161
 1276 2432 1276 2432 1298 2493 c 128,-1,162
 1320 2554 1320 2554 1338 2645.5 c 128,-1,163
 1356 2737 1356 2737 1356 2839 c 0,164,165
 1356 3090 1356 3090 1225 3109 c 0,166,167
 1209 3113 1209 3113 1180 3113 c 0,168,169
 1086 3113 1086 3113 1009.5 3055.5 c 128,-1,170
 933 2998 933 2998 905 2908 c 0,171,172
 877 2816 877 2816 877 2703 c 0,173,174
 877 2653 877 2653 888 2610.5 c 128,-1,175
 899 2568 899 2568 924 2528 c 128,-1,176
 949 2488 949 2488 968.5 2464 c 128,-1,177
 988 2440 988 2440 1024 2400 c 0,178,179
 1102 2312 1102 2312 1170 2259 c 0,180,181
 1182 2249 1182 2249 1194 2241 c 1,158,159
EndSplineSet
EndChar

StartChar: u1057B
Encoding: 66939 66939 10
Width: 2699
VWidth: 0
Flags: W
HStem: 16 238<1790.78 2201.5> 651 287<581.464 1014.14> 1602 147<273.504 743.346> 3113 147<1013.43 1318.77>
VStem: 729 148<2511.77 2959.74> 1356 405<2414.76 3021.67> 1913 102<2178.22 2220.96> 2494 123<520.91 1142.96>
LayerCount: 2
Fore
SplineSet
74 1946 m 0,0,1
 79 1988 79 1988 83 1990 c 0,2,3
 84 1991 84 1991 86 1991 c 0,4,5
 94 1991 94 1991 110.5 1966 c 128,-1,6
 127 1941 127 1941 153 1905.5 c 128,-1,7
 179 1870 179 1870 215 1834.5 c 128,-1,8
 251 1799 251 1799 309.5 1774 c 128,-1,9
 368 1749 368 1749 438 1749 c 0,10,11
 488 1749 488 1749 537 1761 c 0,12,13
 682 1793 682 1793 779 1836 c 128,-1,14
 876 1879 876 1879 987 1966 c 0,15,16
 1075 2036 1075 2036 1122 2108 c 0,17,18
 1125 2113 1125 2113 1129 2119 c 0,19,20
 1128 2120 1128 2120 1126 2122 c 0,21,22
 1114 2134 1114 2134 1068.5 2178 c 128,-1,23
 1023 2222 1023 2222 1012 2233 c 128,-1,24
 1001 2244 1001 2244 965.5 2281 c 128,-1,25
 930 2318 930 2318 917.5 2334 c 128,-1,26
 905 2350 905 2350 878.5 2384 c 128,-1,27
 852 2418 852 2418 837.5 2444 c 128,-1,28
 823 2470 823 2470 804.5 2505.5 c 128,-1,29
 786 2541 786 2541 770 2580 c 0,30,31
 729 2673 729 2673 729 2736 c 0,32,33
 729 2818 729 2818 774 2908 c 0,34,35
 839 3036 839 3036 912.5 3110.5 c 128,-1,36
 986 3185 986 3185 1106 3232 c 0,37,38
 1186 3260 1186 3260 1266 3260 c 0,39,40
 1325 3260 1325 3260 1383.5 3238 c 128,-1,41
 1442 3216 1442 3216 1516 3174 c 0,42,43
 1607 3117 1607 3117 1656 3048 c 128,-1,44
 1705 2979 1705 2979 1729 2867 c 0,45,46
 1761 2729 1761 2729 1761 2617 c 0,47,48
 1761 2301 1761 2301 1555 2049 c 1,49,50
 1647 1994 1647 1994 1780 1928 c 0,51,52
 1927 1855 1927 1855 2040.5 1786.5 c 128,-1,53
 2154 1718 2154 1718 2265 1622 c 0,54,55
 2395 1507 2395 1507 2458 1412.5 c 128,-1,56
 2521 1318 2521 1318 2576 1151 c 0,57,58
 2617 1029 2617 1029 2617 913 c 0,59,60
 2617 878 2617 878 2608 803 c 128,-1,61
 2599 728 2599 728 2597 688 c 0,62,63
 2591 582 2591 582 2562 497.5 c 128,-1,64
 2533 413 2533 413 2476 341 c 128,-1,65
 2419 269 2419 269 2347 210 c 128,-1,66
 2275 151 2275 151 2167 82 c 0,67,68
 2112 45 2112 45 2067 30.5 c 128,-1,69
 2022 16 2022 16 1966 16 c 0,70,71
 1930 16 1930 16 1888.5 21.5 c 128,-1,72
 1847 27 1847 27 1793.5 36 c 128,-1,73
 1740 45 1740 45 1708 49 c 0,74,75
 1613 63 1613 63 1547.5 92.5 c 128,-1,76
 1482 122 1482 122 1376 188 c 0,77,78
 1320 220 1320 220 1272.5 268 c 128,-1,79
 1225 316 1225 316 1191 363 c 128,-1,80
 1157 410 1157 410 1121 457 c 128,-1,81
 1085 504 1085 504 1034.5 546 c 128,-1,82
 984 588 984 588 922 614 c 0,83,84
 838 651 838 651 762 651 c 0,85,86
 605 651 605 651 496 586 c 0,87,88
 437 555 437 555 404.5 530 c 128,-1,89
 372 505 372 505 358.5 489 c 128,-1,90
 345 473 345 473 314.5 427.5 c 128,-1,91
 284 382 284 382 254 344 c 0,92,93
 243 328 243 328 211.5 266 c 128,-1,94
 180 204 180 204 153 153 c 128,-1,95
 126 102 126 102 119 102 c 0,96,97
 111 107 111 107 111 111 c 0,98,99
 111 245 111 245 139.5 342.5 c 128,-1,100
 168 440 168 440 242 541 c 0,101,102
 362 695 362 695 467 778 c 128,-1,103
 572 861 572 861 737 913 c 0,104,105
 820 938 820 938 905 938 c 0,106,107
 1054 938 1054 938 1208 852 c 0,108,109
 1274 818 1274 818 1341 766 c 128,-1,110
 1408 714 1408 714 1462.5 659.5 c 128,-1,111
 1517 605 1517 605 1573 546 c 128,-1,112
 1629 487 1629 487 1682 436 c 128,-1,113
 1735 385 1735 385 1789 343.5 c 128,-1,114
 1843 302 1843 302 1904 278 c 128,-1,115
 1965 254 1965 254 2028 254 c 0,116,117
 2086 254 2086 254 2167 287 c 0,118,119
 2335 355 2335 355 2414.5 483 c 128,-1,120
 2494 611 2494 611 2494 782 c 0,121,122
 2494 1038 2494 1038 2367 1311 c 0,123,124
 2340 1376 2340 1376 2307.5 1424 c 128,-1,125
 2275 1472 2275 1472 2229.5 1510 c 128,-1,126
 2184 1548 2184 1548 2149 1571 c 128,-1,127
 2114 1594 2114 1594 2046 1634 c 128,-1,128
 1978 1674 1978 1674 1937 1700 c 0,129,130
 1828 1769 1828 1769 1652 1847 c 0,131,132
 1517 1907 1517 1907 1451 1938 c 1,133,134
 1446 1934 1446 1934 1442 1929 c 0,135,136
 1353 1845 1353 1845 1271 1800 c 128,-1,137
 1189 1755 1189 1755 1057 1708 c 0,138,139
 1049 1705 1049 1705 1001.5 1687.5 c 128,-1,140
 954 1670 954 1670 944.5 1667 c 128,-1,141
 935 1664 935 1664 895.5 1650 c 128,-1,142
 856 1636 856 1636 842 1633 c 128,-1,143
 828 1630 828 1630 795.5 1621 c 128,-1,144
 763 1612 763 1612 743 1610 c 128,-1,145
 723 1608 723 1608 696 1605 c 128,-1,146
 669 1602 669 1602 643 1602 c 0,147,148
 620 1602 620 1602 574 1609 c 128,-1,149
 528 1616 528 1616 508 1618 c 0,150,151
 429 1626 429 1626 355 1647.5 c 128,-1,152
 281 1669 281 1669 214 1704 c 128,-1,153
 147 1739 147 1739 106.5 1794.5 c 128,-1,154
 66 1850 66 1850 66 1917 c 0,155,156
 66 1921 66 1921 70 1931.5 c 128,-1,157
 74 1942 74 1942 74 1946 c 0,0,1
1913 2220 m 0,158,159
 1924 2276 1924 2276 1938 2323 c 128,-1,160
 1952 2370 1952 2370 1974.5 2418.5 c 128,-1,161
 1997 2467 1997 2467 2012 2496 c 128,-1,162
 2027 2525 2027 2525 2062 2586.5 c 128,-1,163
 2097 2648 2097 2648 2114 2679 c 0,164,165
 2124 2698 2124 2698 2151 2749 c 128,-1,166
 2178 2800 2178 2800 2188 2817.5 c 128,-1,167
 2198 2835 2198 2835 2221 2873 c 128,-1,168
 2244 2911 2244 2911 2261 2932 c 128,-1,169
 2278 2953 2278 2953 2305 2982.5 c 128,-1,170
 2332 3012 2332 3012 2363 3039 c 0,171,172
 2471 3147 2471 3147 2609 3129 c 0,173,174
 2625 3127 2625 3127 2633.5 3118.5 c 128,-1,175
 2642 3110 2642 3110 2643.5 3095 c 128,-1,176
 2645 3080 2645 3080 2643.5 3067 c 128,-1,177
 2642 3054 2642 3054 2638.5 3032.5 c 128,-1,178
 2635 3011 2635 3011 2634 2998 c 0,179,180
 2632 2982 2632 2982 2624.5 2970.5 c 128,-1,181
 2617 2959 2617 2959 2604.5 2945.5 c 128,-1,182
 2592 2932 2592 2932 2585 2920 c 0,183,184
 2560 2882 2560 2882 2505.5 2787 c 128,-1,185
 2451 2692 2451 2692 2404 2634 c 0,186,187
 2371 2592 2371 2592 2310.5 2510.5 c 128,-1,188
 2250 2429 2250 2429 2219 2390.5 c 128,-1,189
 2188 2352 2188 2352 2132.5 2292.5 c 128,-1,190
 2077 2233 2077 2233 2015 2179 c 0,191,192
 1990 2159 1990 2159 1948.5 2174.5 c 128,-1,193
 1907 2190 1907 2190 1913 2220 c 0,158,159
1194 2241 m 1,194,195
 1209 2273 1209 2273 1225 2310 c 0,196,197
 1276 2432 1276 2432 1298 2493 c 128,-1,198
 1320 2554 1320 2554 1338 2645.5 c 128,-1,199
 1356 2737 1356 2737 1356 2839 c 0,200,201
 1356 3090 1356 3090 1225 3109 c 0,202,203
 1209 3113 1209 3113 1180 3113 c 0,204,205
 1086 3113 1086 3113 1009.5 3055.5 c 128,-1,206
 933 2998 933 2998 905 2908 c 0,207,208
 877 2816 877 2816 877 2703 c 0,209,210
 877 2653 877 2653 888 2610.5 c 128,-1,211
 899 2568 899 2568 924 2528 c 128,-1,212
 949 2488 949 2488 968.5 2464 c 128,-1,213
 988 2440 988 2440 1024 2400 c 0,214,215
 1102 2312 1102 2312 1170 2259 c 0,216,217
 1182 2249 1182 2249 1194 2241 c 1,194,195
EndSplineSet
EndChar

StartChar: u1057C
Encoding: 66940 66940 11
Width: 1642
VWidth: 0
Flags: W
LayerCount: 2
Fore
SplineSet
70 139 m 0,0,1
 114 230 114 230 294.5 449.5 c 128,-1,2
 475 669 475 669 520 754 c 0,3,4
 564 831 564 831 592.5 882 c 128,-1,5
 621 933 621 933 651 990.5 c 128,-1,6
 681 1048 681 1048 693.5 1071 c 128,-1,7
 706 1094 706 1094 736.5 1158 c 128,-1,8
 767 1222 767 1222 775.5 1240.5 c 128,-1,9
 784 1259 784 1259 827 1353 c 0,10,11
 857 1418 857 1418 875 1458 c 1,12,13
 846 1504 846 1504 810 1556 c 0,14,15
 728 1676 728 1676 676 1755 c 128,-1,16
 624 1834 624 1834 562.5 1955 c 128,-1,17
 501 2076 501 2076 459 2200 c 0,18,19
 427 2298 427 2298 421 2386.5 c 128,-1,20
 415 2475 415 2475 429 2553.5 c 128,-1,21
 443 2632 443 2632 479 2740 c 0,22,23
 532 2894 532 2894 595 2987.5 c 128,-1,24
 658 3081 658 3081 778 3166 c 1,25,26
 858 3230 858 3230 944 3241 c 128,-1,27
 1030 3252 1030 3252 1110 3199 c 0,28,29
 1143 3178 1143 3178 1168.5 3154.5 c 128,-1,30
 1194 3131 1194 3131 1212.5 3101 c 128,-1,31
 1231 3071 1231 3071 1243.5 3046 c 128,-1,32
 1256 3021 1256 3021 1266.5 2981.5 c 128,-1,33
 1277 2942 1277 2942 1283 2915 c 128,-1,34
 1289 2888 1289 2888 1298 2839 c 0,35,36
 1318 2736 1318 2736 1321 2643.5 c 128,-1,37
 1324 2551 1324 2551 1315.5 2476.5 c 128,-1,38
 1307 2402 1307 2402 1286 2281 c 0,39,40
 1275 2219 1275 2219 1262.5 2167.5 c 128,-1,41
 1250 2116 1250 2116 1230.5 2061 c 128,-1,42
 1211 2006 1211 2006 1198 1972.5 c 128,-1,43
 1185 1939 1185 1939 1155 1868.5 c 128,-1,44
 1125 1798 1125 1798 1110 1761 c 0,45,46
 1093 1722 1093 1722 1069 1658 c 1,47,48
 1094 1622 1094 1622 1122 1584 c 0,49,50
 1210 1464 1210 1464 1272 1382.5 c 128,-1,51
 1334 1301 1334 1301 1407 1181 c 128,-1,52
 1480 1061 1480 1061 1536 930 c 0,53,54
 1563 870 1563 870 1574.5 816 c 128,-1,55
 1586 762 1586 762 1582 704.5 c 128,-1,56
 1578 647 1578 647 1567.5 599.5 c 128,-1,57
 1557 552 1557 552 1536 479 c 0,58,59
 1488 332 1488 332 1432.5 237.5 c 128,-1,60
 1377 143 1377 143 1270 20 c 0,61,62
 1250 -3 1250 -3 1249 40 c 0,63,64
 1249 57 1249 57 1253 101 c 0,65,66
 1257 144 1257 144 1257 160 c 0,67,68
 1260 215 1260 215 1274 279.5 c 128,-1,69
 1288 344 1288 344 1299 384.5 c 128,-1,70
 1310 425 1310 425 1313.5 488.5 c 128,-1,71
 1317 552 1317 552 1298 606 c 0,72,73
 1285 653 1285 653 1270.5 697.5 c 128,-1,74
 1256 742 1256 742 1244 777.5 c 128,-1,75
 1232 813 1232 813 1213 856.5 c 128,-1,76
 1194 900 1194 900 1183 926 c 128,-1,77
 1172 952 1172 952 1148 998 c 128,-1,78
 1124 1044 1124 1044 1113.5 1064 c 128,-1,79
 1103 1084 1103 1084 1073 1135 c 128,-1,80
 1043 1186 1043 1186 1032.5 1203.5 c 128,-1,81
 1022 1221 1022 1221 985.5 1281 c 128,-1,82
 949 1341 949 1341 938 1360 c 1,83,84
 912 1309 912 1309 855 1195.5 c 128,-1,85
 798 1082 798 1082 773.5 1035 c 128,-1,86
 749 988 749 988 704 904.5 c 128,-1,87
 659 821 659 821 616 749 c 128,-1,88
 573 677 573 677 520 594 c 0,89,90
 423 443 423 443 343 343 c 128,-1,91
 263 243 263 243 139 119 c 0,92,93
 127 110 127 110 109.5 109.5 c 128,-1,94
 92 109 92 109 78 118 c 128,-1,95
 64 127 64 127 70 139 c 0,0,1
1003 1757 m 1,96,97
 1035 1842 1035 1842 1061 1922 c 0,98,99
 1126 2124 1126 2124 1208 2441 c 0,100,101
 1226 2502 1226 2502 1233 2554 c 128,-1,102
 1240 2606 1240 2606 1236 2662.5 c 128,-1,103
 1232 2719 1232 2719 1224.5 2761 c 128,-1,104
 1217 2803 1217 2803 1200 2879 c 0,105,106
 1193 2914 1193 2914 1183 2938 c 128,-1,107
 1173 2962 1173 2962 1156 2981.5 c 128,-1,108
 1139 3001 1139 3001 1125 3012.5 c 128,-1,109
 1111 3024 1111 3024 1082 3047 c 128,-1,110
 1053 3070 1053 3070 1032 3088 c 0,111,112
 996 3119 996 3119 944 3117.5 c 128,-1,113
 892 3116 892 3116 856 3080 c 0,114,115
 774 2998 774 2998 732 2925.5 c 128,-1,116
 690 2853 690 2853 672 2748 c 0,117,118
 660 2682 660 2682 657.5 2625.5 c 128,-1,119
 655 2569 655 2569 663 2511.5 c 128,-1,120
 671 2454 671 2454 684 2404 c 128,-1,121
 697 2354 697 2354 721 2281 c 0,122,123
 744 2213 744 2213 774.5 2149 c 128,-1,124
 805 2085 805 2085 828.5 2044.5 c 128,-1,125
 852 2004 852 2004 896.5 1932 c 128,-1,126
 941 1860 941 1860 967 1815 c 0,127,128
 984 1786 984 1786 1003 1757 c 1,96,97
EndSplineSet
EndChar

StartChar: u1057E
Encoding: 66942 66942 12
Width: 1744
VWidth: 0
Flags: W
HStem: 2863 377<642.42 1017.12>
VStem: 631 401<2955.29 3216.49>
LayerCount: 2
Fore
SplineSet
82 1286 m 0,0,1
 143 1347 143 1347 239 1436.5 c 128,-1,2
 335 1526 335 1526 388 1583.5 c 128,-1,3
 441 1641 441 1641 504 1729 c 0,4,5
 529 1764 529 1764 550 1799.5 c 128,-1,6
 571 1835 571 1835 584 1860 c 128,-1,7
 597 1885 597 1885 613.5 1928 c 128,-1,8
 630 1971 630 1971 637 1990 c 128,-1,9
 644 2009 644 2009 662.5 2065 c 128,-1,10
 681 2121 681 2121 688 2142 c 0,11,12
 714 2218 714 2218 726 2310.5 c 128,-1,13
 738 2403 738 2403 754 2485.5 c 128,-1,14
 770 2568 770 2568 811 2646 c 0,15,16
 833 2689 833 2689 886 2589 c 0,17,18
 887 2586 887 2586 905 2552 c 0,19,20
 974 2418 974 2418 1073 2178.5 c 128,-1,21
 1172 1939 1172 1939 1257 1786 c 0,22,23
 1291 1724 1291 1724 1338 1664.5 c 128,-1,24
 1385 1605 1385 1605 1426.5 1561 c 128,-1,25
 1468 1517 1468 1517 1508.5 1469 c 128,-1,26
 1549 1421 1549 1421 1582.5 1360.5 c 128,-1,27
 1616 1300 1616 1300 1634 1229 c 0,28,29
 1693 1033 1693 1033 1686 867 c 128,-1,30
 1679 701 1679 701 1593 520 c 0,31,32
 1560 453 1560 453 1518 398 c 128,-1,33
 1476 343 1476 343 1436 305.5 c 128,-1,34
 1396 268 1396 268 1334.5 229.5 c 128,-1,35
 1273 191 1273 191 1226.5 166.5 c 128,-1,36
 1180 142 1180 142 1098 102 c 0,37,38
 1076 91 1076 91 1065 86 c 0,39,40
 982 42 982 42 916.5 22.5 c 128,-1,41
 851 3 851 3 777 6 c 128,-1,42
 703 9 703 9 623 41 c 0,43,44
 484 94 484 94 398.5 172 c 128,-1,45
 313 250 313 250 233 385 c 0,46,47
 218 416 218 416 225.5 452.5 c 128,-1,48
 233 489 233 489 263 515.5 c 128,-1,49
 293 542 293 542 324 532 c 0,50,51
 352 522 352 522 361.5 497.5 c 128,-1,52
 371 473 371 473 368 446.5 c 128,-1,53
 365 420 365 420 369.5 387 c 128,-1,54
 374 354 374 354 393 332 c 0,55,56
 462 250 462 250 524.5 202 c 128,-1,57
 587 154 587 154 680 119 c 0,58,59
 707 109 707 109 730 106 c 128,-1,60
 753 103 753 103 783 110 c 128,-1,61
 813 117 813 117 826.5 122 c 128,-1,62
 840 127 840 127 881 143 c 0,63,64
 900 150 900 150 943.5 165 c 128,-1,65
 987 180 987 180 1004 186.5 c 128,-1,66
 1021 193 1021 193 1054.5 207.5 c 128,-1,67
 1088 222 1088 222 1107 234 c 128,-1,68
 1126 246 1126 246 1151.5 265 c 128,-1,69
 1177 284 1177 284 1200 307 c 0,70,71
 1214 321 1214 321 1226 334.5 c 128,-1,72
 1238 348 1238 348 1247.5 364.5 c 128,-1,73
 1257 381 1257 381 1264 392 c 128,-1,74
 1271 403 1271 403 1278.5 423 c 128,-1,75
 1286 443 1286 443 1289.5 451.5 c 128,-1,76
 1293 460 1293 460 1299 484.5 c 128,-1,77
 1305 509 1305 509 1307 515.5 c 128,-1,78
 1309 522 1309 522 1315.5 551 c 128,-1,79
 1322 580 1322 580 1323 586 c 0,80,81
 1340 659 1340 659 1343 809.5 c 128,-1,82
 1346 960 1346 960 1329.5 1115 c 128,-1,83
 1313 1270 1313 1270 1278 1331 c 0,84,85
 1172 1539 1172 1539 1162 1555 c 0,86,87
 1157 1562 1157 1562 1079 1670 c 0,88,89
 1000 1779 1000 1779 881 1954 c 0,90,91
 835 2027 835 2027 754 1920 c 0,92,93
 725 1882 725 1882 641 1734 c 0,94,95
 590 1646 590 1646 561 1610 c 0,96,97
 541 1587 541 1587 507 1546 c 128,-1,98
 473 1505 473 1505 454.5 1483.5 c 128,-1,99
 436 1462 436 1462 404 1432 c 128,-1,100
 372 1402 372 1402 336 1376 c 0,101,102
 270 1326 270 1326 155 1281 c 0,103,104
 63 1245 63 1245 68 1267 c 0,105,106
 70 1274 70 1274 82 1286 c 0,0,1
766 3232 m 0,107,108
 844 3256 844 3256 874 3255 c 0,109,110
 907 3255 907 3255 942 3240 c 0,111,112
 971 3227 971 3227 989.5 3204.5 c 128,-1,113
 1008 3182 1008 3182 1013.5 3165.5 c 128,-1,114
 1019 3149 1019 3149 1029 3108 c 0,115,116
 1031 3101 1031 3101 1032 3097 c 0,117,118
 1045 3057 1045 3057 1044.5 3022 c 128,-1,119
 1044 2987 1044 2987 1024 2953 c 0,120,121
 984 2885 984 2885 905 2863 c 0,122,123
 852 2847 852 2847 825 2846 c 128,-1,124
 798 2845 798 2845 745 2863 c 0,125,126
 661 2892 661 2892 631 2978 c 0,127,128
 611 3030 611 3030 610.5 3065.5 c 128,-1,129
 610 3101 610 3101 631 3146 c 0,130,131
 650 3183 650 3183 676 3198 c 128,-1,132
 702 3213 702 3213 755 3229 c 0,133,134
 762 3231 762 3231 766 3232 c 0,107,108
EndSplineSet
EndChar

StartChar: u10586
Encoding: 66950 66950 13
Width: 3538
VWidth: 0
Flags: W
HStem: 340 229<1051.74 1333.1> 2970 299<1691.82 2242.96>
VStem: 639 217<911.815 2111.59> 1462 385<760.617 2044.44> 2261 475<-209.6 401.719> 2511 622<1235.45 1946 2187 2630.45> 3117 348<136.539 619.314>
LayerCount: 2
Fore
SplineSet
160 2253 m 0,0,1
 134 2207 134 2207 105 2307 c 0,2,3
 99 2327 99 2327 90 2368 c 0,4,5
 87 2379 87 2379 86 2384 c 0,6,7
 55 2497 55 2497 74 2593 c 0,8,9
 77 2609 77 2609 84 2648 c 128,-1,10
 91 2687 91 2687 94.5 2702 c 128,-1,11
 98 2717 98 2717 106.5 2744.5 c 128,-1,12
 115 2772 115 2772 128 2793.5 c 128,-1,13
 141 2815 141 2815 160 2839 c 0,14,15
 244 2960 244 2960 280 2998 c 0,16,17
 340 3062 340 3062 438 3113 c 0,18,19
 504 3148 504 3148 537.5 3163.5 c 128,-1,20
 571 3179 571 3179 630 3195 c 128,-1,21
 689 3211 689 3211 741 3207 c 0,22,23
 752 3206 752 3206 783.5 3203.5 c 128,-1,24
 815 3201 815 3201 825.5 3200 c 128,-1,25
 836 3199 836 3199 860 3196 c 128,-1,26
 884 3193 884 3193 898 3189.5 c 128,-1,27
 912 3186 912 3186 933 3180 c 128,-1,28
 954 3174 954 3174 975 3166 c 0,29,30
 1045 3141 1045 3141 1091.5 3115 c 128,-1,31
 1138 3089 1138 3089 1200 3039 c 0,32,33
 1214 3027 1214 3027 1246 3000.5 c 128,-1,34
 1278 2974 1278 2974 1294 2960 c 0,35,36
 1309 2947 1309 2947 1329 2926 c 1,37,38
 1372 2958 1372 2958 1401 2986 c 0,39,40
 1430 3011 1430 3011 1461.5 3032.5 c 128,-1,41
 1493 3054 1493 3054 1535.5 3079.5 c 128,-1,42
 1578 3105 1578 3105 1602 3121 c 0,43,44
 1672 3170 1672 3170 1701.5 3185.5 c 128,-1,45
 1731 3201 1731 3201 1815 3232 c 0,46,47
 1909 3269 1909 3269 2048 3269 c 1,48,49
 2174 3264 2174 3264 2327 3228 c 0,50,51
 2414 3207 2414 3207 2465 3185.5 c 128,-1,52
 2516 3164 2516 3164 2601 3113 c 0,53,54
 2736 3031 2736 3031 2855 2912 c 0,55,56
 2879 2888 2879 2888 2896 2869.5 c 128,-1,57
 2913 2851 2913 2851 2928 2829 c 128,-1,58
 2943 2807 2943 2807 2950.5 2795 c 128,-1,59
 2958 2783 2958 2783 2977 2751.5 c 128,-1,60
 2996 2720 2996 2720 3006 2703 c 0,61,62
 3020 2680 3020 2680 3031.5 2657 c 128,-1,63
 3043 2634 3043 2634 3049 2620 c 128,-1,64
 3055 2606 3055 2606 3063.5 2577 c 128,-1,65
 3072 2548 3072 2548 3074.5 2541 c 128,-1,66
 3077 2534 3077 2534 3086 2495 c 128,-1,67
 3095 2456 3095 2456 3097 2449 c 0,68,69
 3102 2431 3102 2431 3106 2414 c 128,-1,70
 3110 2397 3110 2397 3113.5 2378 c 128,-1,71
 3117 2359 3117 2359 3119 2347 c 128,-1,72
 3121 2335 3121 2335 3123.5 2312 c 128,-1,73
 3126 2289 3126 2289 3127 2279.5 c 128,-1,74
 3128 2270 3128 2270 3130 2241.5 c 128,-1,75
 3132 2213 3132 2213 3133 2204 c 0,76,77
 3140 2118 3140 2118 3133 1946 c 0,78,79
 3128 1802 3128 1802 3105 1630 c 0,80,81
 3065 1355 3065 1355 3056 1303 c 128,-1,82
 3047 1251 3047 1251 3038.5 1211.5 c 128,-1,83
 3030 1172 3030 1172 3018.5 1124 c 128,-1,84
 3007 1076 3007 1076 2998 1032 c 0,85,86
 2989 987 2989 987 2978.5 942.5 c 128,-1,87
 2968 898 2968 898 2961 872 c 128,-1,88
 2954 846 2954 846 2938.5 792 c 128,-1,89
 2923 738 2923 738 2916 713 c 0,90,91
 2896 644 2896 644 2863.5 532.5 c 128,-1,92
 2831 421 2831 421 2810 352 c 0,93,94
 2757 174 2757 174 2748 49 c 0,95,96
 2746 28 2746 28 2741 -18.5 c 128,-1,97
 2736 -65 2736 -65 2735 -84 c 128,-1,98
 2734 -103 2734 -103 2732 -137.5 c 128,-1,99
 2730 -172 2730 -172 2731.5 -202.5 c 128,-1,100
 2733 -233 2733 -233 2736 -270 c 0,101,102
 2741 -337 2741 -337 2758.5 -418 c 128,-1,103
 2776 -499 2776 -499 2802 -512 c 0,104,105
 2818 -517 2818 -517 2832.5 -516.5 c 128,-1,106
 2847 -516 2847 -516 2866.5 -503.5 c 128,-1,107
 2886 -491 2886 -491 2901.5 -478.5 c 128,-1,108
 2917 -466 2917 -466 2936.5 -446 c 128,-1,109
 2956 -426 2956 -426 2969.5 -411 c 128,-1,110
 2983 -396 2983 -396 2999 -378 c 128,-1,111
 3015 -360 3015 -360 3023 -352 c 0,112,113
 3206 -147 3206 -147 3236 -49 c 0,114,115
 3248 -18 3248 -18 3236.5 6 c 128,-1,116
 3225 30 3225 30 3208 41 c 128,-1,117
 3191 52 3191 52 3171 76 c 128,-1,118
 3151 100 3151 100 3146 131 c 0,119,120
 3142 156 3142 156 3134.5 195.5 c 128,-1,121
 3127 235 3127 235 3123.5 256 c 128,-1,122
 3120 277 3120 277 3116.5 307 c 128,-1,123
 3113 337 3113 337 3113.5 365.5 c 128,-1,124
 3114 394 3114 394 3117 426 c 0,125,126
 3123 480 3123 480 3137 515 c 128,-1,127
 3151 550 3151 550 3183 594 c 0,128,129
 3212 628 3212 628 3230.5 636.5 c 128,-1,130
 3249 645 3249 645 3305 655 c 0,131,132
 3311 656 3311 656 3328 659 c 128,-1,133
 3345 662 3345 662 3351 663 c 128,-1,134
 3357 664 3357 664 3369.5 664.5 c 128,-1,135
 3382 665 3382 665 3388.5 663 c 128,-1,136
 3395 661 3395 661 3404 656 c 128,-1,137
 3413 651 3413 651 3420 643 c 128,-1,138
 3427 635 3427 635 3433 626 c 128,-1,139
 3439 617 3439 617 3444 610 c 128,-1,140
 3449 603 3449 603 3453 592.5 c 128,-1,141
 3457 582 3457 582 3459.5 576.5 c 128,-1,142
 3462 571 3462 571 3464.5 558 c 128,-1,143
 3467 545 3467 545 3468 540.5 c 128,-1,144
 3469 536 3469 536 3471 520.5 c 128,-1,145
 3473 505 3473 505 3473.5 501 c 128,-1,146
 3474 497 3474 497 3476 478 c 128,-1,147
 3478 459 3478 459 3478 455 c 0,148,149
 3483 400 3483 400 3474.5 317 c 128,-1,150
 3466 234 3466 234 3465 213 c 0,151,152
 3459 50 3459 50 3432 -86 c 0,153,154
 3413 -178 3413 -178 3401 -220.5 c 128,-1,155
 3389 -263 3389 -263 3359 -344 c 0,156,157
 3307 -481 3307 -481 3269 -549 c 0,158,159
 3254 -574 3254 -574 3234.5 -612 c 128,-1,160
 3215 -650 3215 -650 3199.5 -672.5 c 128,-1,161
 3184 -695 3184 -695 3154 -725 c 0,162,163
 3139 -742 3139 -742 3124 -752.5 c 128,-1,164
 3109 -763 3109 -763 3099.5 -766 c 128,-1,165
 3090 -769 3090 -769 3067.5 -773.5 c 128,-1,166
 3045 -778 3045 -778 3031 -782 c 0,167,168
 2946 -808 2946 -808 2911 -809 c 0,169,170
 2889 -810 2889 -810 2863 -807 c 0,171,172
 2851 -806 2851 -806 2840 -804 c 128,-1,173
 2829 -802 2829 -802 2818 -799.5 c 128,-1,174
 2807 -797 2807 -797 2799.5 -795 c 128,-1,175
 2792 -793 2792 -793 2780.5 -788.5 c 128,-1,176
 2769 -784 2769 -784 2763.5 -782 c 128,-1,177
 2758 -780 2758 -780 2745 -773.5 c 128,-1,178
 2732 -767 2732 -767 2727.5 -765 c 128,-1,179
 2723 -763 2723 -763 2707.5 -755 c 128,-1,180
 2692 -747 2692 -747 2687 -745 c 0,181,182
 2680 -741 2680 -741 2658 -730.5 c 128,-1,183
 2636 -720 2636 -720 2626 -714.5 c 128,-1,184
 2616 -709 2616 -709 2600 -698.5 c 128,-1,185
 2584 -688 2584 -688 2573.5 -676.5 c 128,-1,186
 2563 -665 2563 -665 2556 -651 c 0,187,188
 2499 -548 2499 -548 2474 -492 c 0,189,190
 2420 -388 2420 -388 2367 -254 c 0,191,192
 2322 -142 2322 -142 2281 86 c 0,193,194
 2261 204 2261 204 2261 344 c 0,195,196
 2261 391 2261 391 2272 456.5 c 128,-1,197
 2283 522 2283 522 2286 549 c 0,198,199
 2290 586 2290 586 2294 609 c 128,-1,200
 2298 632 2298 632 2305.5 665 c 128,-1,201
 2313 698 2313 698 2318 725 c 0,202,203
 2349 869 2349 869 2380 987 c 0,204,205
 2392 1030 2392 1030 2402 1095.5 c 128,-1,206
 2412 1161 2412 1161 2425 1204 c 0,207,208
 2472 1405 2472 1405 2478 1450 c 0,209,210
 2492 1598 2492 1598 2494 1630 c 0,211,212
 2496 1685 2496 1685 2502.5 1779.5 c 128,-1,213
 2509 1874 2509 1874 2511 1929 c 0,214,215
 2514 1948 2514 1948 2512.5 2058 c 128,-1,216
 2511 2168 2511 2168 2511 2187 c 0,217,218
 2511 2213 2511 2213 2512.5 2262 c 128,-1,219
 2514 2311 2514 2311 2513.5 2336 c 128,-1,220
 2513 2361 2513 2361 2508.5 2399.5 c 128,-1,221
 2504 2438 2504 2438 2494 2474 c 0,222,223
 2473 2546 2473 2546 2449.5 2594.5 c 128,-1,224
 2426 2643 2426 2643 2380 2712 c 0,225,226
 2353 2753 2353 2753 2341.5 2770.5 c 128,-1,227
 2330 2788 2330 2788 2305 2818 c 128,-1,228
 2280 2848 2280 2848 2253 2871 c 0,229,230
 2241 2882 2241 2882 2232 2892.5 c 128,-1,231
 2223 2903 2223 2903 2219.5 2906.5 c 128,-1,232
 2216 2910 2216 2910 2206 2914.5 c 128,-1,233
 2196 2919 2196 2919 2175 2925 c 0,234,235
 2159 2930 2159 2930 2121.5 2942.5 c 128,-1,236
 2084 2955 2084 2955 2068 2959 c 128,-1,237
 2052 2963 2052 2963 2022.5 2967 c 128,-1,238
 1993 2971 1993 2971 1962 2970 c 0,239,240
 1874 2967 1874 2967 1807.5 2950 c 128,-1,241
 1741 2933 1741 2933 1663 2896 c 0,242,243
 1610 2869 1610 2869 1562 2836 c 0,244,245
 1514 2804 1514 2804 1486 2780 c 0,246,247
 1474 2770 1474 2770 1456 2754 c 1,248,249
 1459 2749 1459 2749 1462 2745 c 0,250,251
 1480 2716 1480 2716 1495 2679 c 0,252,253
 1557 2551 1557 2551 1618 2433 c 0,254,255
 1648 2369 1648 2369 1676 2291.5 c 128,-1,256
 1704 2214 1704 2214 1739.5 2104 c 128,-1,257
 1775 1994 1775 1994 1786 1962 c 0,258,259
 1815 1878 1815 1878 1825.5 1806.5 c 128,-1,260
 1836 1735 1836 1735 1839 1630 c 0,261,262
 1841 1587 1841 1587 1853.5 1518.5 c 128,-1,263
 1866 1450 1866 1450 1864 1389 c 0,264,265
 1858 1268 1858 1268 1854.5 1160.5 c 128,-1,266
 1851 1053 1851 1053 1847 991 c 0,267,268
 1840 905 1840 905 1803 781.5 c 128,-1,269
 1766 658 1766 658 1720 598 c 0,270,271
 1700 572 1700 572 1679.5 549 c 128,-1,272
 1659 526 1659 526 1645 512 c 128,-1,273
 1631 498 1631 498 1604.5 472.5 c 128,-1,274
 1578 447 1578 447 1561 430 c 0,275,276
 1539 408 1539 408 1485.5 387.5 c 128,-1,277
 1432 367 1432 367 1403 360.5 c 128,-1,278
 1374 354 1374 354 1311 340 c 0,279,280
 1271 329 1271 329 1183.5 342.5 c 128,-1,281
 1096 356 1096 356 1049 377 c 0,282,283
 994 402 994 402 950 455.5 c 128,-1,284
 906 509 906 509 852 598 c 0,285,286
 848 606 848 606 838 623.5 c 128,-1,287
 828 641 828 641 824.5 647 c 128,-1,288
 821 653 821 653 814 666.5 c 128,-1,289
 807 680 807 680 803.5 687.5 c 128,-1,290
 800 695 800 695 794.5 708 c 128,-1,291
 789 721 789 721 784 733.5 c 128,-1,292
 779 746 779 746 774 762 c 0,293,294
 762 794 762 794 753 823 c 128,-1,295
 744 852 744 852 736 883.5 c 128,-1,296
 728 915 728 915 723 935.5 c 128,-1,297
 718 956 718 956 709.5 996.5 c 128,-1,298
 701 1037 701 1037 696 1057 c 0,299,300
 687 1096 687 1096 680.5 1138 c 128,-1,301
 674 1180 674 1180 671 1205.5 c 128,-1,302
 668 1231 668 1231 662.5 1284 c 128,-1,303
 657 1337 657 1337 655 1360 c 0,304,305
 639 1519 639 1519 639 1688 c 0,306,307
 639 1704 639 1704 639 1740.5 c 128,-1,308
 639 1777 639 1777 639 1792.5 c 128,-1,309
 639 1808 639 1808 639.5 1838.5 c 128,-1,310
 640 1869 640 1869 642 1889 c 128,-1,311
 644 1909 644 1909 647 1936.5 c 128,-1,312
 650 1964 650 1964 655 1991 c 0,313,314
 684 2162 684 2162 762 2302 c 0,315,316
 810 2396 810 2396 837.5 2439.5 c 128,-1,317
 865 2483 865 2483 922 2548 c 0,318,319
 955 2590 955 2590 1000 2634.5 c 128,-1,320
 1045 2679 1045 2679 1101 2731 c 0,321,322
 1106 2736 1106 2736 1111 2741 c 1,323,324
 1102 2755 1102 2755 1091 2767 c 0,325,326
 1079 2781 1079 2781 1073 2788.5 c 128,-1,327
 1067 2796 1067 2796 1050.5 2809.5 c 128,-1,328
 1034 2823 1034 2823 1028.5 2827.5 c 128,-1,329
 1023 2832 1023 2832 999.5 2850 c 128,-1,330
 976 2868 976 2868 967 2875 c 0,331,332
 910 2919 910 2919 870 2938.5 c 128,-1,333
 830 2958 830 2958 770 2970 c 0,334,335
 604 3002 604 3002 512 2970 c 0,336,337
 433 2941 433 2941 393 2910 c 128,-1,338
 353 2879 353 2879 311 2810 c 1,339,340
 277 2746 277 2746 260 2668 c 128,-1,341
 243 2590 243 2590 239 2529.5 c 128,-1,342
 235 2469 235 2469 216 2392.5 c 128,-1,343
 197 2316 197 2316 160 2253 c 0,0,1
1221 2543 m 1,344,345
 1213 2534 1213 2534 1204 2523 c 0,346,347
 1191 2506 1191 2506 1147 2450.5 c 128,-1,348
 1103 2395 1103 2395 1087.5 2373.5 c 128,-1,349
 1072 2352 1072 2352 1043 2307.5 c 128,-1,350
 1014 2263 1014 2263 991 2216 c 0,351,352
 952 2140 952 2140 933.5 2079.5 c 128,-1,353
 915 2019 915 2019 893 1913 c 0,354,355
 878 1840 878 1840 870.5 1770.5 c 128,-1,356
 863 1701 863 1701 861 1664 c 128,-1,357
 859 1627 859 1627 857 1527 c 0,358,359
 856 1506 856 1506 856 1495 c 0,360,361
 855 1471 855 1471 852.5 1420.5 c 128,-1,362
 850 1370 850 1370 850 1350.5 c 128,-1,363
 850 1331 850 1331 852 1293 c 128,-1,364
 854 1255 854 1255 860 1212 c 0,365,366
 863 1191 863 1191 870.5 1139.5 c 128,-1,367
 878 1088 878 1088 882 1065.5 c 128,-1,368
 886 1043 886 1043 893 1003.5 c 128,-1,369
 900 964 900 964 909 930.5 c 128,-1,370
 918 897 918 897 930 860 c 0,371,372
 932 854 932 854 943.5 819.5 c 128,-1,373
 955 785 955 785 958.5 776 c 128,-1,374
 962 767 962 767 973 739.5 c 128,-1,375
 984 712 984 712 992 699 c 128,-1,376
 1000 686 1000 686 1014 666.5 c 128,-1,377
 1028 647 1028 647 1044 631 c 0,378,379
 1086 589 1086 589 1127 576 c 128,-1,380
 1168 563 1168 563 1225 569 c 0,381,382
 1272 575 1272 575 1297.5 599.5 c 128,-1,383
 1323 624 1323 624 1343 676 c 0,384,385
 1385 784 1385 784 1406 871 c 128,-1,386
 1427 958 1427 958 1442 1081 c 0,387,388
 1456 1215 1456 1215 1462 1368 c 0,389,390
 1465 1405 1465 1405 1462 1472 c 128,-1,391
 1459 1539 1459 1539 1458 1560.5 c 128,-1,392
 1457 1582 1457 1582 1451 1649 c 128,-1,393
 1445 1716 1445 1716 1442 1753 c 0,394,395
 1440 1778 1440 1778 1435 1830.5 c 128,-1,396
 1430 1883 1430 1883 1428 1904.5 c 128,-1,397
 1426 1926 1426 1926 1420.5 1968 c 128,-1,398
 1415 2010 1415 2010 1409 2037.5 c 128,-1,399
 1403 2065 1403 2065 1392.5 2104 c 128,-1,400
 1382 2143 1382 2143 1368 2183 c 0,401,402
 1305 2372 1305 2372 1221 2543 c 1,344,345
EndSplineSet
EndChar

StartChar: u10580
Encoding: 66944 66944 14
Width: 2433
VWidth: 0
Flags: W
HStem: 1901 110<641.816 1109.03> 2167 168<66 668 791 1622> 2654 467<1465.33 1764.87>
VStem: 668 123<1217.36 2167 2351 2880.01> 1335 410<-464.126 151.013 175.643 1654.16> 1335 381<-464.126 1055.39>
LayerCount: 2
Fore
SplineSet
1667 2654 m 0,0,1
 1615 2654 1615 2654 1588 2656 c 128,-1,2
 1561 2658 1561 2658 1527 2671.5 c 128,-1,3
 1493 2685 1493 2685 1470 2712 c 0,4,5
 1436 2751 1436 2751 1417.5 2805 c 128,-1,6
 1399 2859 1399 2859 1393 2902.5 c 128,-1,7
 1387 2946 1387 2946 1365 2996 c 128,-1,8
 1343 3046 1343 3046 1303 3080 c 0,9,10
 1185 3187 1185 3187 1036 3109 c 1,11,12
 956 3061 956 3061 912 3000 c 128,-1,13
 868 2939 868 2939 836 2839 c 0,14,15
 811 2757 811 2757 803.5 2680 c 128,-1,16
 796 2603 796 2603 796 2502.5 c 128,-1,17
 796 2402 796 2402 791 2335 c 1,18,-1
 1622 2327 l 1,19,-1
 1638 2179 l 1,20,-1
 782 2167 l 1,21,22
 791 2040 791 2040 791 2019 c 1,23,24
 841 2026 841 2026 874 2030 c 0,25,26
 913 2034 913 2034 988.5 2032.5 c 128,-1,27
 1064 2031 1064 2031 1086.5 2030 c 128,-1,28
 1109 2029 1109 2029 1207.5 2021 c 128,-1,29
 1306 2013 1306 2013 1327 2011 c 0,30,31
 1390 2008 1390 2008 1432 1988.5 c 128,-1,32
 1474 1969 1474 1969 1516 1921 c 0,33,34
 1574 1860 1574 1860 1602.5 1802.5 c 128,-1,35
 1631 1745 1631 1745 1655 1655 c 0,36,37
 1703 1472 1703 1472 1721 1343.5 c 128,-1,38
 1739 1215 1739 1215 1745 1020 c 0,39,40
 1752 837 1752 837 1734 571.5 c 128,-1,41
 1716 306 1716 306 1716 160 c 0,42,43
 1716 110 1716 110 1713.5 31.5 c 128,-1,44
 1711 -47 1711 -47 1711 -90.5 c 128,-1,45
 1711 -134 1711 -134 1717 -200 c 128,-1,46
 1723 -266 1723 -266 1737 -332 c 0,47,48
 1739 -343 1739 -343 1747 -379 c 128,-1,49
 1755 -415 1755 -415 1757.5 -426 c 128,-1,50
 1760 -437 1760 -437 1768 -466.5 c 128,-1,51
 1776 -496 1776 -496 1782 -508 c 128,-1,52
 1788 -520 1788 -520 1799 -543 c 128,-1,53
 1810 -566 1810 -566 1822 -579.5 c 128,-1,54
 1834 -593 1834 -593 1851 -609 c 128,-1,55
 1868 -625 1868 -625 1888 -639 c 0,56,57
 1903 -648 1903 -648 1918.5 -652 c 128,-1,58
 1934 -656 1934 -656 1946 -657 c 128,-1,59
 1958 -658 1958 -658 1973.5 -653 c 128,-1,60
 1989 -648 1989 -648 1999 -644 c 128,-1,61
 2009 -640 2009 -640 2026 -628.5 c 128,-1,62
 2043 -617 2043 -617 2051 -611 c 128,-1,63
 2059 -605 2059 -605 2078.5 -590 c 128,-1,64
 2098 -575 2098 -575 2105 -569 c 0,65,66
 2134 -547 2134 -547 2147.5 -521.5 c 128,-1,67
 2161 -496 2161 -496 2171.5 -457.5 c 128,-1,68
 2182 -419 2182 -419 2195 -393 c 0,69,70
 2212 -364 2212 -364 2228 -300 c 128,-1,71
 2244 -236 2244 -236 2264.5 -202 c 128,-1,72
 2285 -168 2285 -168 2327 -172 c 0,73,74
 2352 -174 2352 -174 2362.5 -187 c 128,-1,75
 2373 -200 2373 -200 2370 -222.5 c 128,-1,76
 2367 -245 2367 -245 2360.5 -266.5 c 128,-1,77
 2354 -288 2354 -288 2343 -320.5 c 128,-1,78
 2332 -353 2332 -353 2327 -373 c 0,79,80
 2312 -453 2312 -453 2293.5 -507 c 128,-1,81
 2275 -561 2275 -561 2236 -606 c 0,82,83
 2178 -670 2178 -670 2129.5 -704 c 128,-1,84
 2081 -738 2081 -738 2007 -762 c 0,85,86
 1947 -782 1947 -782 1887 -782.5 c 128,-1,87
 1827 -783 1827 -783 1761 -770 c 0,88,89
 1688 -760 1688 -760 1645 -743 c 128,-1,90
 1602 -726 1602 -726 1556 -680 c 0,91,92
 1497 -621 1497 -621 1467 -564 c 128,-1,93
 1437 -507 1437 -507 1405 -410 c 0,94,95
 1369 -296 1369 -296 1355 -211.5 c 128,-1,96
 1341 -127 1341 -127 1335 0 c 0,97,98
 1326 196 1326 196 1327 392 c 128,-1,99
 1328 588 1328 588 1333.5 735 c 128,-1,100
 1339 882 1339 882 1334.5 1078 c 128,-1,101
 1330 1274 1330 1274 1311 1470 c 0,102,103
 1301 1594 1301 1594 1272.5 1670.5 c 128,-1,104
 1244 1747 1244 1747 1167 1806 c 1,105,106
 1088 1874 1088 1874 998 1894 c 0,107,108
 909 1914 909 1914 792 1901 c 1,109,110
 793 1841 793 1841 796 1775 c 0,111,112
 802 1639 802 1639 806 1550 c 128,-1,113
 810 1461 810 1461 803.5 1337.5 c 128,-1,114
 797 1214 797 1214 774 1090 c 0,115,116
 753 976 753 976 706.5 899.5 c 128,-1,117
 660 823 660 823 569 745 c 0,118,119
 493 680 493 680 377 745 c 0,120,121
 335 769 335 769 297.5 830 c 128,-1,122
 260 891 260 891 254 942 c 0,123,124
 253 954 253 954 248.5 1004.5 c 128,-1,125
 244 1055 244 1055 243 1064.5 c 128,-1,126
 242 1074 242 1074 239 1115 c 128,-1,127
 236 1156 236 1156 236 1167 c 128,-1,128
 236 1178 236 1178 234.5 1213 c 128,-1,129
 233 1248 233 1248 234 1264 c 128,-1,130
 235 1280 235 1280 236 1311.5 c 128,-1,131
 237 1343 237 1343 239.5 1366.5 c 128,-1,132
 242 1390 242 1390 245.5 1421.5 c 128,-1,133
 249 1453 249 1453 254 1487 c 0,134,135
 269 1585 269 1585 298 1656.5 c 128,-1,136
 327 1728 327 1728 385 1815 c 0,137,138
 477 1947 477 1947 647 1991 c 0,139,140
 659 1994 659 1994 671 1997 c 1,141,142
 671 2016 671 2016 670 2034 c 0,143,144
 668 2112 668 2112 668 2167 c 1,145,-1
 66 2179 l 1,146,-1
 66 2335 l 1,147,-1
 668 2351 l 1,148,149
 677 2436 677 2436 680 2547.5 c 128,-1,150
 683 2659 683 2659 691.5 2750.5 c 128,-1,151
 700 2842 700 2842 725 2941 c 0,152,153
 743 3016 743 3016 777 3066 c 128,-1,154
 811 3116 811 3116 877 3166 c 0,155,156
 948 3222 948 3222 1017.5 3244 c 128,-1,157
 1087 3266 1087 3266 1176 3260 c 0,158,159
 1324 3251 1324 3251 1429.5 3221 c 128,-1,160
 1535 3191 1535 3191 1667 3121 c 0,161,162
 1694 3105 1694 3105 1715 3087.5 c 128,-1,163
 1736 3070 1736 3070 1756 3044 c 128,-1,164
 1776 3018 1776 3018 1785 3004 c 128,-1,165
 1794 2990 1794 2990 1816.5 2951.5 c 128,-1,166
 1839 2913 1839 2913 1847 2900 c 0,167,168
 1865 2865 1865 2865 1866.5 2834.5 c 128,-1,169
 1868 2804 1868 2804 1855 2769 c 0,170,171
 1853 2761 1853 2761 1849 2754.5 c 128,-1,172
 1845 2748 1845 2748 1841.5 2743.5 c 128,-1,173
 1838 2739 1838 2739 1829.5 2734 c 128,-1,174
 1821 2729 1821 2729 1817 2727 c 128,-1,175
 1813 2725 1813 2725 1801.5 2719.5 c 128,-1,176
 1790 2714 1790 2714 1786 2712 c 0,177,178
 1769 2703 1769 2703 1746.5 2687 c 128,-1,179
 1724 2671 1724 2671 1706.5 2662.5 c 128,-1,180
 1689 2654 1689 2654 1667 2654 c 0,0,1
672 1867 m 1,181,182
 662 1862 662 1862 652 1856 c 0,183,184
 598 1818 598 1818 537 1741 c 0,185,186
 500 1691 500 1691 481 1636.5 c 128,-1,187
 462 1582 462 1582 456.5 1540 c 128,-1,188
 451 1498 451 1498 447 1423 c 0,189,190
 446 1408 446 1408 446 1401 c 0,191,192
 435 1264 435 1264 440.5 1153 c 128,-1,193
 446 1042 446 1042 475 905 c 0,194,195
 478 884 478 884 513.5 885 c 128,-1,196
 549 886 549 886 561 905 c 0,197,198
 573 921 573 921 581.5 937 c 128,-1,199
 590 953 590 953 594.5 963.5 c 128,-1,200
 599 974 599 974 602.5 992.5 c 128,-1,201
 606 1011 606 1011 607.5 1019 c 128,-1,202
 609 1027 609 1027 611 1053.5 c 128,-1,203
 613 1080 613 1080 614 1090 c 0,204,205
 650 1367 650 1367 668 1761 c 0,206,207
 671 1817 671 1817 672 1867 c 1,181,182
EndSplineSet
EndChar

StartChar: u10581
Encoding: 66945 66945 15
Width: 3133
VWidth: 0
Flags: W
HStem: 2212 176<1200.92 2038.79>
LayerCount: 2
Fore
SplineSet
1171 2380 m 0,0,1
 1166 2410 1166 2410 1211 2407 c 0,2,3
 1231 2406 1231 2406 1303 2388 c 0,4,5
 1409 2365 1409 2365 1573 2359 c 0,6,7
 1699 2356 1699 2356 1788 2372 c 128,-1,8
 1877 2388 1877 2388 1982 2441 c 0,9,10
 2062 2482 2062 2482 2111 2532.5 c 128,-1,11
 2160 2583 2160 2583 2212 2671 c 1,12,13
 2241 2730 2241 2730 2242.5 2781.5 c 128,-1,14
 2244 2833 2244 2833 2224 2892 c 1,15,16
 2208 2952 2208 2952 2180.5 2990.5 c 128,-1,17
 2153 3029 2153 3029 2101 3052 c 0,18,19
 2072 3068 2072 3068 2042 3079.5 c 128,-1,20
 2012 3091 2012 3091 1992 3097.5 c 128,-1,21
 1972 3104 1972 3104 1935.5 3108.5 c 128,-1,22
 1899 3113 1899 3113 1884.5 3114 c 128,-1,23
 1870 3115 1870 3115 1823 3117.5 c 128,-1,24
 1776 3120 1776 3120 1761 3121 c 0,25,26
 1648 3127 1648 3127 1567.5 3120 c 128,-1,27
 1487 3113 1487 3113 1372 3088 c 0,28,29
 1365 3086 1365 3086 1337.5 3080 c 128,-1,30
 1310 3074 1310 3074 1303 3072.5 c 128,-1,31
 1296 3071 1296 3071 1273.5 3065.5 c 128,-1,32
 1251 3060 1251 3060 1242.5 3057 c 128,-1,33
 1234 3054 1234 3054 1215 3048 c 128,-1,34
 1196 3042 1196 3042 1185.5 3036.5 c 128,-1,35
 1175 3031 1175 3031 1158.5 3023 c 128,-1,36
 1142 3015 1142 3015 1127.5 3006 c 128,-1,37
 1113 2997 1113 2997 1098 2986 c 0,38,39
 997 2922 997 2922 928 2856.5 c 128,-1,40
 859 2791 859 2791 754 2671 c 0,41,42
 713 2622 713 2622 681 2572.5 c 128,-1,43
 649 2523 649 2523 631.5 2489 c 128,-1,44
 614 2455 614 2455 578 2380 c 0,45,46
 532 2277 532 2277 516 2239 c 128,-1,47
 500 2201 500 2201 477.5 2126 c 128,-1,48
 455 2051 455 2051 446 1974 c 0,49,50
 434 1892 434 1892 432 1816.5 c 128,-1,51
 430 1741 430 1741 433 1689.5 c 128,-1,52
 436 1638 436 1638 446 1532 c 0,53,54
 456 1420 456 1420 470.5 1346.5 c 128,-1,55
 485 1273 485 1273 520 1180 c 1,56,57
 567 1070 567 1070 611.5 994 c 128,-1,58
 656 918 656 918 733 811 c 0,59,60
 811 705 811 705 871.5 642.5 c 128,-1,61
 932 580 932 580 1024 520 c 0,62,63
 1104 466 1104 466 1142.5 442.5 c 128,-1,64
 1181 419 1181 419 1244.5 397 c 128,-1,65
 1308 375 1308 375 1380 369 c 0,66,67
 1476 361 1476 361 1548 379 c 128,-1,68
 1620 397 1620 397 1733 446 c 0,69,70
 1770 462 1770 462 1802 477 c 1,71,72
 1790 494 1790 494 1778 512 c 0,73,74
 1707 614 1707 614 1678.5 696.5 c 128,-1,75
 1650 779 1650 779 1622 930 c 0,76,77
 1599 1057 1599 1057 1590 1129 c 128,-1,78
 1581 1201 1581 1201 1582 1300.5 c 128,-1,79
 1583 1400 1583 1400 1602 1499 c 0,80,81
 1625 1616 1625 1616 1657.5 1692 c 128,-1,82
 1690 1768 1690 1768 1757 1847 c 0,83,84
 1760 1850 1760 1850 1780 1871 c 128,-1,85
 1800 1892 1800 1892 1803.5 1895.5 c 128,-1,86
 1807 1899 1807 1899 1824 1916.5 c 128,-1,87
 1841 1934 1841 1934 1846 1938 c 128,-1,88
 1851 1942 1851 1942 1866.5 1955.5 c 128,-1,89
 1882 1969 1882 1969 1890 1973.5 c 128,-1,90
 1898 1978 1898 1978 1913 1988.5 c 128,-1,91
 1928 1999 1928 1999 1939.5 2004 c 128,-1,92
 1951 2009 1951 2009 1967 2016 c 128,-1,93
 1983 2023 1983 2023 1999 2028 c 0,94,95
 2058 2049 2058 2049 2136 2040.5 c 128,-1,96
 2214 2032 2214 2032 2261 1991 c 0,97,98
 2351 1914 2351 1914 2401 1834 c 128,-1,99
 2451 1754 2451 1754 2478 1638 c 0,100,101
 2516 1481 2516 1481 2517.5 1355.5 c 128,-1,102
 2519 1230 2519 1230 2478 1073 c 0,103,104
 2432 892 2432 892 2394.5 804.5 c 128,-1,105
 2357 717 2357 717 2261 586 c 0,106,107
 2242 559 2242 559 2223 535 c 1,108,109
 2242 508 2242 508 2259 488 c 0,110,111
 2317 420 2317 420 2421 360 c 0,112,113
 2488 320 2488 320 2559 319 c 128,-1,114
 2630 318 2630 318 2703 348 c 0,115,116
 2742 362 2742 362 2775.5 386 c 128,-1,117
 2809 410 2809 410 2827.5 430 c 128,-1,118
 2846 450 2846 450 2879 488.5 c 128,-1,119
 2912 527 2912 527 2933 549 c 0,120,121
 2958 582 2958 582 2992 698 c 0,122,123
 3013 771 3013 771 3024 772 c 0,124,125
 3031 773 3031 773 3038 756 c 0,126,127
 3038 755 3038 755 3039 754 c 0,128,129
 3050 731 3050 731 3057.5 709.5 c 128,-1,130
 3065 688 3065 688 3067 664 c 128,-1,131
 3069 640 3069 640 3071 623 c 128,-1,132
 3073 606 3073 606 3068.5 579 c 128,-1,133
 3064 552 3064 552 3062 538.5 c 128,-1,134
 3060 525 3060 525 3050.5 494 c 128,-1,135
 3041 463 3041 463 3038 452.5 c 128,-1,136
 3035 442 3035 442 3022 405.5 c 128,-1,137
 3009 369 3009 369 3006 360 c 0,138,139
 2978 283 2978 283 2939 231.5 c 128,-1,140
 2900 180 2900 180 2830 131 c 0,141,142
 2769 91 2769 91 2716 78.5 c 128,-1,143
 2663 66 2663 66 2580 66 c 0,144,145
 2562 66 2562 66 2513 65.5 c 128,-1,146
 2464 65 2464 65 2446.5 65.5 c 128,-1,147
 2429 66 2429 66 2390 67.5 c 128,-1,148
 2351 69 2351 69 2330 74 c 128,-1,149
 2309 79 2309 79 2277 87 c 128,-1,150
 2245 95 2245 95 2217 108 c 128,-1,151
 2189 121 2189 121 2159 139 c 0,152,153
 2038 205 2038 205 1954 291 c 0,154,155
 1949 296 1949 296 1944 302 c 1,156,157
 1926 290 1926 290 1894 270 c 0,158,159
 1838 235 1838 235 1823 225 c 0,160,161
 1720 158 1720 158 1643.5 124 c 128,-1,162
 1567 90 1567 90 1454 66 c 0,163,164
 1402 54 1402 54 1347 51 c 128,-1,165
 1292 48 1292 48 1264 49 c 128,-1,166
 1236 50 1236 50 1161 57 c 128,-1,167
 1086 64 1086 64 1061 66 c 0,168,169
 1046 67 1046 67 1014.5 69.5 c 128,-1,170
 983 72 983 72 969.5 73.5 c 128,-1,171
 956 75 956 75 932.5 79.5 c 128,-1,172
 909 84 909 84 888.5 91.5 c 128,-1,173
 868 99 868 99 844 111 c 0,174,175
 746 166 746 166 682 214.5 c 128,-1,176
 618 263 618 263 541 340 c 0,177,178
 453 434 453 434 413 478.5 c 128,-1,179
 373 523 373 523 319.5 596.5 c 128,-1,180
 266 670 266 670 221 754 c 0,181,182
 163 865 163 865 136.5 952.5 c 128,-1,183
 110 1040 110 1040 86 1180 c 0,184,185
 66 1291 66 1291 64.5 1386.5 c 128,-1,186
 63 1482 63 1482 74 1593 c 0,187,188
 77 1621 77 1621 82 1689.5 c 128,-1,189
 87 1758 87 1758 91 1790 c 128,-1,190
 95 1822 95 1822 103 1875.5 c 128,-1,191
 111 1929 111 1929 124 1973.5 c 128,-1,192
 137 2018 137 2018 156 2064 c 0,193,194
 192 2160 192 2160 225 2232 c 128,-1,195
 258 2304 258 2304 281 2346 c 128,-1,196
 304 2388 304 2388 369 2503 c 0,197,198
 413 2578 413 2578 431.5 2608 c 128,-1,199
 450 2638 450 2638 485 2689 c 128,-1,200
 520 2740 520 2740 556 2777.5 c 128,-1,201
 592 2815 592 2815 639 2855 c 0,202,203
 766 2964 766 2964 860 3023.5 c 128,-1,204
 954 3083 954 3083 1110 3154 c 0,205,206
 1276 3233 1276 3233 1479 3252 c 0,207,208
 1666 3270 1666 3270 1806 3252 c 128,-1,209
 1946 3234 1946 3234 2150 3174 c 0,210,211
 2199 3162 2199 3162 2226 3142.5 c 128,-1,212
 2253 3123 2253 3123 2281 3080 c 0,213,214
 2286 3073 2286 3073 2299.5 3053 c 128,-1,215
 2313 3033 2313 3033 2317 3026.5 c 128,-1,216
 2321 3020 2321 3020 2332 3002.5 c 128,-1,217
 2343 2985 2343 2985 2346.5 2977 c 128,-1,218
 2350 2969 2350 2969 2358 2953.5 c 128,-1,219
 2366 2938 2366 2938 2368.5 2927 c 128,-1,220
 2371 2916 2371 2916 2375.5 2901 c 128,-1,221
 2380 2886 2380 2886 2381.5 2871 c 128,-1,222
 2383 2856 2383 2856 2384 2839 c 0,223,224
 2387 2731 2387 2731 2372 2655 c 128,-1,225
 2357 2579 2357 2579 2310 2494 c 0,226,227
 2276 2434 2276 2434 2235 2402 c 128,-1,228
 2194 2370 2194 2370 2122 2335 c 0,229,230
 2012 2278 2012 2278 1935.5 2252 c 128,-1,231
 1859 2226 1859 2226 1741 2208 c 0,232,233
 1650 2193 1650 2193 1595 2188 c 128,-1,234
 1540 2183 1540 2183 1470 2187.5 c 128,-1,235
 1400 2192 1400 2192 1327 2212 c 0,236,237
 1189 2252 1189 2252 1171 2380 c 0,0,1
2134 680 m 1,238,239
 2204 744 2204 744 2243 810 c 128,-1,240
 2282 876 2282 876 2310 975 c 0,241,242
 2322 1019 2322 1019 2328.5 1057.5 c 128,-1,243
 2335 1096 2335 1096 2336 1142 c 128,-1,244
 2337 1188 2337 1188 2336.5 1210.5 c 128,-1,245
 2336 1233 2336 1233 2332 1295.5 c 128,-1,246
 2328 1358 2328 1358 2327 1380 c 0,247,248
 2326 1397 2326 1397 2323.5 1448.5 c 128,-1,249
 2321 1500 2321 1500 2319 1518 c 128,-1,250
 2317 1536 2317 1536 2310.5 1573 c 128,-1,251
 2304 1610 2304 1610 2292 1639 c 128,-1,252
 2280 1668 2280 1668 2261 1700 c 0,253,254
 2241 1740 2241 1740 2190.5 1755.5 c 128,-1,255
 2140 1771 2140 1771 2093 1761 c 0,256,257
 2031 1749 2031 1749 2001 1720 c 128,-1,258
 1971 1691 1971 1691 1962 1630 c 0,259,260
 1938 1470 1938 1470 1937 1370 c 128,-1,261
 1936 1270 1936 1270 1962 1110 c 0,262,263
 1974 1048 1974 1048 1988.5 997.5 c 128,-1,264
 2003 947 2003 947 2032 884 c 128,-1,265
 2061 821 2061 821 2074.5 794 c 128,-1,266
 2088 767 2088 767 2134 680 c 1,238,239
EndSplineSet
EndChar

StartChar: u10582
Encoding: 66946 66946 16
Width: 2441
VWidth: 0
Flags: W
HStem: 2945 324<1766.29 2090.76>
VStem: 1024 217<609.77 1081.19> 1401 307<1015.44 1720 2478 2783.78> 1409 221<1016 1916.4>
LayerCount: 2
Fore
SplineSet
119 864 m 0,0,1
 109 863 109 863 102 862.5 c 128,-1,2
 95 862 95 862 89.5 869 c 128,-1,3
 84 876 84 876 80.5 881.5 c 128,-1,4
 77 887 77 887 74.5 899 c 128,-1,5
 72 911 72 911 71 920.5 c 128,-1,6
 70 930 70 930 69 944 c 128,-1,7
 68 958 68 958 67.5 968.5 c 128,-1,8
 67 979 67 979 67 993 c 128,-1,9
 67 1007 67 1007 66 1016 c 0,10,11
 64 1049 64 1049 68 1078 c 128,-1,12
 72 1107 72 1107 81 1145.5 c 128,-1,13
 90 1184 90 1184 94 1208 c 0,14,15
 103 1268 103 1268 134 1356.5 c 128,-1,16
 165 1445 165 1445 172 1470 c 0,17,18
 180 1498 180 1498 197 1574.5 c 128,-1,19
 214 1651 214 1651 233 1700 c 0,20,21
 238 1716 238 1716 243.5 1730 c 128,-1,22
 249 1744 249 1744 252.5 1753 c 128,-1,23
 256 1762 256 1762 264 1775.5 c 128,-1,24
 272 1789 272 1789 275.5 1794.5 c 128,-1,25
 279 1800 279 1800 290.5 1818 c 128,-1,26
 302 1836 302 1836 307 1843 c 0,27,28
 311 1849 311 1849 320 1862.5 c 128,-1,29
 329 1876 329 1876 332.5 1881 c 128,-1,30
 336 1886 336 1886 343.5 1896 c 128,-1,31
 351 1906 351 1906 356.5 1911 c 128,-1,32
 362 1916 362 1916 370.5 1923 c 128,-1,33
 379 1930 379 1930 388.5 1935.5 c 128,-1,34
 398 1941 398 1941 410 1946 c 0,35,36
 464 1966 464 1966 489 1972.5 c 128,-1,37
 514 1979 514 1979 561 1982 c 0,38,39
 627 1986 627 1986 737 1966 c 0,40,41
 791 1954 791 1954 822 1938 c 128,-1,42
 853 1922 853 1922 897 1884 c 0,43,44
 954 1832 954 1832 989 1783 c 128,-1,45
 1024 1734 1024 1734 1065 1655 c 0,46,47
 1071 1643 1071 1643 1076.5 1631.5 c 128,-1,48
 1082 1620 1082 1620 1086 1611 c 128,-1,49
 1090 1602 1090 1602 1094.5 1591 c 128,-1,50
 1099 1580 1099 1580 1101.5 1574 c 128,-1,51
 1104 1568 1104 1568 1108 1555.5 c 128,-1,52
 1112 1543 1112 1543 1114 1538.5 c 128,-1,53
 1116 1534 1116 1534 1120 1519.5 c 128,-1,54
 1124 1505 1124 1505 1125.5 1500.5 c 128,-1,55
 1127 1496 1127 1496 1132 1478 c 128,-1,56
 1137 1460 1137 1460 1139 1454 c 0,57,58
 1158 1386 1158 1386 1174.5 1277 c 128,-1,59
 1191 1168 1191 1168 1200 1126 c 0,60,61
 1236 965 1236 965 1241 823 c 0,62,63
 1241 819 1241 819 1241 811 c 0,64,65
 1241 760 1241 760 1242.5 729 c 128,-1,66
 1244 698 1244 698 1256.5 657.5 c 128,-1,67
 1269 617 1269 617 1294 606 c 0,68,69
 1329 595 1329 595 1371.5 640 c 128,-1,70
 1414 685 1414 685 1417 725 c 0,71,72
 1417 731 1417 731 1422.5 800 c 128,-1,73
 1428 869 1428 869 1427.5 883 c 128,-1,74
 1427 897 1427 897 1425 958 c 1,75,76
 1417 1019 1417 1019 1409 1212 c 0,77,78
 1403 1327 1403 1327 1409 1442 c 0,79,80
 1410 1526 1410 1526 1409.5 1552.5 c 128,-1,81
 1409 1579 1409 1579 1405.5 1650 c 128,-1,82
 1402 1721 1402 1721 1401 1761 c 0,83,84
 1395 1897 1395 1897 1401 2032 c 1,85,-1
 1401 2245 l 2,86,87
 1401 2261 1401 2261 1401 2283 c 1,88,89
 1356 2297 1356 2297 1297 2330 c 0,90,91
 1232 2365 1232 2365 1208 2376 c 0,92,93
 1188 2386 1188 2386 1131.5 2417.5 c 128,-1,94
 1075 2449 1075 2449 1032 2466 c 0,95,96
 847 2539 847 2539 737 2486 c 0,97,98
 723 2479 723 2479 705.5 2471 c 128,-1,99
 688 2463 688 2463 682 2460 c 128,-1,100
 676 2457 676 2457 666 2449.5 c 128,-1,101
 656 2442 656 2442 647 2431 c 128,-1,102
 638 2420 638 2420 623 2400 c 0,103,104
 613 2383 613 2383 613.5 2348 c 128,-1,105
 614 2313 614 2313 619.5 2278.5 c 128,-1,106
 625 2244 625 2244 621 2213.5 c 128,-1,107
 617 2183 617 2183 598 2175 c 0,108,109
 584 2169 584 2169 571.5 2169 c 128,-1,110
 559 2169 559 2169 550 2172.5 c 128,-1,111
 541 2176 541 2176 530.5 2186 c 128,-1,112
 520 2196 520 2196 513.5 2204.5 c 128,-1,113
 507 2213 507 2213 496 2228 c 0,114,115
 474 2260 474 2260 468.5 2285.5 c 128,-1,116
 463 2311 463 2311 471 2355 c 0,117,118
 482 2417 482 2417 497 2458 c 128,-1,119
 512 2499 512 2499 545 2564 c 0,120,121
 575 2619 575 2619 602.5 2652 c 128,-1,122
 630 2685 630 2685 680 2728 c 0,123,124
 717 2756 717 2756 747 2767.5 c 128,-1,125
 777 2779 777 2779 827 2785 c 0,126,127
 892 2793 892 2793 919.5 2792.5 c 128,-1,128
 947 2792 947 2792 1012 2785 c 0,129,130
 1048 2781 1048 2781 1077.5 2774 c 128,-1,131
 1107 2767 1107 2767 1142.5 2755 c 128,-1,132
 1178 2743 1178 2743 1208 2736 c 0,133,134
 1247 2727 1247 2727 1276 2714 c 128,-1,135
 1305 2701 1305 2701 1344 2678 c 128,-1,136
 1383 2655 1383 2655 1409 2642 c 0,137,138
 1422 2635 1422 2635 1437 2627 c 1,139,140
 1440 2633 1440 2633 1443 2641 c 0,141,142
 1454 2668 1454 2668 1462 2691 c 0,143,144
 1475 2727 1475 2727 1494.5 2798.5 c 128,-1,145
 1514 2870 1514 2870 1532 2916 c 0,146,147
 1536 2925 1536 2925 1548 2953 c 128,-1,148
 1560 2981 1560 2981 1564 2990 c 128,-1,149
 1568 2999 1568 2999 1578.5 3021 c 128,-1,150
 1589 3043 1589 3043 1596 3054.5 c 128,-1,151
 1603 3066 1603 3066 1614.5 3084.5 c 128,-1,152
 1626 3103 1626 3103 1638.5 3119.5 c 128,-1,153
 1651 3136 1651 3136 1667 3154 c 0,154,155
 1676 3166 1676 3166 1689.5 3177 c 128,-1,156
 1703 3188 1703 3188 1714.5 3196 c 128,-1,157
 1726 3204 1726 3204 1746 3214 c 128,-1,158
 1766 3224 1766 3224 1776.5 3229 c 128,-1,159
 1787 3234 1787 3234 1810 3243.5 c 128,-1,160
 1833 3253 1833 3253 1839 3256 c 0,161,162
 1863 3267 1863 3267 1873.5 3270 c 128,-1,163
 1884 3273 1884 3273 1887.5 3272 c 128,-1,164
 1891 3271 1891 3271 1903.5 3269.5 c 128,-1,165
 1916 3268 1916 3268 1937 3269 c 0,166,167
 1940 3272 1940 3272 1958 3269.5 c 128,-1,168
 1976 3267 1976 3267 1980 3267 c 128,-1,169
 1984 3267 1984 3267 2002.5 3262.5 c 128,-1,170
 2021 3258 2021 3258 2025 3257 c 128,-1,171
 2029 3256 2029 3256 2047 3250.5 c 128,-1,172
 2065 3245 2065 3245 2068 3244 c 0,173,174
 2119 3233 2119 3233 2148.5 3217.5 c 128,-1,175
 2178 3202 2178 3202 2228 3166 c 0,176,177
 2293 3122 2293 3122 2327 3039 c 0,178,179
 2369 2935 2369 2935 2380 2822 c 0,180,181
 2382 2801 2382 2801 2383 2783 c 128,-1,182
 2384 2765 2384 2765 2383 2744 c 128,-1,183
 2382 2723 2382 2723 2381 2712.5 c 128,-1,184
 2380 2702 2380 2702 2376.5 2673.5 c 128,-1,185
 2373 2645 2373 2645 2372 2634 c 0,186,187
 2367 2588 2367 2588 2363 2566 c 128,-1,188
 2359 2544 2359 2544 2346 2514.5 c 128,-1,189
 2333 2485 2333 2485 2310 2458 c 0,190,191
 2238 2379 2238 2379 2164 2333 c 128,-1,192
 2090 2287 2090 2287 1974 2241 c 0,193,194
 1910 2216 1910 2216 1850 2212 c 128,-1,195
 1790 2208 1790 2208 1720 2216 c 0,196,197
 1713 2217 1713 2217 1705 2217 c 1,198,199
 1708 2084 1708 2084 1708 2032 c 0,200,201
 1708 2015 1708 2015 1709.5 1877.5 c 128,-1,202
 1711 1740 1711 1740 1708 1720 c 0,203,204
 1707 1680 1707 1680 1705 1647.5 c 128,-1,205
 1703 1615 1703 1615 1698.5 1574 c 128,-1,206
 1694 1533 1694 1533 1692 1517 c 128,-1,207
 1690 1501 1690 1501 1681.5 1443 c 128,-1,208
 1673 1385 1673 1385 1671 1368 c 0,209,210
 1662 1301 1662 1301 1641 1113 c 2,211,-1
 1630 1016 l 1,212,-1
 1631 1040 l 1,213,214
 1628 1035 1628 1035 1607 931 c 0,215,216
 1568 735 1568 735 1552 680 c 0,217,218
 1542 648 1542 648 1527 586.5 c 128,-1,219
 1512 525 1512 525 1491 471 c 0,220,221
 1446 345 1446 345 1401 254 c 0,222,223
 1349 150 1349 150 1294 86 c 0,224,225
 1269 53 1269 53 1228 41 c 128,-1,226
 1187 29 1187 29 1126 25 c 1,227,228
 1050 25 1050 25 1032 86 c 0,229,230
 1018 138 1018 138 1017.5 191 c 128,-1,231
 1017 244 1017 244 1022 304.5 c 128,-1,232
 1027 365 1027 365 1024 410 c 128,-1,233
 1021 455 1021 455 1020 519 c 128,-1,234
 1019 583 1019 583 1016 636 c 128,-1,235
 1013 689 1013 689 1004 745 c 0,236,237
 975 918 975 918 942 1053 c 0,238,239
 932 1094 932 1094 915.5 1151 c 128,-1,240
 899 1208 899 1208 889 1249 c 0,241,242
 876 1296 876 1296 831 1384 c 0,243,244
 801 1443 801 1443 745 1499 c 0,245,246
 719 1525 719 1525 669 1561 c 128,-1,247
 619 1597 619 1597 594 1602 c 2,248,-1
 583 1605 l 1,249,250
 584 1604 584 1604 585 1603 c 0,251,252
 587 1598 587 1598 561 1593 c 0,253,254
 532 1587 532 1587 474 1552.5 c 128,-1,255
 416 1518 416 1518 393 1495 c 0,256,257
 339 1441 339 1441 326.5 1418 c 128,-1,258
 314 1395 314 1395 299 1323 c 0,259,260
 268 1186 268 1186 242 1098 c 0,261,262
 175 878 175 878 119 864 c 0,0,1
1694 2518 m 1,263,-1
 1729 2511 l 2,264,265
 1788 2497 1788 2497 1847 2511 c 0,266,267
 1867 2515 1867 2515 1884 2517.5 c 128,-1,268
 1901 2520 1901 2520 1906 2520.5 c 128,-1,269
 1911 2521 1911 2521 1921 2524 c 128,-1,270
 1931 2527 1931 2527 1940.5 2531.5 c 128,-1,271
 1950 2536 1950 2536 1974 2548 c 0,272,273
 2018 2571 2018 2571 2064.5 2646 c 128,-1,274
 2111 2721 2111 2721 2105 2769 c 0,275,276
 2104 2785 2104 2785 2102 2808 c 0,277,278
 2101 2843 2101 2843 2094 2854.5 c 128,-1,279
 2087 2866 2087 2866 2046 2903 c 0,280,281
 2043 2906 2043 2906 2041.5 2907.5 c 128,-1,282
 2040 2909 2040 2909 2037 2911.5 c 128,-1,283
 2034 2914 2034 2914 2032 2916 c 0,284,285
 1985 2958 1985 2958 1905 2945 c 1,286,287
 1838 2939 1838 2939 1794 2888 c 0,288,289
 1759 2847 1759 2847 1747 2832 c 128,-1,290
 1735 2817 1735 2817 1721.5 2789.5 c 128,-1,291
 1708 2762 1708 2762 1696 2720 c 0,292,293
 1688 2687 1688 2687 1686 2649 c 0,294,295
 1684 2612 1684 2612 1687 2582 c 0,296,297
 1690 2556 1690 2556 1694 2518 c 1,263,-1
EndSplineSet
EndChar

StartChar: u10583
Encoding: 66947 66947 17
Width: 2375
VWidth: 0
Flags: W
VStem: 1335 262<860.348 1487 2236 2807.44> 2093 221<2513.88 2923.5>
LayerCount: 2
Fore
SplineSet
90 889 m 0,0,1
 63 873 63 873 63 912 c 0,2,3
 63 926 63 926 68 962 c 0,4,5
 74 1003 74 1003 74 1020 c 0,6,7
 74 1063 74 1063 79.5 1127 c 128,-1,8
 85 1191 85 1191 86 1212 c 0,9,10
 93 1326 93 1326 102 1376 c 0,11,12
 109 1409 109 1409 116.5 1476.5 c 128,-1,13
 124 1544 124 1544 135 1585 c 0,14,15
 144 1622 144 1622 166 1665.5 c 128,-1,16
 188 1709 188 1709 197 1733 c 0,17,18
 204 1750 204 1750 214.5 1778.5 c 128,-1,19
 225 1807 225 1807 231.5 1822 c 128,-1,20
 238 1837 238 1837 252.5 1858 c 128,-1,21
 267 1879 267 1879 287 1896 c 0,22,23
 327 1930 327 1930 363.5 1945 c 128,-1,24
 400 1960 400 1960 463 1974 c 0,25,26
 524 1985 524 1985 559 1984.5 c 128,-1,27
 594 1984 594 1984 655 1974 c 0,28,29
 697 1968 697 1968 721 1959.5 c 128,-1,30
 745 1951 745 1951 782 1929 c 0,31,32
 836 1899 836 1899 868.5 1872.5 c 128,-1,33
 901 1846 901 1846 930 1806 c 0,34,35
 990 1724 990 1724 1023 1664.5 c 128,-1,36
 1056 1605 1056 1605 1085 1520 c 0,37,38
 1107 1462 1107 1462 1117 1408 c 128,-1,39
 1127 1354 1127 1354 1134.5 1285.5 c 128,-1,40
 1142 1217 1142 1217 1151 1171 c 2,41,-1
 1207 813 l 1,42,43
 1204 823 1204 823 1197 796 c 0,44,45
 1173 711 1173 711 1164 567 c 0,46,47
 1152 394 1152 394 1192 385 c 0,48,49
 1212 381 1212 381 1241 432.5 c 128,-1,50
 1270 484 1270 484 1294.5 554 c 128,-1,51
 1319 624 1319 624 1338 687 c 128,-1,52
 1357 750 1357 750 1360 774 c 0,53,54
 1367 819 1367 819 1367 860.5 c 128,-1,55
 1367 902 1367 902 1363.5 953.5 c 128,-1,56
 1360 1005 1360 1005 1360 1040 c 0,57,58
 1360 1106 1360 1106 1352.5 1207 c 128,-1,59
 1345 1308 1345 1308 1343 1356 c 0,60,61
 1335 1634 1335 1634 1335 1712 c 2,62,-1
 1335 1917 l 1,63,-1
 1335 2167 l 2,64,65
 1335 2172 1335 2172 1333.5 2267 c 128,-1,66
 1332 2362 1332 2362 1335 2367 c 0,67,68
 1339 2443 1339 2443 1368 2601 c 0,69,70
 1375 2639 1375 2639 1390 2693 c 128,-1,71
 1405 2747 1405 2747 1409 2765 c 0,72,73
 1415 2787 1415 2787 1424 2828 c 128,-1,74
 1433 2869 1433 2869 1442 2898.5 c 128,-1,75
 1451 2928 1451 2928 1466 2961 c 0,76,77
 1478 2993 1478 2993 1493 3017 c 128,-1,78
 1508 3041 1508 3041 1521.5 3056 c 128,-1,79
 1535 3071 1535 3071 1565 3101 c 0,80,81
 1609 3152 1609 3152 1643 3178.5 c 128,-1,82
 1677 3205 1677 3205 1737 3232 c 0,83,84
 1785 3253 1785 3253 1818 3259 c 128,-1,85
 1851 3265 1851 3265 1909 3265 c 0,86,87
 1992 3265 1992 3265 2073 3224 c 0,88,89
 2087 3216 2087 3216 2115 3201.5 c 128,-1,90
 2143 3187 2143 3187 2157 3179 c 128,-1,91
 2171 3171 2171 3171 2191 3157 c 128,-1,92
 2211 3143 2211 3143 2224.5 3126 c 128,-1,93
 2238 3109 2238 3109 2249 3088 c 0,94,95
 2280 3031 2280 3031 2295 2972 c 128,-1,96
 2310 2913 2310 2913 2312 2873 c 128,-1,97
 2314 2833 2314 2833 2314 2744 c 0,98,99
 2314 2678 2314 2678 2304 2634.5 c 128,-1,100
 2294 2591 2294 2591 2261 2552 c 0,101,102
 2232 2515 2232 2515 2191.5 2484 c 128,-1,103
 2151 2453 2151 2453 2118 2458 c 0,104,105
 2096 2463 2096 2463 2091 2496.5 c 128,-1,106
 2086 2530 2086 2530 2090 2587 c 128,-1,107
 2094 2644 2094 2644 2093 2662 c 0,108,109
 2092 2678 2092 2678 2091 2696.5 c 128,-1,110
 2090 2715 2090 2715 2090 2724 c 128,-1,111
 2090 2733 2090 2733 2087.5 2749 c 128,-1,112
 2085 2765 2085 2765 2081 2785 c 0,113,114
 2060 2885 2060 2885 1991 2937 c 0,115,116
 1953 2966 1953 2966 1892.5 2968.5 c 128,-1,117
 1832 2971 1832 2971 1794 2941 c 0,118,119
 1722 2881 1722 2881 1679.5 2799 c 128,-1,120
 1637 2717 1637 2717 1610 2609 c 0,121,122
 1588 2515 1588 2515 1583.5 2424 c 128,-1,123
 1579 2333 1579 2333 1585 2236 c 0,124,125
 1586 2196 1586 2196 1591.5 2071.5 c 128,-1,126
 1597 1947 1597 1947 1597 1864 c 0,127,128
 1595 1804 1595 1804 1604 1675.5 c 128,-1,129
 1613 1547 1613 1547 1602 1487 c 1,130,131
 1572 1226 1572 1226 1536 1032 c 0,132,133
 1526 976 1526 976 1509.5 867.5 c 128,-1,134
 1493 759 1493 759 1476.5 686 c 128,-1,135
 1460 613 1460 613 1430 528 c 0,136,137
 1414 486 1414 486 1394.5 421 c 128,-1,138
 1375 356 1375 356 1355.5 309.5 c 128,-1,139
 1336 263 1336 263 1303 213 c 0,140,141
 1287 188 1287 188 1269.5 150 c 128,-1,142
 1252 112 1252 112 1234.5 89.5 c 128,-1,143
 1217 67 1217 67 1184 49 c 0,144,145
 1143 22 1143 22 1088.5 27.5 c 128,-1,146
 1034 33 1034 33 1008 74 c 0,147,148
 975 120 975 120 964 176 c 128,-1,149
 953 232 953 232 958 282.5 c 128,-1,150
 963 333 963 333 958 401 c 0,151,152
 954 466 954 466 958 568.5 c 128,-1,153
 962 671 962 671 958 737 c 0,154,155
 948 904 948 904 909 1081 c 0,156,157
 904 1102 904 1102 898.5 1121 c 128,-1,158
 893 1140 893 1140 886 1160.5 c 128,-1,159
 879 1181 879 1181 875 1193 c 128,-1,160
 871 1205 871 1205 861 1228.5 c 128,-1,161
 851 1252 851 1252 847.5 1260.5 c 128,-1,162
 844 1269 844 1269 831.5 1298 c 128,-1,163
 819 1327 819 1327 815 1335 c 0,164,165
 805 1357 805 1357 792.5 1390.5 c 128,-1,166
 780 1424 780 1424 772.5 1442 c 128,-1,167
 765 1460 765 1460 748.5 1484 c 128,-1,168
 732 1508 732 1508 709 1528 c 0,169,170
 668 1562 668 1562 633.5 1576.5 c 128,-1,171
 599 1591 599 1591 553 1585 c 0,172,173
 540 1583 540 1583 528 1580.5 c 128,-1,174
 516 1578 516 1578 504 1573 c 128,-1,175
 492 1568 492 1568 484 1565 c 128,-1,176
 476 1562 476 1562 464 1554 c 128,-1,177
 452 1546 452 1546 446.5 1543 c 128,-1,178
 441 1540 441 1540 427.5 1529 c 128,-1,179
 414 1518 414 1518 410 1514.5 c 128,-1,180
 406 1511 406 1511 389.5 1497 c 128,-1,181
 373 1483 373 1483 369 1479 c 0,182,183
 327 1437 327 1437 308.5 1383 c 128,-1,184
 290 1329 290 1329 276.5 1252 c 128,-1,185
 263 1175 263 1175 246 1126 c 0,186,187
 228 1077 228 1077 218.5 1053.5 c 128,-1,188
 209 1030 209 1030 190.5 996 c 128,-1,189
 172 962 172 962 148 937.5 c 128,-1,190
 124 913 124 913 90 889 c 0,0,1
1207 813 m 1,191,192
 1208 811 1208 811 1208 807 c 1,193,-1
 1207 813 l 1,191,192
EndSplineSet
EndChar

StartChar: u10584
Encoding: 66948 66948 18
Width: 1941
VWidth: 0
Flags: W
HStem: 8 144<434.258 1053.79>
VStem: 1507 361<706.05 1734.6>
LayerCount: 2
Fore
SplineSet
1208 2728 m 0,0,1
 1184 2733 1184 2733 1167.5 2744.5 c 128,-1,2
 1151 2756 1151 2756 1139 2777 c 128,-1,3
 1127 2798 1127 2798 1120.5 2815 c 128,-1,4
 1114 2832 1114 2832 1105 2864 c 128,-1,5
 1096 2896 1096 2896 1090 2912 c 0,6,7
 1084 2929 1084 2929 1078.5 2942 c 128,-1,8
 1073 2955 1073 2955 1069 2961.5 c 128,-1,9
 1065 2968 1065 2968 1056 2981.5 c 128,-1,10
 1047 2995 1047 2995 1040 3006 c 0,11,12
 995 3072 995 3072 942 3072 c 0,13,14
 934 3072 934 3072 927.5 3072.5 c 128,-1,15
 921 3073 921 3073 918.5 3073 c 128,-1,16
 916 3073 916 3073 914 3073.5 c 128,-1,17
 912 3074 912 3074 911.5 3074 c 128,-1,18
 911 3074 911 3074 908.5 3073 c 128,-1,19
 906 3072 906 3072 904 3070.5 c 128,-1,20
 902 3069 902 3069 895.5 3066 c 128,-1,21
 889 3063 889 3063 881 3060 c 0,22,23
 870 3056 870 3056 854 3050 c 0,24,25
 830 3042 830 3042 822.5 3037 c 128,-1,26
 815 3032 815 3032 794 3010 c 0,27,28
 792 3008 792 3008 791 3007 c 128,-1,29
 790 3006 790 3006 788.5 3004.5 c 128,-1,30
 787 3003 787 3003 785.5 3001.5 c 128,-1,31
 784 3000 784 3000 782 2998 c 0,32,33
 771 2987 771 2987 763 2977.5 c 128,-1,34
 755 2968 755 2968 749 2961 c 128,-1,35
 743 2954 743 2954 738 2944 c 128,-1,36
 733 2934 733 2934 730 2929 c 128,-1,37
 727 2924 727 2924 723 2911.5 c 128,-1,38
 719 2899 719 2899 717.5 2894 c 128,-1,39
 716 2889 716 2889 711.5 2872 c 128,-1,40
 707 2855 707 2855 705 2847 c 0,41,42
 674 2728 674 2728 661 2646.5 c 128,-1,43
 648 2565 648 2565 639 2441 c 0,44,45
 637 2416 637 2416 633 2382 c 1,46,47
 712 2386 712 2386 774 2384 c 0,48,49
 882 2382 882 2382 1040 2363 c 0,50,51
 1084 2357 1084 2357 1127.5 2343.5 c 128,-1,52
 1171 2330 1171 2330 1195.5 2319.5 c 128,-1,53
 1220 2309 1220 2309 1278 2281 c 0,54,55
 1305 2267 1305 2267 1354 2244 c 128,-1,56
 1403 2221 1403 2221 1428 2207.5 c 128,-1,57
 1453 2194 1453 2194 1490.5 2169 c 128,-1,58
 1528 2144 1528 2144 1561 2114 c 0,59,60
 1621 2057 1621 2057 1659 2003.5 c 128,-1,61
 1697 1950 1697 1950 1745 1864 c 0,62,63
 1788 1786 1788 1786 1805 1753 c 128,-1,64
 1822 1720 1822 1720 1841 1662 c 128,-1,65
 1860 1604 1860 1604 1868 1540 c 0,66,67
 1877 1457 1877 1457 1879.5 1390 c 128,-1,68
 1882 1323 1882 1323 1876.5 1251 c 128,-1,69
 1871 1179 1871 1179 1863 1122.5 c 128,-1,70
 1855 1066 1855 1066 1839 967 c 0,71,72
 1815 824 1815 824 1788 734.5 c 128,-1,73
 1761 645 1761 645 1700 532 c 1,74,75
 1627 409 1627 409 1595 369 c 0,76,77
 1554 317 1554 317 1495 270 c 0,78,79
 1453 237 1453 237 1419.5 217 c 128,-1,80
 1386 197 1386 197 1338 173 c 128,-1,81
 1290 149 1290 149 1257 131 c 0,82,83
 1198 104 1198 104 1057 57 c 0,84,85
 977 33 977 33 872 20 c 0,86,87
 749 8 749 8 668 8 c 0,88,89
 606 8 606 8 567 14.5 c 128,-1,90
 528 21 528 21 463 41 c 0,91,92
 402 60 402 60 365.5 80 c 128,-1,93
 329 100 329 100 279 143 c 0,94,95
 244 173 244 173 229.5 186.5 c 128,-1,96
 215 200 215 200 196.5 221 c 128,-1,97
 178 242 178 242 160 270 c 0,98,99
 127 320 127 320 112 350.5 c 128,-1,100
 97 381 97 381 86 426 c 0,101,102
 64 516 64 516 98 606 c 0,103,104
 106 626 106 626 110 653 c 128,-1,105
 114 680 114 680 117 695.5 c 128,-1,106
 120 711 120 711 127 713 c 0,107,108
 141 716 141 716 151.5 710.5 c 128,-1,109
 162 705 162 705 169 691.5 c 128,-1,110
 176 678 176 678 180.5 664 c 128,-1,111
 185 650 185 650 190.5 629.5 c 128,-1,112
 196 609 196 609 201 598 c 0,113,114
 216 564 216 564 237.5 482.5 c 128,-1,115
 259 401 259 401 291 352 c 0,116,117
 317 306 317 306 346 281 c 128,-1,118
 375 256 375 256 430 225 c 0,119,120
 478 198 478 198 500.5 187 c 128,-1,121
 523 176 523 176 560.5 165 c 128,-1,122
 598 154 598 154 639 152 c 0,123,124
 733 143 733 143 816 151 c 128,-1,125
 899 159 899 159 987 193 c 0,126,127
 1079 231 1079 231 1137 272 c 128,-1,128
 1195 313 1195 313 1249 381 c 0,129,130
 1328 485 1328 485 1369 577 c 128,-1,131
 1410 669 1410 669 1450 811 c 0,132,133
 1490 946 1490 946 1500 1051 c 128,-1,134
 1510 1156 1510 1156 1507 1323 c 0,135,136
 1504 1439 1504 1439 1489.5 1515.5 c 128,-1,137
 1475 1592 1475 1592 1434 1692 c 1,138,139
 1395 1799 1395 1799 1355.5 1871 c 128,-1,140
 1316 1943 1316 1943 1249 2023 c 0,141,142
 1231 2043 1231 2043 1214 2059 c 128,-1,143
 1197 2075 1197 2075 1176.5 2090.5 c 128,-1,144
 1156 2106 1156 2106 1142.5 2115.5 c 128,-1,145
 1129 2125 1129 2125 1103.5 2139 c 128,-1,146
 1078 2153 1078 2153 1067 2159 c 128,-1,147
 1056 2165 1056 2165 1023.5 2181.5 c 128,-1,148
 991 2198 991 2198 979 2204 c 0,149,150
 925 2231 925 2231 890 2241.5 c 128,-1,151
 855 2252 855 2252 791 2261 c 0,152,153
 740 2268 740 2268 639 2261 c 0,154,155
 633 2260 633 2260 618 2259 c 1,156,157
 608 2183 608 2183 594 2085 c 0,158,159
 585 2020 585 2020 563 1950 c 128,-1,160
 541 1880 541 1880 527 1846 c 128,-1,161
 513 1812 513 1812 471 1716 c 0,162,163
 462 1692 462 1692 446 1676 c 128,-1,164
 430 1660 430 1660 407 1652 c 128,-1,165
 384 1644 384 1644 361 1641 c 128,-1,166
 338 1638 338 1638 307 1638 c 0,167,168
 245 1635 245 1635 203 1650.5 c 128,-1,169
 161 1666 161 1666 119 1708 c 0,170,171
 112 1715 112 1715 106 1723.5 c 128,-1,172
 100 1732 100 1732 95.5 1738.5 c 128,-1,173
 91 1745 91 1745 87 1755.5 c 128,-1,174
 83 1766 83 1766 80.5 1771.5 c 128,-1,175
 78 1777 78 1777 75.5 1790 c 128,-1,176
 73 1803 73 1803 72 1807 c 128,-1,177
 71 1811 71 1811 70 1826.5 c 128,-1,178
 69 1842 69 1842 68.5 1844.5 c 128,-1,179
 68 1847 68 1847 67 1865 c 128,-1,180
 66 1883 66 1883 66 1884 c 0,181,182
 63 1944 63 1944 72.5 1983.5 c 128,-1,183
 82 2023 82 2023 111 2081 c 1,184,185
 153 2151 153 2151 197.5 2199.5 c 128,-1,186
 242 2248 242 2248 307 2298 c 1,187,188
 364 2336 364 2336 404 2351 c 0,189,190
 413 2354 413 2354 423 2357 c 1,191,192
 424 2390 424 2390 424 2424 c 0,193,194
 426 2570 426 2570 430 2662 c 0,195,196
 430 2667 430 2667 431.5 2696 c 128,-1,197
 433 2725 433 2725 433.5 2731 c 128,-1,198
 434 2737 434 2737 435.5 2760 c 128,-1,199
 437 2783 437 2783 438.5 2793.5 c 128,-1,200
 440 2804 440 2804 443 2823 c 128,-1,201
 446 2842 446 2842 450 2858 c 128,-1,202
 454 2874 454 2874 459 2892 c 0,203,204
 465 2909 465 2909 476.5 2948 c 128,-1,205
 488 2987 488 2987 494.5 3005 c 128,-1,206
 501 3023 501 3023 513 3052 c 128,-1,207
 525 3081 525 3081 541 3105 c 128,-1,208
 557 3129 557 3129 578 3154 c 0,209,210
 622 3205 622 3205 665 3229.5 c 128,-1,211
 708 3254 708 3254 770 3260 c 1,212,213
 862 3275 862 3275 947.5 3272 c 128,-1,214
 1033 3269 1033 3269 1122 3236 c 0,215,216
 1195 3210 1195 3210 1246 3172.5 c 128,-1,217
 1297 3135 1297 3135 1339 3072 c 1,218,219
 1368 3018 1368 3018 1367.5 2974.5 c 128,-1,220
 1367 2931 1367 2931 1343 2871 c 0,221,222
 1322 2820 1322 2820 1284 2771.5 c 128,-1,223
 1246 2723 1246 2723 1208 2728 c 0,0,1
419 2215 m 1,224,225
 408 2212 408 2212 400 2209 c 0,226,227
 382 2203 382 2203 356 2188 c 128,-1,228
 330 2173 330 2173 307 2150 c 0,229,230
 289 2132 289 2132 275 2112.5 c 128,-1,231
 261 2093 261 2093 252.5 2080 c 128,-1,232
 244 2067 244 2067 235 2042 c 128,-1,233
 226 2017 226 2017 223.5 2007 c 128,-1,234
 221 1997 221 1997 212.5 1964 c 128,-1,235
 204 1931 204 1931 201 1921 c 0,236,237
 200 1916 200 1916 196.5 1901 c 128,-1,238
 193 1886 193 1886 192.5 1881.5 c 128,-1,239
 192 1877 192 1877 190 1864 c 128,-1,240
 188 1851 188 1851 188 1846 c 128,-1,241
 188 1841 188 1841 188.5 1830.5 c 128,-1,242
 189 1820 189 1820 192 1813 c 128,-1,243
 195 1806 195 1806 199 1796.5 c 128,-1,244
 203 1787 203 1787 209 1778 c 0,245,246
 233 1747 233 1747 265.5 1734.5 c 128,-1,247
 298 1722 298 1722 328 1741 c 0,248,249
 337 1748 337 1748 345 1755 c 128,-1,250
 353 1762 353 1762 359 1771 c 128,-1,251
 365 1780 365 1780 369.5 1786.5 c 128,-1,252
 374 1793 374 1793 378 1805.5 c 128,-1,253
 382 1818 382 1818 384.5 1824 c 128,-1,254
 387 1830 387 1830 389.5 1845 c 128,-1,255
 392 1860 392 1860 393 1865.5 c 128,-1,256
 394 1871 394 1871 397 1889.5 c 128,-1,257
 400 1908 400 1908 401 1913 c 0,258,259
 410 1959 410 1959 413 1999 c 128,-1,260
 416 2039 416 2039 416.5 2097.5 c 128,-1,261
 417 2156 417 2156 418 2183 c 0,262,263
 418 2198 418 2198 419 2215 c 1,224,225
EndSplineSet
EndChar

StartChar: u10585
Encoding: 66949 66949 19
Width: 1843
VWidth: 0
Flags: W
VStem: 33 352<1516.04 2003 2499 2885.15> 700 78<2002.03 2286 2679 2948.65> 1102 348<-499.811 582.786>
LayerCount: 2
Fore
SplineSet
70 496 m 0,0,1
 26 490 26 490 18 513 c 128,-1,2
 10 536 10 536 33 582 c 0,3,4
 54 618 54 618 101.5 652 c 128,-1,5
 149 686 149 686 204.5 720.5 c 128,-1,6
 260 755 260 755 287 782 c 0,7,8
 326 820 326 820 357 860 c 0,9,10
 360 864 360 864 364 869 c 1,11,12
 347 902 347 902 336 922 c 0,13,14
 319 951 319 951 303 983 c 128,-1,15
 287 1015 287 1015 277.5 1035.5 c 128,-1,16
 268 1056 268 1056 253 1096 c 128,-1,17
 238 1136 238 1136 233.5 1148 c 128,-1,18
 229 1160 229 1160 212 1209.5 c 128,-1,19
 195 1259 195 1259 193 1266 c 0,20,21
 130 1471 130 1471 86 1667 c 0,22,23
 41 1870 41 1870 33 2003 c 0,24,25
 29 2058 29 2058 27.5 2111.5 c 128,-1,26
 26 2165 26 2165 26 2202.5 c 128,-1,27
 26 2240 26 2240 29 2298 c 128,-1,28
 32 2356 32 2356 34 2383.5 c 128,-1,29
 36 2411 36 2411 41.5 2483 c 128,-1,30
 47 2555 47 2555 49 2585 c 0,31,32
 52 2649 52 2649 61 2693 c 128,-1,33
 70 2737 70 2737 94 2810 c 0,34,35
 103 2839 103 2839 114 2866.5 c 128,-1,36
 125 2894 125 2894 132 2908.5 c 128,-1,37
 139 2923 139 2923 157 2958.5 c 128,-1,38
 175 2994 175 2994 184 3011 c 0,39,40
 191 3024 191 3024 203.5 3049 c 128,-1,41
 216 3074 216 3074 222 3085.5 c 128,-1,42
 228 3097 228 3097 239.5 3114 c 128,-1,43
 251 3131 251 3131 264 3144 c 128,-1,44
 277 3157 277 3157 295 3170 c 0,45,46
 333 3202 333 3202 368.5 3218 c 128,-1,47
 404 3234 404 3234 455 3240 c 0,48,49
 498 3247 498 3247 535 3243 c 128,-1,50
 572 3239 572 3239 606 3219 c 0,51,52
 660 3187 660 3187 689.5 3151.5 c 128,-1,53
 719 3116 719 3116 737 3056 c 0,54,55
 758 2990 758 2990 768.5 2924 c 128,-1,56
 779 2858 779 2858 781 2819.5 c 128,-1,57
 783 2781 783 2781 786 2679 c 0,58,59
 790 2518 790 2518 778 2286 c 0,60,61
 773 2197 773 2197 751.5 2069.5 c 128,-1,62
 730 1942 730 1942 725 1905 c 0,63,64
 718 1859 718 1859 704 1739 c 128,-1,65
 690 1619 690 1619 676 1540 c 0,66,67
 647 1381 647 1381 594 1192 c 0,68,69
 581 1143 581 1143 565 1097 c 1,70,71
 592 1036 592 1036 609 1000 c 0,72,73
 627 962 627 962 661 913.5 c 128,-1,74
 695 865 695 865 737 831 c 0,75,76
 811 773 811 773 856 750.5 c 128,-1,77
 901 728 901 728 979 717 c 0,78,79
 1024 710 1024 710 1086 734.5 c 128,-1,80
 1148 759 1148 759 1204.5 778.5 c 128,-1,81
 1261 798 1261 798 1303 782 c 0,82,83
 1365 763 1365 763 1398 731.5 c 128,-1,84
 1431 700 1431 700 1450 639 c 0,85,86
 1467 589 1467 589 1467.5 538.5 c 128,-1,87
 1468 488 1468 488 1459.5 419.5 c 128,-1,88
 1451 351 1451 351 1450 319 c 0,89,90
 1440 77 1440 77 1452.5 -71 c 128,-1,91
 1465 -219 1465 -219 1528 -471 c 0,92,93
 1540 -517 1540 -517 1566 -537 c 128,-1,94
 1592 -557 1592 -557 1638 -557 c 0,95,96
 1660 -557 1660 -557 1711.5 -513 c 128,-1,97
 1763 -469 1763 -469 1786 -471 c 0,98,99
 1813 -474 1813 -474 1824 -511 c 128,-1,100
 1835 -548 1835 -548 1831 -578 c 0,101,102
 1813 -657 1813 -657 1679 -721 c 1,103,104
 1524 -805 1524 -805 1397 -795 c 0,105,106
 1337 -789 1337 -789 1298.5 -763.5 c 128,-1,107
 1260 -738 1260 -738 1229 -684 c 0,108,109
 1200 -638 1200 -638 1181.5 -582.5 c 128,-1,110
 1163 -527 1163 -527 1156.5 -490.5 c 128,-1,111
 1150 -454 1150 -454 1139 -381 c 0,112,113
 1137 -365 1137 -365 1128 -306.5 c 128,-1,114
 1119 -248 1119 -248 1117 -229 c 128,-1,115
 1115 -210 1115 -210 1110 -166 c 128,-1,116
 1105 -122 1105 -122 1103.5 -85 c 128,-1,117
 1102 -48 1102 -48 1102 -4 c 0,118,119
 1102 52 1102 52 1109 110 c 128,-1,120
 1116 168 1116 168 1123 202 c 128,-1,121
 1130 236 1130 236 1147 311 c 0,122,123
 1168 404 1168 404 1148 454 c 128,-1,124
 1128 504 1128 504 1061 561 c 0,125,126
 1030 588 1030 588 965.5 592.5 c 128,-1,127
 901 597 901 597 845 590 c 128,-1,128
 789 583 789 583 737 594 c 0,129,130
 705 601 705 601 666 605.5 c 128,-1,131
 627 610 627 610 610.5 613.5 c 128,-1,132
 594 617 594 617 566.5 632 c 128,-1,133
 539 647 539 647 504 676 c 0,134,135
 469 706 469 706 444 736 c 0,136,137
 420 766 420 766 408 786 c 0,138,-1
 407 786 l 1,139,140
 402 778 402 778 396 770 c 0,141,142
 372 736 372 736 336 700 c 0,143,144
 317 681 317 681 275 635.5 c 128,-1,145
 233 590 233 590 211.5 569.5 c 128,-1,146
 190 549 190 549 151 526 c 128,-1,147
 112 503 112 503 70 496 c 0,0,1
529 1178 m 1,148,149
 531 1184 531 1184 532 1190 c 0,150,151
 538 1212 538 1212 549 1256 c 128,-1,152
 560 1300 560 1300 565 1319 c 0,153,154
 602 1461 602 1461 623 1606 c 0,155,156
 631 1665 631 1665 647.5 1755 c 128,-1,157
 664 1845 664 1845 672 1905 c 0,158,159
 679 1952 679 1952 684 1996.5 c 128,-1,160
 689 2041 689 2041 690.5 2063 c 128,-1,161
 692 2085 692 2085 695.5 2145 c 128,-1,162
 699 2205 699 2205 700 2228 c 0,163,164
 705 2315 705 2315 705 2429 c 0,165,166
 703 2474 703 2474 702.5 2554 c 128,-1,167
 702 2634 702 2634 700 2679 c 0,168,169
 694 2823 694 2823 672 2920 c 0,170,171
 666 2952 666 2952 645 2973 c 128,-1,172
 624 2994 624 2994 594 2994 c 0,173,174
 579 2995 579 2995 566.5 2991.5 c 128,-1,175
 554 2988 554 2988 546 2984 c 128,-1,176
 538 2980 538 2980 528.5 2969 c 128,-1,177
 519 2958 519 2958 514.5 2952 c 128,-1,178
 510 2946 510 2946 500.5 2930 c 128,-1,179
 491 2914 491 2914 487 2908 c 0,180,181
 479 2895 479 2895 473 2882.5 c 128,-1,182
 467 2870 467 2870 462.5 2861.5 c 128,-1,183
 458 2853 458 2853 453.5 2839 c 128,-1,184
 449 2825 449 2825 447 2819.5 c 128,-1,185
 445 2814 445 2814 441.5 2796.5 c 128,-1,186
 438 2779 438 2779 437 2775 c 128,-1,187
 436 2771 436 2771 431.5 2748 c 128,-1,188
 427 2725 427 2725 426 2720 c 0,189,190
 421 2696 421 2696 412 2661.5 c 128,-1,191
 403 2627 403 2627 399 2608.5 c 128,-1,192
 395 2590 395 2590 390.5 2560.5 c 128,-1,193
 386 2531 386 2531 385 2499 c 0,194,195
 382 2484 382 2484 383.5 2333 c 128,-1,196
 385 2182 385 2182 385 2167 c 0,197,198
 385 2154 385 2154 383.5 1997 c 128,-1,199
 382 1840 382 1840 385 1827 c 0,200,201
 390 1689 390 1689 426 1516 c 0,202,203
 431 1492 431 1492 441.5 1435.5 c 128,-1,204
 452 1379 452 1379 458 1354 c 128,-1,205
 464 1329 464 1329 479 1286 c 128,-1,206
 494 1243 494 1243 516 1204 c 0,207,208
 522 1193 522 1193 529 1178 c 1,148,149
EndSplineSet
EndChar

StartChar: u10587
Encoding: 66951 66951 20
Width: 2453
VWidth: 0
Flags: W
HStem: 16 332<1050.79 1583.28> 2646 102<1341.01 1699.75>
VStem: 2249 143<1215.66 2242.9>
LayerCount: 2
Fore
SplineSet
1840 2914 m 1,0,1
 1831 2924 1831 2924 1822 2933 c 0,2,3
 1803 2952 1803 2952 1778 2970 c 0,4,5
 1738 2998 1738 2998 1696 3015 c 0,6,7
 1685 3019 1685 3019 1651 3036 c 128,-1,8
 1617 3053 1617 3053 1589 3060 c 0,9,10
 1579 3063 1579 3063 1529 3085 c 128,-1,11
 1479 3107 1479 3107 1450 3109 c 0,12,13
 1432 3111 1432 3111 1415.5 3115 c 128,-1,14
 1399 3119 1399 3119 1380 3121 c 0,15,16
 1306 3129 1306 3129 1270 3129 c 0,17,18
 1186 3129 1186 3129 1143 3068 c 0,19,20
 1110 3024 1110 3024 1143 2970 c 0,21,22
 1154 2948 1154 2948 1171 2928.5 c 128,-1,23
 1188 2909 1188 2909 1211 2888 c 128,-1,24
 1234 2867 1234 2867 1245 2855 c 0,25,26
 1262 2836 1262 2836 1276 2827.5 c 128,-1,27
 1290 2819 1290 2819 1313.5 2810 c 128,-1,28
 1337 2801 1337 2801 1352 2793 c 0,29,30
 1416 2754 1416 2754 1487 2748 c 0,31,32
 1542 2745 1542 2745 1578.5 2752.5 c 128,-1,33
 1615 2760 1615 2760 1671 2785 c 0,34,35
 1722 2808 1722 2808 1751.5 2831 c 128,-1,36
 1781 2854 1781 2854 1831 2904 c 0,37,38
 1836 2909 1836 2909 1840 2914 c 1,0,1
1938 2802 m 1,39,40
 1918 2782 1918 2782 1908 2772 c 0,41,42
 1896 2761 1896 2761 1875 2744 c 128,-1,43
 1854 2727 1854 2727 1831 2712 c 0,44,45
 1747 2663 1747 2663 1671 2654 c 0,46,47
 1648 2650 1648 2650 1624.5 2648 c 128,-1,48
 1601 2646 1601 2646 1588.5 2645.5 c 128,-1,49
 1576 2645 1576 2645 1546 2645.5 c 128,-1,50
 1516 2646 1516 2646 1503 2646 c 0,51,52
 1413 2646 1413 2646 1364 2662 c 0,53,54
 1350 2667 1350 2667 1337.5 2672.5 c 128,-1,55
 1325 2678 1325 2678 1317.5 2681 c 128,-1,56
 1310 2684 1310 2684 1296.5 2692.5 c 128,-1,57
 1283 2701 1283 2701 1279.5 2703 c 128,-1,58
 1276 2705 1276 2705 1258.5 2717 c 128,-1,59
 1241 2729 1241 2729 1237 2732 c 0,60,61
 1158 2779 1158 2779 1110 2822 c 0,62,63
 1091 2840 1091 2840 1066 2874 c 128,-1,64
 1041 2908 1041 2908 1020 2925 c 0,65,66
 987 2948 987 2948 942 2929 c 0,67,68
 928 2923 928 2923 917.5 2918 c 128,-1,69
 907 2913 907 2913 897 2907.5 c 128,-1,70
 887 2902 887 2902 881.5 2899 c 128,-1,71
 876 2896 876 2896 867 2889 c 128,-1,72
 858 2882 858 2882 854.5 2879.5 c 128,-1,73
 851 2877 851 2877 841 2867.5 c 128,-1,74
 831 2858 831 2858 827.5 2854.5 c 128,-1,75
 824 2851 824 2851 810.5 2837.5 c 128,-1,76
 797 2824 797 2824 791 2818 c 0,77,78
 774 2802 774 2802 728.5 2766 c 128,-1,79
 683 2730 683 2730 659.5 2704.5 c 128,-1,80
 636 2679 636 2679 614 2642 c 0,81,82
 562 2563 562 2563 534 2493.5 c 128,-1,83
 506 2424 506 2424 479 2318 c 0,84,85
 468 2272 468 2272 439 2170.5 c 128,-1,86
 410 2069 410 2069 396.5 1997.5 c 128,-1,87
 383 1926 383 1926 381 1847 c 0,88,89
 378 1717 378 1717 392.5 1625.5 c 128,-1,90
 407 1534 407 1534 445 1379 c 0,91,92
 447 1370 447 1370 448.5 1365.5 c 128,-1,93
 450 1361 450 1361 451.5 1353 c 128,-1,94
 453 1345 453 1345 455 1339 c 0,95,96
 478 1225 478 1225 513 1141 c 128,-1,97
 548 1057 548 1057 614 942 c 0,98,99
 670 841 670 841 720 775.5 c 128,-1,100
 770 710 770 710 868 598 c 0,101,102
 932 522 932 522 988.5 479 c 128,-1,103
 1045 436 1045 436 1135 393 c 0,104,105
 1148 386 1148 386 1161 380 c 128,-1,106
 1174 374 1174 374 1184.5 369.5 c 128,-1,107
 1195 365 1195 365 1210.5 361.5 c 128,-1,108
 1226 358 1226 358 1234 356 c 128,-1,109
 1242 354 1242 354 1260 352.5 c 128,-1,110
 1278 351 1278 351 1283.5 350 c 128,-1,111
 1289 349 1289 349 1309.5 348.5 c 128,-1,112
 1330 348 1330 348 1334 348 c 128,-1,113
 1338 348 1338 348 1362 348 c 128,-1,114
 1386 348 1386 348 1389 348 c 0,115,116
 1501 348 1501 348 1618 393 c 0,117,118
 1693 419 1693 419 1749 475 c 0,119,120
 1780 504 1780 504 1809 535 c 128,-1,121
 1838 566 1838 566 1851.5 581 c 128,-1,122
 1865 596 1865 596 1902 639.5 c 128,-1,123
 1939 683 1939 683 1950 696 c 0,124,125
 2023 795 2023 795 2060 877 c 0,126,127
 2117 996 2117 996 2159 1143 c 0,128,129
 2196 1277 2196 1277 2220 1454 c 0,130,131
 2223 1474 2223 1474 2229 1513.5 c 128,-1,132
 2235 1553 2235 1553 2237.5 1571 c 128,-1,133
 2240 1589 2240 1589 2243.5 1619.5 c 128,-1,134
 2247 1650 2247 1650 2248 1677.5 c 128,-1,135
 2249 1705 2249 1705 2249 1737 c 0,136,137
 2249 1882 2249 1882 2228 2028 c 0,138,139
 2216 2122 2216 2122 2167 2281 c 0,140,141
 2160 2305 2160 2305 2144.5 2359 c 128,-1,142
 2129 2413 2129 2413 2117.5 2446.5 c 128,-1,143
 2106 2480 2106 2480 2089 2519 c 0,144,145
 2074 2557 2074 2557 2045 2609.5 c 128,-1,146
 2016 2662 2016 2662 2007 2679 c 0,147,148
 1983 2734 1983 2734 1962 2769 c 0,149,150
 1954 2782 1954 2782 1938 2802 c 1,39,40
1996 3210 m 1,151,152
 2008 3228 2008 3228 2019 3244 c 0,153,154
 2028 3257 2028 3257 2026 3248 c 0,155,156
 2025 3245 2025 3245 2023 3240 c 0,157,158
 2020 3232 2020 3232 2016 3224 c 1,159,160
 2061 3255 2061 3255 2097 3269 c 0,161,162
 2122 3277 2122 3277 2131.5 3238.5 c 128,-1,163
 2141 3200 2141 3200 2134 3166 c 0,164,165
 2123 3106 2123 3106 2111 3072.5 c 128,-1,166
 2099 3039 2099 3039 2068 2970 c 0,167,168
 2056 2941 2056 2941 2027 2902 c 1,169,170
 2030 2900 2030 2900 2036 2896 c 0,171,172
 2064 2874 2064 2874 2081 2847 c 0,173,174
 2137 2765 2137 2765 2168 2705 c 128,-1,175
 2199 2645 2199 2645 2249 2531 c 0,176,177
 2263 2498 2263 2498 2275 2460.5 c 128,-1,178
 2287 2423 2287 2423 2293.5 2399 c 128,-1,179
 2300 2375 2300 2375 2310.5 2327.5 c 128,-1,180
 2321 2280 2321 2280 2327 2257 c 0,181,182
 2335 2222 2335 2222 2354 2153 c 128,-1,183
 2373 2084 2373 2084 2381.5 2036 c 128,-1,184
 2390 1988 2390 1988 2392 1929 c 0,185,186
 2396 1808 2396 1808 2376 1593 c 0,187,188
 2372 1546 2372 1546 2365.5 1455 c 128,-1,189
 2359 1364 2359 1364 2351.5 1301.5 c 128,-1,190
 2344 1239 2344 1239 2327 1163 c 0,191,192
 2293 1013 2293 1013 2208 836 c 0,193,194
 2116 639 2116 639 2073 568 c 0,195,196
 2026 490 2026 490 1962 410 c 0,197,198
 1889 324 1889 324 1828 270 c 128,-1,199
 1767 216 1767 216 1671 156 c 0,200,201
 1576 95 1576 95 1490 63 c 128,-1,202
 1404 31 1404 31 1294 16 c 0,203,204
 1134 -9 1134 -9 942 57 c 0,205,206
 929 61 929 61 887 76 c 128,-1,207
 845 91 845 91 834 95 c 128,-1,208
 823 99 823 99 791 111.5 c 128,-1,209
 759 124 759 124 744.5 131.5 c 128,-1,210
 730 139 730 139 704.5 152.5 c 128,-1,211
 679 166 679 166 658 180.5 c 128,-1,212
 637 195 637 195 614 213 c 0,213,214
 535 274 535 274 472 343 c 128,-1,215
 409 412 409 412 340 508 c 0,216,217
 282 592 282 592 249 660.5 c 128,-1,218
 216 729 216 729 176 840 c 0,219,220
 134 962 134 962 114 1054.5 c 128,-1,221
 94 1147 94 1147 82 1278 c 0,222,223
 70 1398 70 1398 68 1503.5 c 128,-1,224
 66 1609 66 1609 69 1675.5 c 128,-1,225
 72 1742 72 1742 82 1901 c 0,226,227
 93 2053 93 2053 152 2200 c 0,228,229
 188 2298 188 2298 215 2357 c 128,-1,230
 242 2416 242 2416 287 2486 c 0,231,232
 295 2499 295 2499 320.5 2540 c 128,-1,233
 346 2581 346 2581 353.5 2593 c 128,-1,234
 361 2605 361 2605 381.5 2636.5 c 128,-1,235
 402 2668 402 2668 414.5 2686 c 128,-1,236
 427 2704 427 2704 446.5 2731 c 128,-1,237
 466 2758 466 2758 487 2785 c 0,238,239
 604 2924 604 2924 750 3047 c 0,240,241
 779 3070 779 3070 810 3090 c 128,-1,242
 841 3110 841 3110 860 3120.5 c 128,-1,243
 879 3131 879 3131 920.5 3151.5 c 128,-1,244
 962 3172 962 3172 983 3183 c 0,245,246
 1078 3226 1078 3226 1208 3244 c 0,247,248
 1280 3252 1280 3252 1306.5 3251.5 c 128,-1,249
 1333 3251 1333 3251 1405 3244 c 0,250,251
 1470 3237 1470 3237 1568.5 3195 c 128,-1,252
 1667 3153 1667 3153 1688 3146 c 0,253,254
 1703 3141 1703 3141 1722 3134 c 128,-1,255
 1741 3127 1741 3127 1751.5 3123.5 c 128,-1,256
 1762 3120 1762 3120 1777 3117 c 128,-1,257
 1792 3114 1792 3114 1809 3115 c 128,-1,258
 1826 3116 1826 3116 1847 3121 c 0,259,260
 1904 3138 1904 3138 1974 3194 c 0,261,262
 1985 3202 1985 3202 1996 3210 c 1,151,152
1916 3041 m 1,263,264
 1920 3048 1920 3048 1922 3054 c 0,265,266
 1928 3070 1928 3070 1934 3089 c 128,-1,267
 1940 3108 1940 3108 1946 3121 c 0,268,269
 1948 3124 1948 3124 1949 3127 c 1,270,271
 1938 3108 1938 3108 1930 3092 c 0,272,273
 1918 3068 1918 3068 1916 3041 c 1,263,264
EndSplineSet
EndChar

StartChar: u10588
Encoding: 66952 66952 21
Width: 2756
VWidth: 0
Flags: W
HStem: 86 168<2067.66 2512.8> 86 123<439.632 623 942 1353.43> 745 422<291.873 917.595> 1716 127<914.371 1269> 2204 77<269.283 474.742> 2945 303<660.665 1388.6>
VStem: 2560 135<319.012 507.413>
LayerCount: 2
Fore
SplineSet
504 2396 m 0,0,1
 531 2393 531 2393 546.5 2368 c 128,-1,2
 562 2343 562 2343 553 2318 c 0,3,4
 545 2293 545 2293 542 2285 c 128,-1,5
 539 2277 539 2277 531 2264 c 128,-1,6
 523 2251 523 2251 512 2244.5 c 128,-1,7
 501 2238 501 2238 483 2232 c 0,8,9
 397 2204 397 2204 324 2204 c 0,10,11
 300 2204 300 2204 266 2221 c 128,-1,12
 232 2238 232 2238 217 2257 c 0,13,14
 184 2302 184 2302 169.5 2338 c 128,-1,15
 155 2374 155 2374 152 2421 c 0,16,17
 149 2486 149 2486 155.5 2533.5 c 128,-1,18
 162 2581 162 2581 184 2642 c 0,19,20
 193 2671 193 2671 205 2699 c 128,-1,21
 217 2727 217 2727 224 2741 c 128,-1,22
 231 2755 231 2755 251.5 2791 c 128,-1,23
 272 2827 272 2827 279 2839 c 0,24,25
 293 2865 293 2865 312.5 2889.5 c 128,-1,26
 332 2914 332 2914 345.5 2928 c 128,-1,27
 359 2942 359 2942 386 2967.5 c 128,-1,28
 413 2993 413 2993 426 3006 c 0,29,30
 474 3054 474 3054 518.5 3084 c 128,-1,31
 563 3114 563 3114 631 3146 c 0,32,33
 661 3160 661 3160 692.5 3170.5 c 128,-1,34
 724 3181 724 3181 744 3186 c 128,-1,35
 764 3191 764 3191 801.5 3198.5 c 128,-1,36
 839 3206 839 3206 860 3211 c 0,37,38
 870 3213 870 3213 900 3220.5 c 128,-1,39
 930 3228 930 3228 940 3230 c 128,-1,40
 950 3232 950 3232 974 3237 c 128,-1,41
 998 3242 998 3242 1012.5 3243.5 c 128,-1,42
 1027 3245 1027 3245 1048 3246.5 c 128,-1,43
 1069 3248 1069 3248 1090 3248 c 0,44,45
 1133 3248 1133 3248 1147 3249 c 128,-1,46
 1161 3250 1161 3250 1198.5 3248 c 128,-1,47
 1236 3246 1236 3246 1248 3245 c 128,-1,48
 1260 3244 1260 3244 1299 3240.5 c 128,-1,49
 1338 3237 1338 3237 1356 3236 c 0,50,51
 1408 3231 1408 3231 1431 3228 c 128,-1,52
 1454 3225 1454 3225 1490 3216 c 128,-1,53
 1526 3207 1526 3207 1565 3191 c 0,54,55
 1629 3165 1629 3165 1665 3142.5 c 128,-1,56
 1701 3120 1701 3120 1749 3072 c 0,57,58
 1832 2989 1832 2989 1847 2908 c 0,59,60
 1873 2755 1873 2755 1851 2593 c 0,61,62
 1838 2497 1838 2497 1798 2367 c 0,63,64
 1766 2273 1766 2273 1700 2134 c 0,65,66
 1685 2104 1685 2104 1669 2076 c 0,67,68
 1656 2053 1656 2053 1646 2038 c 1,69,70
 1713 2020 1713 2020 1868 1944 c 1,71,-1
 1870 1943 l 2,72,73
 1874 1941 1874 1941 1886 1933 c 0,74,75
 2004 1860 2004 1860 2036 1823 c 0,76,77
 2080 1772 2080 1772 2103 1735 c 128,-1,78
 2126 1698 2126 1698 2150 1638 c 0,79,80
 2154 1627 2154 1627 2168.5 1591 c 128,-1,81
 2183 1555 2183 1555 2187.5 1541.5 c 128,-1,82
 2192 1528 2192 1528 2200.5 1501 c 128,-1,83
 2209 1474 2209 1474 2213.5 1452 c 128,-1,84
 2218 1430 2218 1430 2220 1405 c 0,85,86
 2230 1309 2230 1309 2220 1212 c 0,87,88
 2194 1011 2194 1011 2167 930 c 0,89,90
 2142 849 2142 849 2081 713 c 0,91,92
 2064 679 2064 679 2048.5 654 c 128,-1,93
 2033 629 2033 629 2006.5 591 c 128,-1,94
 1980 553 1980 553 1966 532 c 0,95,96
 1953 513 1953 513 1929.5 503.5 c 128,-1,97
 1906 494 1906 494 1892 479 c 1,98,99
 1942 417 1942 417 2055.5 345 c 128,-1,100
 2169 273 2169 273 2245 254 c 0,101,102
 2306 240 2306 240 2356.5 253.5 c 128,-1,103
 2407 267 2407 267 2474 307 c 1,104,105
 2531 336 2531 336 2560 426 c 0,106,107
 2561 430 2561 430 2564.5 440 c 128,-1,108
 2568 450 2568 450 2569.5 454.5 c 128,-1,109
 2571 459 2571 459 2574 467.5 c 128,-1,110
 2577 476 2577 476 2579 479.5 c 128,-1,111
 2581 483 2581 483 2584.5 489.5 c 128,-1,112
 2588 496 2588 496 2591.5 498.5 c 128,-1,113
 2595 501 2595 501 2599.5 504.5 c 128,-1,114
 2604 508 2604 508 2609 509 c 128,-1,115
 2614 510 2614 510 2620.5 510 c 128,-1,116
 2627 510 2627 510 2634 508 c 0,117,118
 2670 499 2670 499 2685.5 468 c 128,-1,119
 2701 437 2701 437 2695 393 c 0,120,121
 2691 354 2691 354 2676 322 c 128,-1,122
 2661 290 2661 290 2645 271.5 c 128,-1,123
 2629 253 2629 253 2593 217 c 0,124,125
 2553 177 2553 177 2524.5 157 c 128,-1,126
 2496 137 2496 137 2449 119 c 0,127,128
 2383 92 2383 92 2310 86 c 0,129,130
 2224 82 2224 82 2105 82 c 0,131,132
 2082 82 2082 82 2046.5 81.5 c 128,-1,133
 2011 81 2011 81 1991 81 c 128,-1,134
 1971 81 1971 81 1940.5 82 c 128,-1,135
 1910 83 1910 83 1880 86 c 0,136,137
 1783 98 1783 98 1630 152 c 0,138,139
 1600 162 1600 162 1578 174 c 0,140,141
 1562 183 1562 183 1542 196 c 1,142,143
 1533 192 1533 192 1523 187 c 0,144,145
 1494 174 1494 174 1480.5 168 c 128,-1,146
 1467 162 1467 162 1427 146.5 c 128,-1,147
 1387 131 1387 131 1376 127 c 0,148,149
 1346 117 1346 117 1321 110 c 128,-1,150
 1296 103 1296 103 1283.5 100 c 128,-1,151
 1271 97 1271 97 1236.5 91 c 128,-1,152
 1202 85 1202 85 1184 82 c 0,153,154
 1108 66 1108 66 1004 66 c 0,155,156
 948 65 948 65 930.5 65.5 c 128,-1,157
 913 66 913 66 864.5 69.5 c 128,-1,158
 816 73 816 73 791 74 c 0,159,160
 758 76 758 76 707 80 c 128,-1,161
 656 84 656 84 623 86 c 0,162,163
 572 90 572 90 487 111 c 128,-1,164
 402 132 402 132 319 168 c 0,165,166
 248 199 248 199 193 254 c 0,167,168
 130 317 130 317 102 410 c 0,169,170
 81 471 81 471 73.5 509.5 c 128,-1,171
 66 548 66 548 66 606 c 0,172,173
 66 696 66 696 94 811 c 0,174,175
 100 833 100 833 105.5 849 c 128,-1,176
 111 865 111 865 120.5 882.5 c 128,-1,177
 130 900 130 900 134.5 908.5 c 128,-1,178
 139 917 139 917 154 940.5 c 128,-1,179
 169 964 169 964 176 975 c 0,180,181
 214 1038 214 1038 262 1061 c 0,182,183
 346 1108 346 1108 446 1135 c 0,184,185
 564 1167 564 1167 651 1167 c 0,186,187
 741 1167 741 1167 784.5 1165.5 c 128,-1,188
 828 1164 828 1164 893 1152.5 c 128,-1,189
 958 1141 958 1141 1024 1118 c 0,190,191
 1066 1105 1066 1105 1105 1085.5 c 128,-1,192
 1144 1066 1144 1066 1168.5 1050 c 128,-1,193
 1193 1034 1193 1034 1235 1004.5 c 128,-1,194
 1277 975 1277 975 1303 958 c 0,195,196
 1461 859 1461 859 1630 737 c 0,197,198
 1664 713 1664 713 1683 699.5 c 128,-1,199
 1702 686 1702 686 1720.5 673 c 128,-1,200
 1739 660 1739 660 1752.5 647 c 128,-1,201
 1766 634 1766 634 1775 626 c 1,202,203
 1796 656 1796 656 1823 696 c 0,204,205
 1885 789 1885 789 1937 938 c 0,206,207
 1948 971 1948 971 1952 999 c 128,-1,208
 1956 1027 1956 1027 1958 1065 c 128,-1,209
 1960 1103 1960 1103 1962 1126 c 0,210,211
 1963 1137 1963 1137 1967.5 1171 c 128,-1,212
 1972 1205 1972 1205 1972.5 1210 c 128,-1,213
 1973 1215 1973 1215 1975 1249 c 128,-1,214
 1977 1283 1977 1283 1974 1294 c 0,215,216
 1969 1377 1969 1377 1937 1450 c 1,217,218
 1892 1538 1892 1538 1864 1573 c 0,219,220
 1847 1593 1847 1593 1824.5 1628 c 128,-1,221
 1802 1663 1802 1663 1786 1683 c 0,222,223
 1769 1705 1769 1705 1753.5 1722 c 128,-1,224
 1738 1739 1738 1739 1714.5 1760.5 c 128,-1,225
 1691 1782 1691 1782 1679 1794 c 0,226,227
 1664 1809 1664 1809 1650 1820 c 128,-1,228
 1636 1831 1636 1831 1617 1844.5 c 128,-1,229
 1598 1858 1598 1858 1585 1868 c 0,230,231
 1564 1882 1564 1882 1545 1894 c 1,232,233
 1532 1875 1532 1875 1518 1862 c 0,234,235
 1494 1837 1494 1837 1450 1806 c 0,236,237
 1410 1776 1410 1776 1380.5 1760.5 c 128,-1,238
 1351 1745 1351 1745 1311 1737 c 0,239,240
 1203 1716 1203 1716 1110 1716 c 0,241,242
 1086 1716 1086 1716 1064.5 1718 c 128,-1,243
 1043 1720 1043 1720 1032 1721.5 c 128,-1,244
 1021 1723 1021 1723 992 1729 c 128,-1,245
 963 1735 963 1735 950 1737 c 0,246,247
 906 1746 906 1746 878.5 1758.5 c 128,-1,248
 851 1771 851 1771 815 1798 c 0,249,250
 773 1830 773 1830 762 1888 c 0,251,252
 755 1922 755 1922 755.5 1950.5 c 128,-1,253
 756 1979 756 1979 770 2007 c 0,254,255
 810 2085 810 2085 872 2105 c 0,256,257
 929 2125 929 2125 976.5 2129 c 128,-1,258
 1024 2133 1024 2133 1098 2130 c 0,259,260
 1155 2128 1155 2128 1205 2120 c 128,-1,261
 1255 2112 1255 2112 1315.5 2098 c 128,-1,262
 1376 2084 1376 2084 1417 2077 c 1,263,264
 1447 2129 1447 2129 1479 2220 c 0,265,266
 1488 2245 1488 2245 1502 2278.5 c 128,-1,267
 1516 2312 1516 2312 1524 2337.5 c 128,-1,268
 1532 2363 1532 2363 1536 2396 c 0,269,270
 1541 2476 1541 2476 1540.5 2486 c 128,-1,271
 1540 2496 1540 2496 1536 2576 c 0,272,273
 1532 2622 1532 2622 1507 2699 c 0,274,275
 1491 2745 1491 2745 1477 2768.5 c 128,-1,276
 1463 2792 1463 2792 1434 2818 c 0,277,278
 1407 2845 1407 2845 1378 2863.5 c 128,-1,279
 1349 2882 1349 2882 1333 2889 c 128,-1,280
 1317 2896 1317 2896 1266 2916 c 0,281,282
 1199 2945 1199 2945 1126 2945 c 0,283,284
 1041 2946 1041 2946 1038 2945.5 c 128,-1,285
 1035 2945 1035 2945 950 2937 c 0,286,287
 859 2929 859 2929 827.5 2925.5 c 128,-1,288
 796 2922 796 2922 737.5 2910 c 128,-1,289
 679 2898 679 2898 623 2879 c 0,290,291
 560 2858 560 2858 516.5 2832.5 c 128,-1,292
 473 2807 473 2807 410 2757 c 0,293,294
 368 2727 368 2727 346 2702.5 c 128,-1,295
 324 2678 324 2678 299 2634 c 0,296,297
 279 2595 279 2595 271.5 2579.5 c 128,-1,298
 264 2564 264 2564 255 2534.5 c 128,-1,299
 246 2505 246 2505 242 2474 c 0,300,301
 234 2435 234 2435 237 2397.5 c 128,-1,302
 240 2360 240 2360 262 2327 c 0,303,304
 297 2281 297 2281 365 2281 c 0,305,306
 426 2281 426 2281 475 2318 c 0,307,308
 483 2323 483 2323 486 2337 c 128,-1,309
 489 2351 489 2351 488 2364.5 c 128,-1,310
 487 2378 487 2378 490.5 2387.5 c 128,-1,311
 494 2397 494 2397 504 2396 c 0,0,1
1350 1979 m 1,312,313
 1348 1980 1348 1980 1347 1980 c 0,314,315
 1311 1992 1311 1992 1284.5 1997.5 c 128,-1,316
 1258 2003 1258 2003 1221 2007 c 0,317,318
 1177 2014 1177 2014 1090 2007 c 0,319,320
 1082 2006 1082 2006 1058.5 2003 c 128,-1,321
 1035 2000 1035 2000 1026 1998.5 c 128,-1,322
 1017 1997 1017 1997 1000 1992.5 c 128,-1,323
 983 1988 983 1988 969.5 1982 c 128,-1,324
 956 1976 956 1976 942 1966 c 0,325,326
 917 1949 917 1949 907 1924.5 c 128,-1,327
 897 1900 897 1900 913 1876 c 0,328,329
 918 1869 918 1869 925 1864 c 128,-1,330
 932 1859 932 1859 937 1855.5 c 128,-1,331
 942 1852 942 1852 952 1849.5 c 128,-1,332
 962 1847 962 1847 966.5 1845.5 c 128,-1,333
 971 1844 971 1844 984 1843.5 c 128,-1,334
 997 1843 997 1843 1000 1843 c 128,-1,335
 1003 1843 1003 1843 1018.5 1843 c 128,-1,336
 1034 1843 1034 1843 1036 1843 c 0,337,338
 1101 1838 1101 1838 1192 1864 c 0,339,340
 1215 1871 1215 1871 1234 1881.5 c 128,-1,341
 1253 1892 1253 1892 1263 1900.5 c 128,-1,342
 1273 1909 1273 1909 1292 1926.5 c 128,-1,343
 1311 1944 1311 1944 1323 1954 c 0,344,345
 1331 1961 1331 1961 1338 1967 c 0,346,347
 1344 1973 1344 1973 1350 1979 c 1,312,313
1414 294 m 1,348,349
 1381 322 1381 322 1335 360 c 0,350,351
 1319 372 1319 372 1279.5 395 c 128,-1,352
 1240 418 1240 418 1212 446 c 0,353,354
 1198 458 1198 458 1187 468 c 128,-1,355
 1176 478 1176 478 1165 489 c 128,-1,356
 1154 500 1154 500 1148.5 506 c 128,-1,357
 1143 512 1143 512 1129.5 527 c 128,-1,358
 1116 542 1116 542 1110 549 c 128,-1,359
 1104 556 1104 556 1097 562.5 c 128,-1,360
 1090 569 1090 569 1085 574 c 128,-1,361
 1080 579 1080 579 1071.5 584.5 c 128,-1,362
 1063 590 1063 590 1059 593 c 128,-1,363
 1055 596 1055 596 1044 601 c 128,-1,364
 1033 606 1033 606 1030.5 607.5 c 128,-1,365
 1028 609 1028 609 1015 614 c 128,-1,366
 1002 619 1002 619 1000 619.5 c 128,-1,367
 998 620 998 620 983.5 625 c 128,-1,368
 969 630 969 630 967 631 c 0,369,370
 942 639 942 639 915 657.5 c 128,-1,371
 888 676 888 676 864 684 c 0,372,373
 797 712 797 712 729 721 c 0,374,375
 710 724 710 724 674.5 729.5 c 128,-1,376
 639 735 639 735 621 737.5 c 128,-1,377
 603 740 603 740 574 742.5 c 128,-1,378
 545 745 545 745 516 745 c 0,379,380
 441 745 441 745 365 729 c 0,381,382
 306 717 306 717 270 676 c 0,383,384
 237 634 237 634 225 561 c 0,385,386
 218 518 218 518 217.5 503.5 c 128,-1,387
 217 489 217 489 225 446 c 0,388,389
 227 437 227 437 232 427.5 c 128,-1,390
 237 418 237 418 245 408.5 c 128,-1,391
 253 399 253 399 258.5 393.5 c 128,-1,392
 264 388 264 388 274.5 377.5 c 128,-1,393
 285 367 285 367 287 365 c 0,394,395
 321 331 321 331 345.5 315.5 c 128,-1,396
 370 300 370 300 418 279 c 0,397,398
 464 259 464 259 494.5 251 c 128,-1,399
 525 243 525 243 586 233 c 0,400,401
 716 212 716 212 770 209 c 0,402,403
 856 204 856 204 942 209 c 0,404,405
 1062 215 1062 215 1155 233 c 0,406,407
 1181 238 1181 238 1242.5 246.5 c 128,-1,408
 1304 255 1304 255 1343 266 c 0,409,410
 1377 276 1377 276 1414 294 c 1,348,349
1870 1943 m 2,411,412
 1869 1944 l 1,413,414
 1884 1937 l 1,415,-1
 1870 1943 l 2,411,412
EndSplineSet
EndChar

StartChar: u10589
Encoding: 66953 66953 22
Width: 3203
VWidth: 0
Flags: W
HStem: 2212 176<1200.92 2038.79>
LayerCount: 2
Fore
SplineSet
2417 2220 m 0,0,1
 2428 2276 2428 2276 2441.5 2322.5 c 128,-1,2
 2455 2369 2455 2369 2478 2418.5 c 128,-1,3
 2501 2468 2501 2468 2515.5 2496 c 128,-1,4
 2530 2524 2530 2524 2565.5 2586.5 c 128,-1,5
 2601 2649 2601 2649 2617 2679 c 0,6,7
 2629 2701 2629 2701 2660.5 2761 c 128,-1,8
 2692 2821 2692 2821 2704.5 2842.5 c 128,-1,9
 2717 2864 2717 2864 2743.5 2905 c 128,-1,10
 2770 2946 2770 2946 2798 2976.5 c 128,-1,11
 2826 3007 2826 3007 2863 3039 c 0,12,13
 2971 3147 2971 3147 3109 3129 c 0,14,15
 3125 3127 3125 3127 3134 3118.5 c 128,-1,16
 3143 3110 3143 3110 3145 3095 c 128,-1,17
 3147 3080 3147 3080 3146 3067 c 128,-1,18
 3145 3054 3145 3054 3142 3032 c 128,-1,19
 3139 3010 3139 3010 3138 2998 c 0,20,21
 3136 2982 3136 2982 3128.5 2970 c 128,-1,22
 3121 2958 3121 2958 3108 2945 c 128,-1,23
 3095 2932 3095 2932 3088 2920 c 0,24,25
 3062 2881 3062 2881 3008.5 2786.5 c 128,-1,26
 2955 2692 2955 2692 2908 2634 c 0,27,28
 2875 2592 2875 2592 2814.5 2510.5 c 128,-1,29
 2754 2429 2754 2429 2723 2390.5 c 128,-1,30
 2692 2352 2692 2352 2636.5 2292.5 c 128,-1,31
 2581 2233 2581 2233 2519 2179 c 0,32,33
 2494 2159 2494 2159 2452.5 2174.5 c 128,-1,34
 2411 2190 2411 2190 2417 2220 c 0,0,1
1171 2380 m 0,35,36
 1166 2410 1166 2410 1211 2407 c 0,37,38
 1231 2406 1231 2406 1303 2388 c 0,39,40
 1409 2365 1409 2365 1573 2359 c 0,41,42
 1699 2356 1699 2356 1788 2372 c 128,-1,43
 1877 2388 1877 2388 1982 2441 c 0,44,45
 2062 2482 2062 2482 2111 2532.5 c 128,-1,46
 2160 2583 2160 2583 2212 2671 c 1,47,48
 2241 2730 2241 2730 2242.5 2781.5 c 128,-1,49
 2244 2833 2244 2833 2224 2892 c 1,50,51
 2208 2952 2208 2952 2180.5 2990.5 c 128,-1,52
 2153 3029 2153 3029 2101 3052 c 0,53,54
 2072 3068 2072 3068 2042 3079.5 c 128,-1,55
 2012 3091 2012 3091 1992 3097.5 c 128,-1,56
 1972 3104 1972 3104 1935.5 3108.5 c 128,-1,57
 1899 3113 1899 3113 1884.5 3114 c 128,-1,58
 1870 3115 1870 3115 1823 3117.5 c 128,-1,59
 1776 3120 1776 3120 1761 3121 c 0,60,61
 1648 3127 1648 3127 1567.5 3120 c 128,-1,62
 1487 3113 1487 3113 1372 3088 c 0,63,64
 1365 3086 1365 3086 1337.5 3080 c 128,-1,65
 1310 3074 1310 3074 1303 3072.5 c 128,-1,66
 1296 3071 1296 3071 1273.5 3065.5 c 128,-1,67
 1251 3060 1251 3060 1242.5 3057 c 128,-1,68
 1234 3054 1234 3054 1215 3048 c 128,-1,69
 1196 3042 1196 3042 1185.5 3036.5 c 128,-1,70
 1175 3031 1175 3031 1158.5 3023 c 128,-1,71
 1142 3015 1142 3015 1127.5 3006 c 128,-1,72
 1113 2997 1113 2997 1098 2986 c 0,73,74
 997 2922 997 2922 928 2856.5 c 128,-1,75
 859 2791 859 2791 754 2671 c 0,76,77
 713 2622 713 2622 681 2572.5 c 128,-1,78
 649 2523 649 2523 631.5 2489 c 128,-1,79
 614 2455 614 2455 578 2380 c 0,80,81
 532 2277 532 2277 516 2239 c 128,-1,82
 500 2201 500 2201 477.5 2126 c 128,-1,83
 455 2051 455 2051 446 1974 c 0,84,85
 434 1892 434 1892 432 1816.5 c 128,-1,86
 430 1741 430 1741 433 1689.5 c 128,-1,87
 436 1638 436 1638 446 1532 c 0,88,89
 456 1420 456 1420 470.5 1346.5 c 128,-1,90
 485 1273 485 1273 520 1180 c 1,91,92
 567 1070 567 1070 611.5 994 c 128,-1,93
 656 918 656 918 733 811 c 0,94,95
 811 705 811 705 871.5 642.5 c 128,-1,96
 932 580 932 580 1024 520 c 0,97,98
 1104 466 1104 466 1142.5 442.5 c 128,-1,99
 1181 419 1181 419 1244.5 397 c 128,-1,100
 1308 375 1308 375 1380 369 c 0,101,102
 1476 361 1476 361 1548 379 c 128,-1,103
 1620 397 1620 397 1733 446 c 0,104,105
 1770 462 1770 462 1802 477 c 1,106,107
 1790 494 1790 494 1778 512 c 0,108,109
 1707 614 1707 614 1678.5 696.5 c 128,-1,110
 1650 779 1650 779 1622 930 c 0,111,112
 1599 1057 1599 1057 1590 1129 c 128,-1,113
 1581 1201 1581 1201 1582 1300.5 c 128,-1,114
 1583 1400 1583 1400 1602 1499 c 0,115,116
 1625 1616 1625 1616 1657.5 1692 c 128,-1,117
 1690 1768 1690 1768 1757 1847 c 0,118,119
 1760 1850 1760 1850 1780 1871 c 128,-1,120
 1800 1892 1800 1892 1803.5 1895.5 c 128,-1,121
 1807 1899 1807 1899 1824 1916.5 c 128,-1,122
 1841 1934 1841 1934 1846 1938 c 128,-1,123
 1851 1942 1851 1942 1866.5 1955.5 c 128,-1,124
 1882 1969 1882 1969 1890 1973.5 c 128,-1,125
 1898 1978 1898 1978 1913 1988.5 c 128,-1,126
 1928 1999 1928 1999 1939.5 2004 c 128,-1,127
 1951 2009 1951 2009 1967 2016 c 128,-1,128
 1983 2023 1983 2023 1999 2028 c 0,129,130
 2058 2049 2058 2049 2136 2040.5 c 128,-1,131
 2214 2032 2214 2032 2261 1991 c 0,132,133
 2351 1914 2351 1914 2401 1834 c 128,-1,134
 2451 1754 2451 1754 2478 1638 c 0,135,136
 2516 1481 2516 1481 2517.5 1355.5 c 128,-1,137
 2519 1230 2519 1230 2478 1073 c 0,138,139
 2432 892 2432 892 2394.5 804.5 c 128,-1,140
 2357 717 2357 717 2261 586 c 0,141,142
 2242 559 2242 559 2223 535 c 1,143,144
 2242 508 2242 508 2259 488 c 0,145,146
 2317 420 2317 420 2421 360 c 0,147,148
 2488 320 2488 320 2559 319 c 128,-1,149
 2630 318 2630 318 2703 348 c 0,150,151
 2742 362 2742 362 2775.5 386 c 128,-1,152
 2809 410 2809 410 2827.5 430 c 128,-1,153
 2846 450 2846 450 2879 488.5 c 128,-1,154
 2912 527 2912 527 2933 549 c 0,155,156
 2958 582 2958 582 2992 698 c 0,157,158
 3013 771 3013 771 3024 772 c 0,159,160
 3031 773 3031 773 3038 756 c 0,161,162
 3038 755 3038 755 3039 754 c 0,163,164
 3050 731 3050 731 3057.5 709.5 c 128,-1,165
 3065 688 3065 688 3067 664 c 128,-1,166
 3069 640 3069 640 3071 623 c 128,-1,167
 3073 606 3073 606 3068.5 579 c 128,-1,168
 3064 552 3064 552 3062 538.5 c 128,-1,169
 3060 525 3060 525 3050.5 494 c 128,-1,170
 3041 463 3041 463 3038 452.5 c 128,-1,171
 3035 442 3035 442 3022 405.5 c 128,-1,172
 3009 369 3009 369 3006 360 c 0,173,174
 2978 283 2978 283 2939 231.5 c 128,-1,175
 2900 180 2900 180 2830 131 c 0,176,177
 2769 91 2769 91 2716 78.5 c 128,-1,178
 2663 66 2663 66 2580 66 c 0,179,180
 2562 66 2562 66 2513 65.5 c 128,-1,181
 2464 65 2464 65 2446.5 65.5 c 128,-1,182
 2429 66 2429 66 2390 67.5 c 128,-1,183
 2351 69 2351 69 2330 74 c 128,-1,184
 2309 79 2309 79 2277 87 c 128,-1,185
 2245 95 2245 95 2217 108 c 128,-1,186
 2189 121 2189 121 2159 139 c 0,187,188
 2038 205 2038 205 1954 291 c 0,189,190
 1949 296 1949 296 1944 302 c 1,191,192
 1926 290 1926 290 1894 270 c 0,193,194
 1838 235 1838 235 1823 225 c 0,195,196
 1720 158 1720 158 1643.5 124 c 128,-1,197
 1567 90 1567 90 1454 66 c 0,198,199
 1402 54 1402 54 1347 51 c 128,-1,200
 1292 48 1292 48 1264 49 c 128,-1,201
 1236 50 1236 50 1161 57 c 128,-1,202
 1086 64 1086 64 1061 66 c 0,203,204
 1046 67 1046 67 1014.5 69.5 c 128,-1,205
 983 72 983 72 969.5 73.5 c 128,-1,206
 956 75 956 75 932.5 79.5 c 128,-1,207
 909 84 909 84 888.5 91.5 c 128,-1,208
 868 99 868 99 844 111 c 0,209,210
 746 166 746 166 682 214.5 c 128,-1,211
 618 263 618 263 541 340 c 0,212,213
 453 434 453 434 413 478.5 c 128,-1,214
 373 523 373 523 319.5 596.5 c 128,-1,215
 266 670 266 670 221 754 c 0,216,217
 163 865 163 865 136.5 952.5 c 128,-1,218
 110 1040 110 1040 86 1180 c 0,219,220
 66 1291 66 1291 64.5 1386.5 c 128,-1,221
 63 1482 63 1482 74 1593 c 0,222,223
 77 1621 77 1621 82 1689.5 c 128,-1,224
 87 1758 87 1758 91 1790 c 128,-1,225
 95 1822 95 1822 103 1875.5 c 128,-1,226
 111 1929 111 1929 124 1973.5 c 128,-1,227
 137 2018 137 2018 156 2064 c 0,228,229
 192 2160 192 2160 225 2232 c 128,-1,230
 258 2304 258 2304 281 2346 c 128,-1,231
 304 2388 304 2388 369 2503 c 0,232,233
 413 2578 413 2578 431.5 2608 c 128,-1,234
 450 2638 450 2638 485 2689 c 128,-1,235
 520 2740 520 2740 556 2777.5 c 128,-1,236
 592 2815 592 2815 639 2855 c 0,237,238
 766 2964 766 2964 860 3023.5 c 128,-1,239
 954 3083 954 3083 1110 3154 c 0,240,241
 1276 3233 1276 3233 1479 3252 c 0,242,243
 1666 3270 1666 3270 1806 3252 c 128,-1,244
 1946 3234 1946 3234 2150 3174 c 0,245,246
 2199 3162 2199 3162 2226 3142.5 c 128,-1,247
 2253 3123 2253 3123 2281 3080 c 0,248,249
 2286 3073 2286 3073 2299.5 3053 c 128,-1,250
 2313 3033 2313 3033 2317 3026.5 c 128,-1,251
 2321 3020 2321 3020 2332 3002.5 c 128,-1,252
 2343 2985 2343 2985 2346.5 2977 c 128,-1,253
 2350 2969 2350 2969 2358 2953.5 c 128,-1,254
 2366 2938 2366 2938 2368.5 2927 c 128,-1,255
 2371 2916 2371 2916 2375.5 2901 c 128,-1,256
 2380 2886 2380 2886 2381.5 2871 c 128,-1,257
 2383 2856 2383 2856 2384 2839 c 0,258,259
 2387 2731 2387 2731 2372 2655 c 128,-1,260
 2357 2579 2357 2579 2310 2494 c 0,261,262
 2276 2434 2276 2434 2235 2402 c 128,-1,263
 2194 2370 2194 2370 2122 2335 c 0,264,265
 2012 2278 2012 2278 1935.5 2252 c 128,-1,266
 1859 2226 1859 2226 1741 2208 c 0,267,268
 1650 2193 1650 2193 1595 2188 c 128,-1,269
 1540 2183 1540 2183 1470 2187.5 c 128,-1,270
 1400 2192 1400 2192 1327 2212 c 0,271,272
 1189 2252 1189 2252 1171 2380 c 0,35,36
2134 680 m 1,273,274
 2204 744 2204 744 2243 810 c 128,-1,275
 2282 876 2282 876 2310 975 c 0,276,277
 2322 1019 2322 1019 2328.5 1057.5 c 128,-1,278
 2335 1096 2335 1096 2336 1142 c 128,-1,279
 2337 1188 2337 1188 2336.5 1210.5 c 128,-1,280
 2336 1233 2336 1233 2332 1295.5 c 128,-1,281
 2328 1358 2328 1358 2327 1380 c 0,282,283
 2326 1397 2326 1397 2323.5 1448.5 c 128,-1,284
 2321 1500 2321 1500 2319 1518 c 128,-1,285
 2317 1536 2317 1536 2310.5 1573 c 128,-1,286
 2304 1610 2304 1610 2292 1639 c 128,-1,287
 2280 1668 2280 1668 2261 1700 c 0,288,289
 2241 1740 2241 1740 2190.5 1755.5 c 128,-1,290
 2140 1771 2140 1771 2093 1761 c 0,291,292
 2031 1749 2031 1749 2001 1720 c 128,-1,293
 1971 1691 1971 1691 1962 1630 c 0,294,295
 1938 1470 1938 1470 1937 1370 c 128,-1,296
 1936 1270 1936 1270 1962 1110 c 0,297,298
 1974 1048 1974 1048 1988.5 997.5 c 128,-1,299
 2003 947 2003 947 2032 884 c 128,-1,300
 2061 821 2061 821 2074.5 794 c 128,-1,301
 2088 767 2088 767 2134 680 c 1,273,274
EndSplineSet
EndChar

StartChar: u1058A
Encoding: 66954 66954 23
Width: 2228
VWidth: 0
Flags: W
VStem: 66 196<2927.2 3126.64> 537 311<354.005 1526.37> 1249 193<1077.26 1401 1556 1925.56> 1974 189<1535.07 1700 1860 2064>
LayerCount: 2
Fore
SplineSet
135 2900 m 0,0,1
 109 2889 109 2889 86 2921 c 128,-1,2
 63 2953 63 2953 66 2986 c 0,3,4
 73 3049 73 3049 85 3084.5 c 128,-1,5
 97 3120 97 3120 131 3154 c 0,6,7
 166 3189 166 3189 195.5 3206.5 c 128,-1,8
 225 3224 225 3224 279 3244 c 0,9,10
 361 3271 361 3271 430 3265 c 0,11,12
 490 3259 490 3259 523.5 3250 c 128,-1,13
 557 3241 557 3241 614 3215 c 0,14,15
 649 3201 649 3201 694 3162.5 c 128,-1,16
 739 3124 739 3124 762 3092 c 0,17,18
 822 3011 822 3011 844 2946 c 128,-1,19
 866 2881 866 2881 872 2777 c 0,20,21
 892 2481 892 2481 892 2186 c 128,-1,22
 892 1891 892 1891 881.5 1677.5 c 128,-1,23
 871 1464 871 1464 859.5 1152 c 128,-1,24
 848 840 848 840 848 569 c 0,25,26
 848 504 848 504 868.5 452 c 128,-1,27
 889 400 889 400 929.5 361.5 c 128,-1,28
 970 323 970 323 1015.5 296 c 128,-1,29
 1061 269 1061 269 1126 242 c 0,30,31
 1181 220 1181 220 1226.5 220 c 128,-1,32
 1272 220 1272 220 1327 242 c 0,33,34
 1356 252 1356 252 1379.5 267.5 c 128,-1,35
 1403 283 1403 283 1416 296 c 128,-1,36
 1429 309 1429 309 1453.5 336.5 c 128,-1,37
 1478 364 1478 364 1495 381 c 0,38,39
 1534 420 1534 420 1564 456 c 128,-1,40
 1594 492 1594 492 1634 545 c 128,-1,41
 1674 598 1674 598 1700 631 c 0,42,43
 1711 645 1711 645 1720.5 658 c 128,-1,44
 1730 671 1730 671 1739 686 c 128,-1,45
 1748 701 1748 701 1754 710 c 128,-1,46
 1760 719 1760 719 1769 737 c 128,-1,47
 1778 755 1778 755 1781 760.5 c 128,-1,48
 1784 766 1784 766 1794 787.5 c 128,-1,49
 1804 809 1804 809 1805.5 812.5 c 128,-1,50
 1807 816 1807 816 1818.5 842.5 c 128,-1,51
 1830 869 1830 869 1831 872 c 0,52,53
 1842 899 1842 899 1859.5 940 c 128,-1,54
 1877 981 1877 981 1886.5 1004.5 c 128,-1,55
 1896 1028 1896 1028 1908 1063.5 c 128,-1,56
 1920 1099 1920 1099 1929 1135 c 0,57,58
 1936 1165 1936 1165 1941.5 1197 c 128,-1,59
 1947 1229 1947 1229 1950 1250 c 128,-1,60
 1953 1271 1953 1271 1958 1309 c 128,-1,61
 1963 1347 1963 1347 1966 1368 c 0,62,63
 1974 1434 1974 1434 1974 1532 c 0,64,65
 1974 1540 1974 1540 1975.5 1616 c 128,-1,66
 1977 1692 1977 1692 1974 1700 c 0,67,68
 1967 1822 1967 1822 1962 1860 c 0,69,70
 1958 1897 1958 1897 1937 1962 c 0,71,72
 1916 2028 1916 2028 1888 2060 c 0,73,74
 1866 2086 1866 2086 1852 2097.5 c 128,-1,75
 1838 2109 1838 2109 1815 2114 c 0,76,77
 1783 2121 1783 2121 1720 2114 c 0,78,79
 1670 2108 1670 2108 1622 2077 c 0,80,81
 1608 2067 1608 2067 1597 2053.5 c 128,-1,82
 1586 2040 1586 2040 1581.5 2030.5 c 128,-1,83
 1577 2021 1577 2021 1569 2002.5 c 128,-1,84
 1561 1984 1561 1984 1556 1974 c 0,85,86
 1550 1961 1550 1961 1537.5 1937.5 c 128,-1,87
 1525 1914 1525 1914 1519.5 1903.5 c 128,-1,88
 1514 1893 1514 1893 1506 1874 c 128,-1,89
 1498 1855 1498 1855 1491 1835 c 0,90,91
 1463 1755 1463 1755 1454 1692 c 0,92,93
 1442 1606 1442 1606 1442 1556 c 0,94,95
 1442 1511 1442 1511 1450 1397 c 0,96,97
 1451 1377 1451 1377 1452 1340 c 128,-1,98
 1453 1303 1453 1303 1454 1285 c 128,-1,99
 1455 1267 1455 1267 1459 1236.5 c 128,-1,100
 1463 1206 1463 1206 1470 1176 c 0,101,102
 1479 1137 1479 1137 1489 1107 c 128,-1,103
 1499 1077 1499 1077 1515.5 1033.5 c 128,-1,104
 1532 990 1532 990 1540 967 c 0,105,106
 1553 927 1553 927 1602 831 c 0,107,108
 1608 820 1608 820 1620.5 800 c 128,-1,109
 1633 780 1633 780 1642 765.5 c 128,-1,110
 1651 751 1651 751 1657 736 c 128,-1,111
 1663 721 1663 721 1658.5 711.5 c 128,-1,112
 1654 702 1654 702 1638 700 c 0,113,114
 1617 697 1617 697 1599 700.5 c 128,-1,115
 1581 704 1581 704 1564.5 717.5 c 128,-1,116
 1548 731 1548 731 1538.5 740.5 c 128,-1,117
 1529 750 1529 750 1510 774 c 128,-1,118
 1491 798 1491 798 1483 807 c 0,119,120
 1472 821 1472 821 1463.5 834 c 128,-1,121
 1455 847 1455 847 1446 863 c 128,-1,122
 1437 879 1437 879 1432.5 888 c 128,-1,123
 1428 897 1428 897 1416.5 919 c 128,-1,124
 1405 941 1405 941 1401 950 c 0,125,126
 1358 1024 1358 1024 1327 1106 c 0,127,128
 1320 1125 1320 1125 1310 1151 c 128,-1,129
 1300 1177 1300 1177 1292.5 1198 c 128,-1,130
 1285 1219 1285 1219 1278 1249 c 0,131,132
 1253 1339 1253 1339 1249 1401 c 0,133,134
 1242 1468 1242 1468 1249 1602 c 0,135,136
 1253 1676 1253 1676 1278 1806 c 0,137,138
 1302 1933 1302 1933 1335 2032 c 0,139,140
 1353 2084 1353 2084 1368.5 2115 c 128,-1,141
 1384 2146 1384 2146 1417 2200 c 0,142,143
 1426 2213 1426 2213 1443.5 2239.5 c 128,-1,144
 1461 2266 1461 2266 1470 2278 c 128,-1,145
 1479 2290 1479 2290 1498 2306.5 c 128,-1,146
 1517 2323 1517 2323 1540 2335 c 0,147,148
 1592 2364 1592 2364 1611.5 2374 c 128,-1,149
 1631 2384 1631 2384 1668.5 2398.5 c 128,-1,150
 1706 2413 1706 2413 1745 2421 c 0,151,152
 1792 2428 1792 2428 1820.5 2424.5 c 128,-1,153
 1849 2421 1849 2421 1896 2404 c 0,154,155
 1990 2376 1990 2376 2040 2298 c 0,156,157
 2086 2232 2086 2232 2108.5 2183.5 c 128,-1,158
 2131 2135 2131 2135 2142 2068 c 0,159,160
 2162 1955 2162 1955 2166.5 1880 c 128,-1,161
 2171 1805 2171 1805 2163 1692 c 0,162,163
 2149 1531 2149 1531 2137 1442 c 128,-1,164
 2125 1353 2125 1353 2097 1229 c 0,165,166
 2072 1121 2072 1121 2060.5 1076 c 128,-1,167
 2049 1031 2049 1031 2023 955.5 c 128,-1,168
 1997 880 1997 880 1962 811 c 0,169,170
 1901 684 1901 684 1877 635.5 c 128,-1,171
 1853 587 1853 587 1807 511 c 128,-1,172
 1761 435 1761 435 1700 352 c 0,173,174
 1641 278 1641 278 1589.5 226 c 128,-1,175
 1538 174 1538 174 1470 127 c 0,176,177
 1352 49 1352 49 1196 29 c 0,178,179
 1109 18 1109 18 1051 24.5 c 128,-1,180
 993 31 993 31 913 57 c 0,181,182
 904 59 904 59 883 64.5 c 128,-1,183
 862 70 862 70 853.5 72.5 c 128,-1,184
 845 75 845 75 828 80.5 c 128,-1,185
 811 86 811 86 801.5 90.5 c 128,-1,186
 792 95 792 95 778 101.5 c 128,-1,187
 764 108 764 108 752.5 116.5 c 128,-1,188
 741 125 741 125 729 135 c 0,189,190
 725 138 725 138 708.5 152 c 128,-1,191
 692 166 692 166 687 170.5 c 128,-1,192
 682 175 682 175 668 187 c 128,-1,193
 654 199 654 199 647.5 206.5 c 128,-1,194
 641 214 641 214 630.5 225 c 128,-1,195
 620 236 620 236 612.5 247 c 128,-1,196
 605 258 605 258 598 270 c 0,197,198
 571 314 571 314 557.5 364 c 128,-1,199
 544 414 544 414 542 443.5 c 128,-1,200
 540 473 540 473 537 549 c 0,201,202
 521 833 521 833 520.5 1069.5 c 128,-1,203
 520 1306 520 1306 531 1511.5 c 128,-1,204
 542 1717 542 1717 569 2032 c 0,205,206
 573 2093 573 2093 581.5 2195 c 128,-1,207
 590 2297 590 2297 592 2337 c 128,-1,208
 594 2377 594 2377 597 2479 c 128,-1,209
 600 2581 600 2581 594 2642 c 0,210,211
 591 2693 591 2693 569 2830 c 0,212,213
 554 2935 554 2935 516 3031 c 0,214,215
 504 3063 504 3063 467.5 3094.5 c 128,-1,216
 431 3126 431 3126 401 3129 c 0,217,218
 387 3131 387 3131 376 3131 c 128,-1,219
 365 3131 365 3131 354.5 3129 c 128,-1,220
 344 3127 344 3127 337 3125 c 128,-1,221
 330 3123 330 3123 319.5 3117 c 128,-1,222
 309 3111 309 3111 303 3107.5 c 128,-1,223
 297 3104 297 3104 283.5 3094.5 c 128,-1,224
 270 3085 270 3085 262 3080 c 0,225,226
 238 3064 238 3064 222.5 3036 c 128,-1,227
 207 3008 207 3008 201.5 2984 c 128,-1,228
 196 2960 196 2960 179.5 2935.5 c 128,-1,229
 163 2911 163 2911 135 2900 c 0,0,1
EndSplineSet
EndChar

StartChar: u1058B
Encoding: 66955 66955 24
Width: 2433
VWidth: 0
Flags: W
HStem: 2736 189<179 711.999>
VStem: 66 102<2404.65 2693.89> 774 336<358.306 1520>
LayerCount: 2
Fore
SplineSet
1892 754 m 0,0,1
 1899 700 1899 700 1805 770 c 0,2,3
 1784 785 1784 785 1745 819 c 0,4,5
 1729 831 1729 831 1715 844 c 128,-1,6
 1701 857 1701 857 1692.5 865 c 128,-1,7
 1684 873 1684 873 1671 891.5 c 128,-1,8
 1658 910 1658 910 1655 915 c 128,-1,9
 1652 920 1652 920 1636.5 945 c 128,-1,10
 1621 970 1621 970 1618 975 c 0,11,12
 1581 1031 1581 1031 1563.5 1066.5 c 128,-1,13
 1546 1102 1546 1102 1528 1163 c 0,14,15
 1485 1297 1485 1297 1479 1442 c 0,16,17
 1476 1534 1476 1534 1482.5 1603.5 c 128,-1,18
 1489 1673 1489 1673 1507 1794 c 0,19,20
 1508 1802 1508 1802 1513 1837.5 c 128,-1,21
 1518 1873 1518 1873 1519.5 1881 c 128,-1,22
 1521 1889 1521 1889 1525.5 1917 c 128,-1,23
 1530 1945 1530 1945 1534 1957 c 128,-1,24
 1538 1969 1538 1969 1544.5 1991.5 c 128,-1,25
 1551 2014 1551 2014 1559 2033 c 128,-1,26
 1567 2052 1567 2052 1577 2073 c 0,27,28
 1624 2190 1624 2190 1649 2229 c 0,29,30
 1679 2277 1679 2277 1724 2318 c 0,31,32
 1782 2370 1782 2370 1832.5 2391 c 128,-1,33
 1883 2412 1883 2412 1966 2425 c 0,34,35
 2026 2435 2026 2435 2069.5 2429 c 128,-1,36
 2113 2423 2113 2423 2167 2396 c 0,37,38
 2206 2376 2206 2376 2229 2349.5 c 128,-1,39
 2252 2323 2252 2323 2281 2273 c 0,40,41
 2315 2217 2315 2217 2328 2172 c 128,-1,42
 2341 2127 2341 2127 2351 2052 c 0,43,44
 2372 1927 2372 1927 2372 1729 c 0,45,46
 2372 1695 2372 1695 2371 1665.5 c 128,-1,47
 2370 1636 2370 1636 2366.5 1603 c 128,-1,48
 2363 1570 2363 1570 2360.5 1551 c 128,-1,49
 2358 1532 2358 1532 2352 1489 c 128,-1,50
 2346 1446 2346 1446 2343 1425 c 0,51,52
 2337 1389 2337 1389 2327.5 1322 c 128,-1,53
 2318 1255 2318 1255 2312.5 1223.5 c 128,-1,54
 2307 1192 2307 1192 2294.5 1140 c 128,-1,55
 2282 1088 2282 1088 2265 1036 c 0,56,57
 2256 1009 2256 1009 2246 983 c 128,-1,58
 2236 957 2236 957 2229 938 c 128,-1,59
 2222 919 2222 919 2209.5 892 c 128,-1,60
 2197 865 2197 865 2191 852 c 128,-1,61
 2185 839 2185 839 2169 808.5 c 128,-1,62
 2153 778 2153 778 2148 768 c 128,-1,63
 2143 758 2143 758 2123 720.5 c 128,-1,64
 2103 683 2103 683 2097 672 c 0,65,66
 2076 633 2076 633 2044.5 563.5 c 128,-1,67
 2013 494 2013 494 1986.5 446 c 128,-1,68
 1960 398 1960 398 1921 348 c 0,69,70
 1895 318 1895 318 1866.5 291 c 128,-1,71
 1838 264 1838 264 1819 249.5 c 128,-1,72
 1800 235 1800 235 1762 207 c 128,-1,73
 1724 179 1724 179 1704 164 c 0,74,75
 1637 112 1637 112 1586.5 84.5 c 128,-1,76
 1536 57 1536 57 1462 33 c 0,77,78
 1328 -3 1328 -3 1233 12 c 0,79,80
 1207 16 1207 16 1186.5 22.5 c 128,-1,81
 1166 29 1166 29 1155 34.5 c 128,-1,82
 1144 40 1144 40 1121 52.5 c 128,-1,83
 1098 65 1098 65 1081 74 c 0,84,85
 1035 97 1035 97 1003 125 c 128,-1,86
 971 153 971 153 930 201 c 0,87,88
 858 276 858 276 825.5 328.5 c 128,-1,89
 793 381 793 381 782 463 c 0,90,91
 765 570 765 570 759.5 675 c 128,-1,92
 754 780 754 780 756.5 850 c 128,-1,93
 759 920 759 920 765.5 1044 c 128,-1,94
 772 1168 772 1168 774 1249 c 0,95,96
 778 1406 778 1406 799.5 1669 c 128,-1,97
 821 1932 821 1932 823 2105 c 0,98,99
 824 2242 824 2242 818 2446 c 0,100,101
 815 2536 815 2536 814 2596 c 1,102,103
 781 2618 781 2618 766 2626 c 0,104,105
 750 2634 750 2634 713 2646 c 0,106,107
 642 2669 642 2669 569 2699 c 0,108,109
 550 2708 550 2708 542 2711 c 128,-1,110
 534 2714 534 2714 519 2718 c 128,-1,111
 504 2722 504 2722 487 2728 c 0,112,113
 469 2735 469 2735 460 2736 c 128,-1,114
 451 2737 451 2737 442.5 2735.5 c 128,-1,115
 434 2734 434 2734 410 2736 c 0,116,117
 400 2737 400 2737 393.5 2738.5 c 128,-1,118
 387 2740 387 2740 384.5 2740.5 c 128,-1,119
 382 2741 382 2741 378 2741.5 c 128,-1,120
 374 2742 374 2742 368.5 2741.5 c 128,-1,121
 363 2741 363 2741 352 2740 c 0,122,123
 334 2737 334 2737 319.5 2736 c 128,-1,124
 305 2735 305 2735 294.5 2733 c 128,-1,125
 284 2731 284 2731 262 2724 c 0,126,127
 240 2715 240 2715 233 2710 c 128,-1,128
 226 2705 226 2705 218.5 2694 c 128,-1,129
 211 2683 211 2683 197 2671 c 0,130,131
 182 2658 182 2658 178 2646.5 c 128,-1,132
 174 2635 174 2635 173 2614 c 128,-1,133
 172 2593 172 2593 168 2576 c 0,134,135
 165 2565 165 2565 161 2539 c 128,-1,136
 157 2513 157 2513 153 2490.5 c 128,-1,137
 149 2468 149 2468 143.5 2446 c 128,-1,138
 138 2424 138 2424 129.5 2412.5 c 128,-1,139
 121 2401 121 2401 111 2404 c 0,140,141
 87 2412 87 2412 76.5 2473 c 128,-1,142
 66 2534 66 2534 66 2585 c 0,143,144
 66 2628 66 2628 80 2694 c 128,-1,145
 94 2760 94 2760 119 2785 c 0,146,147
 141 2810 141 2810 179.5 2837 c 128,-1,148
 218 2864 218 2864 254 2879 c 0,149,150
 308 2901 308 2901 356 2908 c 0,151,152
 367 2910 367 2910 379 2912.5 c 128,-1,153
 391 2915 391 2915 397 2916 c 128,-1,154
 403 2917 403 2917 409 2918.5 c 128,-1,155
 415 2920 415 2920 420 2920.5 c 128,-1,156
 425 2921 425 2921 428.5 2921.5 c 128,-1,157
 432 2922 432 2922 439 2922.5 c 128,-1,158
 446 2923 446 2923 451 2923 c 128,-1,159
 456 2923 456 2923 469 2924 c 128,-1,160
 482 2925 482 2925 492 2925 c 0,161,162
 509 2926 509 2926 521.5 2926.5 c 128,-1,163
 534 2927 534 2927 547.5 2926 c 128,-1,164
 561 2925 561 2925 569 2924 c 128,-1,165
 577 2923 577 2923 597.5 2920.5 c 128,-1,166
 618 2918 618 2918 631 2916 c 0,167,168
 641 2914 641 2914 658.5 2911.5 c 128,-1,169
 676 2909 676 2909 681.5 2908 c 128,-1,170
 687 2907 687 2907 698.5 2904.5 c 128,-1,171
 710 2902 710 2902 715 2899.5 c 128,-1,172
 720 2897 720 2897 730 2892.5 c 128,-1,173
 740 2888 740 2888 749 2882 c 128,-1,174
 758 2876 758 2876 770 2867 c 0,175,176
 792 2852 792 2852 813 2839 c 1,177,178
 819 2922 819 2922 836 2998 c 0,179,180
 844 3038 844 3038 854.5 3058.5 c 128,-1,181
 865 3079 865 3079 893 3121 c 0,182,183
 905 3138 905 3138 918.5 3151.5 c 128,-1,184
 932 3165 932 3165 941.5 3171.5 c 128,-1,185
 951 3178 951 3178 971.5 3190.5 c 128,-1,186
 992 3203 992 3203 1004 3211 c 0,187,188
 1012 3216 1012 3216 1026 3224 c 128,-1,189
 1040 3232 1040 3232 1045 3235.5 c 128,-1,190
 1050 3239 1050 3239 1060.5 3244.5 c 128,-1,191
 1071 3250 1071 3250 1078 3252.5 c 128,-1,192
 1085 3255 1085 3255 1095.5 3258.5 c 128,-1,193
 1106 3262 1106 3262 1118 3265 c 0,194,195
 1156 3273 1156 3273 1202 3270 c 128,-1,196
 1248 3267 1248 3267 1286 3260 c 0,197,198
 1328 3254 1328 3254 1345.5 3247.5 c 128,-1,199
 1363 3241 1363 3241 1401 3219 c 0,200,201
 1472 3171 1472 3171 1499 3121 c 0,202,203
 1510 3099 1510 3099 1517.5 3077.5 c 128,-1,204
 1525 3056 1525 3056 1532 3029 c 128,-1,205
 1539 3002 1539 3002 1544 2986 c 0,206,207
 1554 2949 1554 2949 1537.5 2832 c 128,-1,208
 1521 2715 1521 2715 1511 2691 c 0,209,210
 1470 2583 1470 2583 1405 2511 c 0,211,212
 1384 2486 1384 2486 1352 2473.5 c 128,-1,213
 1320 2461 1320 2461 1297.5 2459.5 c 128,-1,214
 1275 2458 1275 2458 1233 2458 c 0,215,216
 1225 2458 1225 2458 1221 2458 c 0,217,218
 1187 2458 1187 2458 1118 2477 c 1,219,220
 1138 2295 1138 2295 1144 2113 c 0,221,222
 1154 1826 1154 1826 1141 1617.5 c 128,-1,223
 1128 1409 1128 1409 1116 1102 c 128,-1,224
 1104 795 1104 795 1110 532 c 0,225,226
 1110 515 1110 515 1107 484.5 c 128,-1,227
 1104 454 1104 454 1103.5 436.5 c 128,-1,228
 1103 419 1103 419 1110.5 396 c 128,-1,229
 1118 373 1118 373 1135 356 c 0,230,231
 1161 330 1161 330 1193 311 c 128,-1,232
 1225 292 1225 292 1248 284 c 128,-1,233
 1271 276 1271 276 1314.5 263 c 128,-1,234
 1358 250 1358 250 1380 242 c 0,235,236
 1407 233 1407 233 1430.5 231.5 c 128,-1,237
 1454 230 1454 230 1478.5 237.5 c 128,-1,238
 1503 245 1503 245 1521 253.5 c 128,-1,239
 1539 262 1539 262 1569 279 c 0,240,241
 1634 316 1634 316 1672.5 350.5 c 128,-1,242
 1711 385 1711 385 1753 446 c 0,243,244
 1847 569 1847 569 1880 613 c 128,-1,245
 1913 657 1913 657 1968.5 746 c 128,-1,246
 2024 835 2024 835 2068 930 c 0,247,248
 2120 1034 2120 1034 2143.5 1115 c 128,-1,249
 2167 1196 2167 1196 2187 1327 c 0,250,251
 2197 1389 2197 1389 2198.5 1449 c 128,-1,252
 2200 1509 2200 1509 2197.5 1546 c 128,-1,253
 2195 1583 2195 1583 2187 1671 c 0,254,255
 2185 1699 2185 1699 2181.5 1749 c 128,-1,256
 2178 1799 2178 1799 2175.5 1824.5 c 128,-1,257
 2173 1850 2173 1850 2168 1888.5 c 128,-1,258
 2163 1927 2163 1927 2153.5 1962 c 128,-1,259
 2144 1997 2144 1997 2130 2036 c 0,260,261
 2119 2070 2119 2070 2099.5 2085.5 c 128,-1,262
 2080 2101 2080 2101 2040 2114 c 0,263,264
 2009 2124 2009 2124 1993 2124.5 c 128,-1,265
 1977 2125 1977 2125 1946 2114 c 0,266,267
 1937 2110 1937 2110 1911 2099 c 128,-1,268
 1885 2088 1885 2088 1876.5 2083.5 c 128,-1,269
 1868 2079 1868 2079 1849 2068 c 128,-1,270
 1830 2057 1830 2057 1821.5 2048 c 128,-1,271
 1813 2039 1813 2039 1802.5 2024 c 128,-1,272
 1792 2009 1792 2009 1786 1991 c 0,273,274
 1712 1783 1712 1783 1686.5 1656 c 128,-1,275
 1661 1529 1661 1529 1675 1356 c 0,276,277
 1681 1287 1681 1287 1702 1223 c 128,-1,278
 1723 1159 1723 1159 1751 1107 c 128,-1,279
 1779 1055 1779 1055 1807 1003.5 c 128,-1,280
 1835 952 1835 952 1859 887 c 128,-1,281
 1883 822 1883 822 1892 754 c 0,0,1
1099 2625 m 1,282,283
 1210 2559 1210 2559 1266 2589 c 0,284,285
 1323 2618 1323 2618 1361.5 2689.5 c 128,-1,286
 1400 2761 1400 2761 1417 2847 c 0,287,288
 1417 2848 1417 2848 1418.5 2858 c 128,-1,289
 1420 2868 1420 2868 1420 2871.5 c 128,-1,290
 1420 2875 1420 2875 1421 2886 c 128,-1,291
 1422 2897 1422 2897 1422 2903 c 128,-1,292
 1422 2909 1422 2909 1422 2919.5 c 128,-1,293
 1422 2930 1422 2930 1421 2937 c 128,-1,294
 1420 2944 1420 2944 1418.5 2953.5 c 128,-1,295
 1417 2963 1417 2963 1414 2970 c 128,-1,296
 1411 2977 1411 2977 1406.5 2984.5 c 128,-1,297
 1402 2992 1402 2992 1397 2998 c 0,298,299
 1376 3024 1376 3024 1338 3056 c 128,-1,300
 1300 3088 1300 3088 1278 3088 c 0,301,302
 1264 3088 1264 3088 1234 3089.5 c 128,-1,303
 1204 3091 1204 3091 1186 3090 c 128,-1,304
 1168 3089 1168 3089 1155 3084 c 0,305,306
 1132 3073 1132 3073 1106 3047 c 0,307,308
 1076 3017 1076 3017 1065 2978 c 0,309,310
 1062 2963 1062 2963 1058 2949 c 128,-1,311
 1054 2935 1054 2935 1053 2928.5 c 128,-1,312
 1052 2922 1052 2922 1050.5 2916 c 128,-1,313
 1049 2910 1049 2910 1050 2902 c 128,-1,314
 1051 2894 1051 2894 1052 2886 c 128,-1,315
 1053 2878 1053 2878 1057 2859 c 0,316,317
 1087 2705 1087 2705 1090 2687 c 0,318,319
 1095 2656 1095 2656 1099 2625 c 1,282,283
EndSplineSet
EndChar

StartChar: u1058C
Encoding: 66956 66956 25
Width: 3170
VWidth: 0
Flags: W
HStem: 2953 213<247.329 678.675>
VStem: 770 422<552.536 2305.82> 1987 176<1853.67 2601.96>
LayerCount: 2
Fore
SplineSet
242 2478 m 0,0,1
 248 2445 248 2445 249.5 2435 c 128,-1,2
 251 2425 251 2425 254.5 2397.5 c 128,-1,3
 258 2370 258 2370 255.5 2357.5 c 128,-1,4
 253 2345 253 2345 248 2324.5 c 128,-1,5
 243 2304 243 2304 231 2289.5 c 128,-1,6
 219 2275 219 2275 201 2261 c 0,7,8
 169 2236 169 2236 152 2281.5 c 128,-1,9
 135 2327 135 2327 127 2404 c 0,10,11
 121 2445 121 2445 106.5 2502.5 c 128,-1,12
 92 2560 92 2560 86 2601 c 0,13,14
 83 2623 83 2623 76.5 2656.5 c 128,-1,15
 70 2690 70 2690 67 2717 c 128,-1,16
 64 2744 64 2744 66 2773 c 0,17,18
 66 2779 66 2779 67.5 2795.5 c 128,-1,19
 69 2812 69 2812 69 2816.5 c 128,-1,20
 69 2821 69 2821 70.5 2834 c 128,-1,21
 72 2847 72 2847 73.5 2853 c 128,-1,22
 75 2859 75 2859 78 2869.5 c 128,-1,23
 81 2880 81 2880 85 2889 c 128,-1,24
 89 2898 89 2898 94 2908 c 0,25,26
 117 2953 117 2953 142 2981 c 128,-1,27
 167 3009 167 3009 217 3052 c 0,28,29
 222 3056 222 3056 235 3067.5 c 128,-1,30
 248 3079 248 3079 253 3083 c 128,-1,31
 258 3087 258 3087 269.5 3096.5 c 128,-1,32
 281 3106 281 3106 286.5 3109.5 c 128,-1,33
 292 3113 292 3113 303 3120.5 c 128,-1,34
 314 3128 314 3128 321.5 3131.5 c 128,-1,35
 329 3135 329 3135 340 3140 c 128,-1,36
 351 3145 351 3145 362 3148 c 128,-1,37
 373 3151 373 3151 385 3154 c 0,38,39
 446 3170 446 3170 515 3170.5 c 128,-1,40
 584 3171 584 3171 651 3166 c 0,41,42
 805 3160 805 3160 922 3109 c 0,43,44
 993 3079 993 3079 1032 3049 c 128,-1,45
 1071 3019 1071 3019 1106 2961 c 0,46,47
 1161 2878 1161 2878 1187 2807 c 128,-1,48
 1213 2736 1213 2736 1225 2634 c 0,49,50
 1234 2559 1234 2559 1234 2483 c 128,-1,51
 1234 2407 1234 2407 1229.5 2352 c 128,-1,52
 1225 2297 1225 2297 1219 2216 c 128,-1,53
 1213 2135 1213 2135 1212 2068 c 0,54,55
 1210 1977 1210 1977 1201 1811.5 c 128,-1,56
 1192 1646 1192 1646 1192 1532 c 0,57,58
 1192 1477 1192 1477 1190.5 1338.5 c 128,-1,59
 1189 1200 1189 1200 1190 1143 c 128,-1,60
 1191 1086 1191 1086 1199.5 980.5 c 128,-1,61
 1208 875 1208 875 1225 770 c 0,62,63
 1226 763 1226 763 1230 735 c 128,-1,64
 1234 707 1234 707 1235 700.5 c 128,-1,65
 1236 694 1236 694 1240 671 c 128,-1,66
 1244 648 1244 648 1246.5 640 c 128,-1,67
 1249 632 1249 632 1254.5 613 c 128,-1,68
 1260 594 1260 594 1265.5 583.5 c 128,-1,69
 1271 573 1271 573 1279 556.5 c 128,-1,70
 1287 540 1287 540 1297 525.5 c 128,-1,71
 1307 511 1307 511 1319 496 c 0,72,73
 1426 360 1426 360 1577 299 c 0,74,75
 1658 267 1658 267 1728 268.5 c 128,-1,76
 1798 270 1798 270 1872 311 c 0,77,78
 1954 357 1954 357 2013 400 c 128,-1,79
 2072 443 2072 443 2159 516 c 0,80,81
 2219 564 2219 564 2252.5 596 c 128,-1,82
 2286 628 2286 628 2343 692 c 0,83,84
 2386 739 2386 739 2436.5 813 c 128,-1,85
 2487 887 2487 887 2507 913 c 0,86,87
 2544 966 2544 966 2584.5 1045 c 128,-1,88
 2625 1124 2625 1124 2646 1159 c 0,89,90
 2653 1171 2653 1171 2668.5 1196 c 128,-1,91
 2684 1221 2684 1221 2689.5 1231 c 128,-1,92
 2695 1241 2695 1241 2706.5 1261 c 128,-1,93
 2718 1281 2718 1281 2724 1294.5 c 128,-1,94
 2730 1308 2730 1308 2738 1327.5 c 128,-1,95
 2746 1347 2746 1347 2753 1368 c 0,96,97
 2768 1407 2768 1407 2777 1442 c 128,-1,98
 2786 1477 2786 1477 2795 1530.5 c 128,-1,99
 2804 1584 2804 1584 2810 1610 c 0,100,101
 2844 1760 2844 1760 2859 1901 c 0,102,103
 2863 1938 2863 1938 2871.5 1994 c 128,-1,104
 2880 2050 2880 2050 2884 2093.5 c 128,-1,105
 2888 2137 2888 2137 2888 2187 c 0,106,107
 2888 2216 2888 2216 2890 2261 c 128,-1,108
 2892 2306 2892 2306 2892 2335 c 0,109,110
 2892 2453 2892 2453 2888 2535 c 0,111,112
 2882 2642 2882 2642 2859 2728 c 0,113,114
 2855 2741 2855 2741 2846.5 2768.5 c 128,-1,115
 2838 2796 2838 2796 2832.5 2810.5 c 128,-1,116
 2827 2825 2827 2825 2814.5 2846 c 128,-1,117
 2802 2867 2802 2867 2785 2884 c 0,118,119
 2772 2897 2772 2897 2747.5 2904 c 128,-1,120
 2723 2911 2723 2911 2707.5 2911.5 c 128,-1,121
 2692 2912 2692 2912 2662 2912 c 0,122,123
 2630 2910 2630 2910 2604.5 2904 c 128,-1,124
 2579 2898 2579 2898 2566 2893 c 128,-1,125
 2553 2888 2553 2888 2515 2871 c 0,126,127
 2493 2862 2493 2862 2453.5 2826 c 128,-1,128
 2414 2790 2414 2790 2408 2785 c 0,129,130
 2398 2776 2398 2776 2365 2748.5 c 128,-1,131
 2332 2721 2332 2721 2310 2699 c 0,132,133
 2300 2689 2300 2689 2294 2682.5 c 128,-1,134
 2288 2676 2288 2676 2282.5 2667 c 128,-1,135
 2277 2658 2277 2658 2275 2654.5 c 128,-1,136
 2273 2651 2273 2651 2266.5 2637.5 c 128,-1,137
 2260 2624 2260 2624 2257 2617 c 0,138,139
 2218 2540 2218 2540 2200 2466 c 0,140,141
 2178 2386 2178 2386 2167 2281 c 0,142,143
 2158 2195 2158 2195 2163 2097 c 0,144,145
 2167 2059 2167 2059 2174 2026 c 128,-1,146
 2181 1993 2181 1993 2193 1951 c 128,-1,147
 2205 1909 2205 1909 2212 1880 c 0,148,149
 2220 1840 2220 1840 2232.5 1815.5 c 128,-1,150
 2245 1791 2245 1791 2273 1749 c 0,151,152
 2284 1732 2284 1732 2297 1708.5 c 128,-1,153
 2310 1685 2310 1685 2321.5 1670 c 128,-1,154
 2333 1655 2333 1655 2351 1638 c 0,155,156
 2366 1623 2366 1623 2381 1612.5 c 128,-1,157
 2396 1602 2396 1602 2417 1589.5 c 128,-1,158
 2438 1577 2438 1577 2449 1569 c 0,159,160
 2480 1548 2480 1548 2556 1511 c 0,161,162
 2570 1504 2570 1504 2592 1499.5 c 128,-1,163
 2614 1495 2614 1495 2625.5 1487.5 c 128,-1,164
 2637 1480 2637 1480 2642 1462 c 0,165,166
 2650 1439 2650 1439 2653.5 1423 c 128,-1,167
 2657 1407 2657 1407 2658.5 1387.5 c 128,-1,168
 2660 1368 2660 1368 2651.5 1355.5 c 128,-1,169
 2643 1343 2643 1343 2626 1339 c 0,170,171
 2614 1333 2614 1333 2595 1335.5 c 128,-1,172
 2576 1338 2576 1338 2566 1339.5 c 128,-1,173
 2556 1341 2556 1341 2538.5 1349.5 c 128,-1,174
 2521 1358 2521 1358 2512 1363.5 c 128,-1,175
 2503 1369 2503 1369 2485.5 1380 c 128,-1,176
 2468 1391 2468 1391 2458 1397 c 0,177,178
 2399 1431 2399 1431 2318 1499 c 0,179,180
 2271 1537 2271 1537 2228 1585 c 0,181,182
 2177 1646 2177 1646 2134 1720 c 0,183,184
 2104 1765 2104 1765 2089 1815 c 0,185,186
 2083 1831 2083 1831 2066 1873.5 c 128,-1,187
 2049 1916 2049 1916 2042.5 1934 c 128,-1,188
 2036 1952 2036 1952 2026.5 1985 c 128,-1,189
 2017 2018 2017 2018 2011 2048 c 0,190,191
 1987 2161 1987 2161 1987 2310 c 0,192,193
 1987 2393 1987 2393 1988 2428.5 c 128,-1,194
 1989 2464 1989 2464 1995 2523 c 128,-1,195
 2001 2582 2001 2582 2015 2642 c 0,196,197
 2030 2713 2030 2713 2049.5 2764 c 128,-1,198
 2069 2815 2069 2815 2105 2879 c 0,199,200
 2148 2952 2148 2952 2181 2994.5 c 128,-1,201
 2214 3037 2214 3037 2265 3076 c 0,202,203
 2319 3119 2319 3119 2339 3134 c 128,-1,204
 2359 3149 2359 3149 2396 3166 c 128,-1,205
 2433 3183 2433 3183 2478 3191 c 0,206,207
 2634 3219 2634 3219 2793 3166 c 1,208,209
 2912 3134 2912 3134 2961 3035 c 0,210,211
 3021 2918 3021 2918 3050 2838.5 c 128,-1,212
 3079 2759 3079 2759 3097 2646 c 0,213,214
 3107 2586 3107 2586 3111 2532 c 128,-1,215
 3115 2478 3115 2478 3112.5 2415.5 c 128,-1,216
 3110 2353 3110 2353 3107.5 2319 c 128,-1,217
 3105 2285 3105 2285 3096 2203 c 128,-1,218
 3087 2121 3087 2121 3084 2089 c 0,219,220
 3070 1941 3070 1941 3047 1830 c 128,-1,221
 3024 1719 3024 1719 2978 1552 c 0,222,223
 2970 1522 2970 1522 2962 1492.5 c 128,-1,224
 2954 1463 2954 1463 2947.5 1442 c 128,-1,225
 2941 1421 2941 1421 2930 1390.5 c 128,-1,226
 2919 1360 2919 1360 2914 1345.5 c 128,-1,227
 2909 1331 2909 1331 2894.5 1296.5 c 128,-1,228
 2880 1262 2880 1262 2875.5 1251 c 128,-1,229
 2871 1240 2871 1240 2853 1197.5 c 128,-1,230
 2835 1155 2835 1155 2830 1143 c 0,231,232
 2782 1028 2782 1028 2750.5 967 c 128,-1,233
 2719 906 2719 906 2662 823 c 0,234,235
 2643 795 2643 795 2611.5 745 c 128,-1,236
 2580 695 2580 695 2561.5 667 c 128,-1,237
 2543 639 2543 639 2512.5 600 c 128,-1,238
 2482 561 2482 561 2449 528 c 0,239,240
 2440 519 2440 519 2414 493 c 128,-1,241
 2388 467 2388 467 2380 459 c 128,-1,242
 2372 451 2372 451 2350 429.5 c 128,-1,243
 2328 408 2328 408 2318 398.5 c 128,-1,244
 2308 389 2308 389 2288 371 c 128,-1,245
 2268 353 2268 353 2254.5 341.5 c 128,-1,246
 2241 330 2241 330 2221.5 314 c 128,-1,247
 2202 298 2202 298 2183 283.5 c 128,-1,248
 2164 269 2164 269 2142 254 c 0,249,250
 2096 217 2096 217 2054 192 c 128,-1,251
 2012 167 2012 167 1950.5 137 c 128,-1,252
 1889 107 1889 107 1851 86 c 0,253,254
 1757 39 1757 39 1642 33 c 0,255,256
 1612 32 1612 32 1580 35.5 c 128,-1,257
 1548 39 1548 39 1527 44 c 128,-1,258
 1506 49 1506 49 1468 59 c 128,-1,259
 1430 69 1430 69 1409 74 c 0,260,261
 1395 77 1395 77 1369.5 82.5 c 128,-1,262
 1344 88 1344 88 1333 91 c 128,-1,263
 1322 94 1322 94 1302 99.5 c 128,-1,264
 1282 105 1282 105 1268 111 c 128,-1,265
 1254 117 1254 117 1235 126 c 128,-1,266
 1216 135 1216 135 1196 147 c 0,267,268
 1184 154 1184 154 1154.5 169.5 c 128,-1,269
 1125 185 1125 185 1111.5 193 c 128,-1,270
 1098 201 1098 201 1076 215 c 128,-1,271
 1054 229 1054 229 1037 244.5 c 128,-1,272
 1020 260 1020 260 1004 279 c 0,273,274
 944 348 944 348 911 412.5 c 128,-1,275
 878 477 878 477 852 569 c 0,276,277
 805 749 805 749 789 878 c 128,-1,278
 773 1007 773 1007 770 1208 c 0,279,280
 769 1312 769 1312 773 1414 c 128,-1,281
 777 1516 777 1516 783 1582.5 c 128,-1,282
 789 1649 789 1649 801 1769.5 c 128,-1,283
 813 1890 813 1890 819 1966 c 0,284,285
 832 2104 832 2104 836 2167.5 c 128,-1,286
 840 2231 840 2231 837.5 2329.5 c 128,-1,287
 835 2428 835 2428 819 2531 c 0,288,289
 807 2613 807 2613 785.5 2672 c 128,-1,290
 764 2731 764 2731 721 2802 c 0,291,292
 693 2850 693 2850 666.5 2878 c 128,-1,293
 640 2906 640 2906 594 2929 c 0,294,295
 553 2950 553 2950 515.5 2955 c 128,-1,296
 478 2960 478 2960 430 2953 c 0,297,298
 418 2951 418 2951 406.5 2948 c 128,-1,299
 395 2945 395 2945 387.5 2942.5 c 128,-1,300
 380 2940 380 2940 368 2934.5 c 128,-1,301
 356 2929 356 2929 350.5 2926.5 c 128,-1,302
 345 2924 345 2924 329.5 2915.5 c 128,-1,303
 314 2907 314 2907 307 2904 c 0,304,305
 266 2883 266 2883 245.5 2863.5 c 128,-1,306
 225 2844 225 2844 217 2810 c 0,307,308
 209 2751 209 2751 209.5 2729 c 128,-1,309
 210 2707 210 2707 217 2642 c 0,310,311
 219 2602 219 2602 242 2478 c 0,0,1
EndSplineSet
EndChar

StartChar: u1058D
Encoding: 66957 66957 26
Width: 2867
VWidth: 0
Flags: W
HStem: 2990 168<652.257 1151 1982 2344.34>
VStem: 705 376<464.536 2048.41> 1798 156<1653.75 2317.47>
LayerCount: 2
Fore
SplineSet
225 2216 m 0,0,1
 235 2166 235 2166 237 2136.5 c 128,-1,2
 239 2107 239 2107 227 2072.5 c 128,-1,3
 215 2038 215 2038 184 2015 c 0,4,5
 157 1993 157 1993 142 2033.5 c 128,-1,6
 127 2074 127 2074 119 2142 c 0,7,8
 113 2179 113 2179 102.5 2230 c 128,-1,9
 92 2281 92 2281 86 2318 c 0,10,11
 83 2342 83 2342 76.5 2371.5 c 128,-1,12
 70 2401 70 2401 67 2425 c 128,-1,13
 64 2449 64 2449 66 2478 c 0,14,15
 66 2483 66 2483 67.5 2500.5 c 128,-1,16
 69 2518 69 2518 69.5 2523 c 128,-1,17
 70 2528 70 2528 72 2541.5 c 128,-1,18
 74 2555 74 2555 76.5 2562.5 c 128,-1,19
 79 2570 79 2570 83.5 2580.5 c 128,-1,20
 88 2591 88 2591 94 2601 c 0,21,22
 136 2674 136 2674 201 2728 c 0,23,24
 206 2732 206 2732 224 2747.5 c 128,-1,25
 242 2763 242 2763 248 2768 c 128,-1,26
 254 2773 254 2773 269.5 2784 c 128,-1,27
 285 2795 285 2795 295 2800 c 128,-1,28
 305 2805 305 2805 320.5 2811.5 c 128,-1,29
 336 2818 336 2818 352 2822 c 0,30,31
 410 2839 410 2839 473 2841.5 c 128,-1,32
 536 2844 536 2844 594 2839 c 0,33,34
 665 2836 665 2836 718.5 2824 c 128,-1,35
 772 2812 772 2812 836 2785 c 0,36,37
 894 2762 894 2762 925 2734 c 128,-1,38
 956 2706 956 2706 995 2646 c 0,39,40
 1045 2569 1045 2569 1069.5 2504 c 128,-1,41
 1094 2439 1094 2439 1106 2351 c 0,42,43
 1115 2283 1115 2283 1116 2215.5 c 128,-1,44
 1117 2148 1117 2148 1113 2100.5 c 128,-1,45
 1109 2053 1109 2053 1104 1980 c 128,-1,46
 1099 1907 1099 1907 1098 1847 c 0,47,48
 1096 1770 1096 1770 1088.5 1617 c 128,-1,49
 1081 1464 1081 1464 1081 1360 c 0,50,51
 1081 1301 1081 1301 1079.5 1184.5 c 128,-1,52
 1078 1068 1078 1068 1078 1010.5 c 128,-1,53
 1078 953 1078 953 1085 859 c 128,-1,54
 1092 765 1092 765 1106 672 c 0,55,56
 1116 607 1116 607 1122 578.5 c 128,-1,57
 1128 550 1128 550 1146.5 508.5 c 128,-1,58
 1165 467 1165 467 1196 426 c 0,59,60
 1290 303 1290 303 1425 250 c 0,61,62
 1500 220 1500 220 1558.5 219.5 c 128,-1,63
 1617 219 1617 219 1692 254 c 1,64,65
 1780 303 1780 303 1837 342 c 128,-1,66
 1894 381 1894 381 1954 438 c 0,67,68
 1969 451 1969 451 2000 478.5 c 128,-1,69
 2031 506 2031 506 2042.5 516.5 c 128,-1,70
 2054 527 2054 527 2076 549 c 128,-1,71
 2098 571 2098 571 2122 598 c 0,72,73
 2152 631 2152 631 2173 660.5 c 128,-1,74
 2194 690 2194 690 2220 731 c 128,-1,75
 2246 772 2246 772 2265 799 c 0,76,77
 2291 836 2291 836 2311 870 c 128,-1,78
 2331 904 2331 904 2356 951 c 128,-1,79
 2381 998 2381 998 2396 1024 c 0,80,81
 2400 1031 2400 1031 2412 1052.5 c 128,-1,82
 2424 1074 2424 1074 2427 1080 c 128,-1,83
 2430 1086 2430 1086 2439 1102.5 c 128,-1,84
 2448 1119 2448 1119 2451.5 1127.5 c 128,-1,85
 2455 1136 2455 1136 2462 1151 c 128,-1,86
 2469 1166 2469 1166 2474.5 1180.5 c 128,-1,87
 2480 1195 2480 1195 2486 1212 c 0,88,89
 2513 1288 2513 1288 2540 1434 c 0,90,91
 2577 1621 2577 1621 2585 1692 c 0,92,93
 2588 1717 2588 1717 2593.5 1760 c 128,-1,94
 2599 1803 2599 1803 2601.5 1825 c 128,-1,95
 2604 1847 2604 1847 2606.5 1882.5 c 128,-1,96
 2609 1918 2609 1918 2609 1954 c 0,97,98
 2609 1982 2609 1982 2613 2021 c 128,-1,99
 2617 2060 2617 2060 2617 2089 c 0,100,101
 2617 2117 2617 2117 2609 2265 c 0,102,103
 2602 2386 2602 2386 2585 2441 c 0,104,105
 2571 2490 2571 2490 2557 2519 c 128,-1,106
 2543 2548 2543 2548 2515 2576 c 0,107,108
 2482 2609 2482 2609 2408 2609 c 1,109,110
 2345 2605 2345 2605 2273 2568 c 0,111,112
 2258 2561 2258 2561 2241.5 2547 c 128,-1,113
 2225 2533 2225 2533 2204 2513 c 128,-1,114
 2183 2493 2183 2493 2175 2486 c 0,115,116
 2164 2477 2164 2477 2136 2454.5 c 128,-1,117
 2108 2432 2108 2432 2089 2413 c 0,118,119
 2075 2399 2075 2399 2066.5 2386.5 c 128,-1,120
 2058 2374 2058 2374 2054.5 2366.5 c 128,-1,121
 2051 2359 2051 2359 2040 2335 c 0,122,123
 2006 2269 2006 2269 1987 2200 c 0,124,125
 1977 2158 1977 2158 1962 2036 c 0,126,127
 1950 1937 1950 1937 1954 1872 c 0,128,129
 1958 1835 1958 1835 1964 1807 c 128,-1,130
 1970 1779 1970 1779 1981.5 1740.5 c 128,-1,131
 1993 1702 1993 1702 1999 1675 c 0,132,133
 2016 1608 2016 1608 2052 1556 c 0,134,135
 2060 1545 2060 1545 2075 1521.5 c 128,-1,136
 2090 1498 2090 1498 2101.5 1483.5 c 128,-1,137
 2113 1469 2113 1469 2130 1454 c 0,138,139
 2153 1431 2153 1431 2216 1393 c 0,140,141
 2235 1381 2235 1381 2267 1365 c 128,-1,142
 2299 1349 2299 1349 2310 1343 c 0,143,144
 2322 1336 2322 1336 2341 1330.5 c 128,-1,145
 2360 1325 2360 1325 2369.5 1318 c 128,-1,146
 2379 1311 2379 1311 2384 1294 c 0,147,148
 2411 1201 2411 1201 2367 1188 c 0,149,150
 2353 1184 2353 1184 2339.5 1184 c 128,-1,151
 2326 1184 2326 1184 2315.5 1186.5 c 128,-1,152
 2305 1189 2305 1189 2292 1195.5 c 128,-1,153
 2279 1202 2279 1202 2270.5 1207.5 c 128,-1,154
 2262 1213 2262 1213 2247.5 1222.5 c 128,-1,155
 2233 1232 2233 1232 2224 1237 c 0,156,157
 2202 1250 2202 1250 2184.5 1263.5 c 128,-1,158
 2167 1277 2167 1277 2144.5 1295.5 c 128,-1,159
 2122 1314 2122 1314 2105 1327 c 0,160,161
 2047 1372 2047 1372 2015 1409 c 0,162,163
 2002 1424 2002 1424 1991 1439 c 128,-1,164
 1980 1454 1980 1454 1973.5 1464.5 c 128,-1,165
 1967 1475 1967 1475 1955.5 1495.5 c 128,-1,166
 1944 1516 1944 1516 1937 1528 c 0,167,168
 1932 1536 1932 1536 1923 1550 c 128,-1,169
 1914 1564 1914 1564 1909 1572 c 128,-1,170
 1904 1580 1904 1580 1898 1592.5 c 128,-1,171
 1892 1605 1892 1605 1888 1618 c 0,172,173
 1879 1644 1879 1644 1862.5 1685 c 128,-1,174
 1846 1726 1846 1726 1836 1756 c 128,-1,175
 1826 1786 1826 1786 1819 1823 c 0,176,177
 1798 1936 1798 1936 1798 2064 c 0,178,179
 1798 2134 1798 2134 1799 2168.5 c 128,-1,180
 1800 2203 1800 2203 1805.5 2254.5 c 128,-1,181
 1811 2306 1811 2306 1823 2359 c 0,182,183
 1846 2458 1846 2458 1905 2576 c 0,184,185
 1942 2642 1942 2642 1970.5 2681 c 128,-1,186
 1999 2720 1999 2720 2044 2753 c 0,187,188
 2090 2788 2090 2788 2111 2803 c 128,-1,189
 2132 2818 2132 2818 2166 2832.5 c 128,-1,190
 2200 2847 2200 2847 2241 2855 c 0,191,192
 2314 2868 2314 2868 2380 2865.5 c 128,-1,193
 2446 2863 2446 2863 2519 2839 c 0,194,195
 2570 2824 2570 2824 2614 2791 c 128,-1,196
 2658 2758 2658 2758 2679 2716 c 0,197,198
 2730 2615 2730 2615 2754 2541.5 c 128,-1,199
 2778 2468 2778 2468 2793 2363 c 0,200,201
 2806 2280 2806 2280 2807.5 2196.5 c 128,-1,202
 2809 2113 2809 2113 2805 2063.5 c 128,-1,203
 2801 2014 2801 2014 2789 1903 c 0,204,205
 2786 1877 2786 1877 2785 1864 c 0,206,207
 2771 1735 2771 1735 2750.5 1638.5 c 128,-1,208
 2730 1542 2730 1542 2687 1380 c 0,209,210
 2657 1259 2657 1259 2632 1184.5 c 128,-1,211
 2607 1110 2607 1110 2560 1012 c 0,212,213
 2547 984 2547 984 2524 934.5 c 128,-1,214
 2501 885 2501 885 2489.5 861.5 c 128,-1,215
 2478 838 2478 838 2456 799 c 128,-1,216
 2434 760 2434 760 2408 721 c 0,217,218
 2401 709 2401 709 2372.5 664.5 c 128,-1,219
 2344 620 2344 620 2333.5 605.5 c 128,-1,220
 2323 591 2323 591 2300.5 559 c 128,-1,221
 2278 527 2278 527 2257.5 503.5 c 128,-1,222
 2237 480 2237 480 2212 455 c 0,223,224
 2188 431 2188 431 2146 387.5 c 128,-1,225
 2104 344 2104 344 2083.5 323.5 c 128,-1,226
 2063 303 2063 303 2025.5 271 c 128,-1,227
 1988 239 1988 239 1946 209 c 0,228,229
 1904 176 1904 176 1861.5 152 c 128,-1,230
 1819 128 1819 128 1764.5 102.5 c 128,-1,231
 1710 77 1710 77 1675 57 c 0,232,233
 1592 15 1592 15 1483 8 c 0,234,235
 1454 7 1454 7 1425 9.5 c 128,-1,236
 1396 12 1396 12 1383 14.5 c 128,-1,237
 1370 17 1370 17 1330.5 27.5 c 128,-1,238
 1291 38 1291 38 1278 41 c 0,239,240
 1211 57 1211 57 1176.5 69.5 c 128,-1,241
 1142 82 1142 82 1090 111 c 0,242,243
 1075 119 1075 119 1043 135.5 c 128,-1,244
 1011 152 1011 152 994 161.5 c 128,-1,245
 977 171 977 171 953.5 190.5 c 128,-1,246
 930 210 930 210 913 233 c 0,247,248
 854 302 854 302 822.5 357.5 c 128,-1,249
 791 413 791 413 770 492 c 0,250,251
 758 534 758 534 748.5 574 c 128,-1,252
 739 614 739 614 732.5 643 c 128,-1,253
 726 672 726 672 721.5 715 c 128,-1,254
 717 758 717 758 714.5 777.5 c 128,-1,255
 712 797 712 797 710 848 c 128,-1,256
 708 899 708 899 707.5 913.5 c 128,-1,257
 707 928 707 928 706 992 c 128,-1,258
 705 1056 705 1056 705 1073 c 0,259,260
 707 1160 707 1160 704.5 1179.5 c 128,-1,261
 702 1199 702 1199 706.5 1276.5 c 128,-1,262
 711 1354 711 1354 711 1368 c 128,-1,263
 711 1382 711 1382 717.5 1458 c 128,-1,264
 724 1534 724 1534 725.5 1549.5 c 128,-1,265
 727 1565 727 1565 735 1646.5 c 128,-1,266
 743 1728 743 1728 745 1753 c 0,267,268
 746 1761 746 1761 749.5 1808.5 c 128,-1,269
 753 1856 753 1856 754 1863.5 c 128,-1,270
 755 1871 755 1871 757.5 1911 c 128,-1,271
 760 1951 760 1951 760 1961.5 c 128,-1,272
 760 1972 760 1972 761.5 2006 c 128,-1,273
 763 2040 763 2040 762 2055 c 128,-1,274
 761 2070 761 2070 760.5 2100.5 c 128,-1,275
 760 2131 760 2131 757.5 2152.5 c 128,-1,276
 755 2174 755 2174 752 2203 c 128,-1,277
 749 2232 749 2232 745 2261 c 0,278,279
 734 2331 734 2331 714 2379.5 c 128,-1,280
 694 2428 694 2428 651 2503 c 0,281,282
 628 2549 628 2549 603 2577 c 128,-1,283
 578 2605 578 2605 537 2626 c 0,284,285
 503 2644 503 2644 468 2646.5 c 128,-1,286
 433 2649 433 2649 393 2642 c 0,287,288
 376 2641 376 2641 360 2636.5 c 128,-1,289
 344 2632 344 2632 335.5 2628 c 128,-1,290
 327 2624 327 2624 309.5 2614.5 c 128,-1,291
 292 2605 292 2605 283 2601 c 0,292,293
 256 2588 256 2588 241.5 2579 c 128,-1,294
 227 2570 227 2570 212 2552 c 128,-1,295
 197 2534 197 2534 193 2511 c 128,-1,296
 189 2488 189 2488 188.5 2468 c 128,-1,297
 188 2448 188 2448 189.5 2436 c 128,-1,298
 191 2424 191 2424 195 2400.5 c 128,-1,299
 199 2377 199 2377 201 2359 c 0,300,301
 204 2316 204 2316 225 2216 c 0,0,1
385 3183 m 2,302,303
 386 3192 386 3192 382.5 3214 c 128,-1,304
 379 3236 379 3236 381.5 3248 c 128,-1,305
 384 3260 384 3260 401 3260 c 0,306,307
 558 3258 558 3258 787.5 3219.5 c 128,-1,308
 1017 3181 1017 3181 1151 3174 c 0,309,310
 1230 3169 1230 3169 1306 3166 c 128,-1,311
 1382 3163 1382 3163 1435.5 3161 c 128,-1,312
 1489 3159 1489 3159 1569.5 3158.5 c 128,-1,313
 1650 3158 1650 3158 1691 3158 c 128,-1,314
 1732 3158 1732 3158 1833.5 3158 c 128,-1,315
 1935 3158 1935 3158 1982 3158 c 0,316,317
 2065 3158 2065 3158 2351 3174 c 1,318,319
 2355 3159 2355 3159 2368.5 3139 c 128,-1,320
 2382 3119 2382 3119 2392 3105.5 c 128,-1,321
 2402 3092 2402 3092 2401 3078.5 c 128,-1,322
 2400 3065 2400 3065 2380 3056 c 0,323,324
 2335 3033 2335 3033 2284 3020.5 c 128,-1,325
 2233 3008 2233 3008 2200.5 3005.5 c 128,-1,326
 2168 3003 2168 3003 2097.5 3001.5 c 128,-1,327
 2027 3000 2027 3000 1995 2998 c 0,328,329
 1589 2979 1589 2979 1118 2990 c 0,330,331
 982 2994 982 2994 862 3004 c 128,-1,332
 742 3014 742 3014 597.5 3030.5 c 128,-1,333
 453 3047 453 3047 344 3056 c 1,334,-1
 385 3183 l 2,302,303
EndSplineSet
EndChar

